<svg xmlns="http://www.w3.org/2000/svg" xmlns:xlink="http://www.w3.org/1999/xlink" width="95" height="241.667" viewBox="0 0 95 241.667">
  <defs>
    <linearGradient id="linear-gradient" x1="0.5" y1="1" x2="0.5" gradientUnits="objectBoundingBox">
      <stop offset="0" stop-color="gray" stop-opacity="0.251"/>
      <stop offset="0.54" stop-color="gray" stop-opacity="0.122"/>
      <stop offset="1" stop-color="gray" stop-opacity="0.102"/>
    </linearGradient>
  </defs>
  <g id="nurse" transform="translate(-362.589 -257.862)">
    <path id="Trazado_68" data-name="Trazado 68" d="M47.5,0C73.734,0,95,4.7,95,10.5S73.734,21,47.5,21,0,16.3,0,10.5,21.266,0,47.5,0Z" transform="translate(362.589 478.529)" fill="#f8f8f8"/>
    <path id="Trazado_30" data-name="Trazado 30" d="M394.561,341.54a.218.218,0,0,1,.061-.106c.607-.6,8.345-11.542,8.345-11.542s.407-1.222,1.067-2.81a2.789,2.789,0,0,1-.468-.916,3.147,3.147,0,0,1-.078-.428c0-.045-.032-.081-.045-.126a3.091,3.091,0,0,1,.041-1.678,2.9,2.9,0,0,0,.167.407,6.8,6.8,0,0,1,.611-1.36c1.026-1.768,2.492-3.258,3.572-4.981a13.477,13.477,0,0,0,1.837-8.943c0,.159,0,.322,0,.48a13.9,13.9,0,0,0-.244-1.833,12.708,12.708,0,0,0-.68-2.012c-.969-2.22-2.537-4.154-3.49-6.382a12.1,12.1,0,0,1-.725-2.334,13.072,13.072,0,0,1-.362-4.093,6.519,6.519,0,0,0,.1.973,13.257,13.257,0,0,1,3.743-8.826c3.327-3.344,8.1-4.643,12.674-5.327a11.611,11.611,0,0,0,5.335-2.036,9.275,9.275,0,0,1,6.077-1.161,10.023,10.023,0,0,1,6.186,3.059c2.171,2.387,3.112,5.767,5.645,7.779,1.535,1.222,3.482,1.792,5.27,2.623s3.478,2.036,4.052,3.82v.065l.024.065c.595,2.11-.554,4.256-1.153,6.362a25.771,25.771,0,0,0-.7,6.732c-.045,2.753-.086,5.51-.041,8.268.02,1.083.057,2.179.138,3.258a17.075,17.075,0,0,1,2.8,1.124,55.438,55.438,0,0,1,4.325,4.28l6.675,25.5-.09.1.09.346-.338-.077a34.359,34.359,0,0,1-6.814,5.726l-.285,5a8.89,8.89,0,0,1-4.957,7.091c-.106,1.739-.436,8.8,1.091,11.6a13.032,13.032,0,0,1,1.442,6.63s-.534,4.244.073,6.475a10.59,10.59,0,0,1,.077,4.545h0v1.34c0,4.517-.053,18.991,0,20.628.077,1.934,0,30.545,0,30.545s.379,14.3,1.592,18.172.908,16.7.908,16.7.762,15.277-1.93,18.29c0,.135.024.273.028.407v.192c.032,1.161-.191,2.395-1.189,2.773a17.048,17.048,0,0,0-5.238,3.8c-.509.672-3.47,2.346-7.331,1.9a55.205,55.205,0,0,0-7.286-.334h0s-1.523-.277-1.03-2.171h0a16.961,16.961,0,0,1,2.354-4.191c-.155.041-.305.073-.448.1l-.147.028h-.114a1.523,1.523,0,0,1-.187,0h-.081a1.38,1.38,0,0,1-.228,0h0c-1.022-.1-4.834,1.678-5.515,2.851s-3.079,2.065-4.887,2.289a34.724,34.724,0,0,1-6.064-.383,22.326,22.326,0,0,1-3.4-.619c-.538-.2-.652-.855-.5-1.589h0a4.135,4.135,0,0,1,1.409-2.378,11.431,11.431,0,0,0,2.175-2.712l.171-.273c-1.136-1.083-3.189-4.627-3.812-5.36-.757-.892,1.222-33.51,1.222-33.51V447.027L413.06,431.55l-2.122-8.19L409.117,411s-3.185-14.442-2.2-15.859h0c0-.029.814-14.9,1.67-18.47.371-1.592.277-5.176.057-8.663a1.711,1.711,0,0,1-.407-1.784,3.728,3.728,0,0,1,.236-.607v-.187a28.032,28.032,0,0,0-5.486-1.865c-3.034-.595-2.277-2.159-2.277-2.159s-.684-1.34-1.136-2.158-.077-8.044,0-8.638c.029-.24.216-1.568.432-3.075-.973-.692-2.24-1.552-3.621-2.366C393.755,343.609,394.346,341.967,394.561,341.54Zm39.587,103.255s2.277,5.808,1.364,7.294.151,7.005.151,7.005l.762,8.19s2.122,15.191,1.364,18.763c-.595,2.8-.815,11.171-.884,14.662h0a1.034,1.034,0,0,1,.151.073l.1.053c-.35-1.372-.2-4.15,1.535-9.738l.147-23.08s.269-26.66-1.837-29.641-2.851-8.043-2.851-8.043.456,7.3.753,9.237S434.148,444.795,434.148,444.795Zm4.24,57.368c.02.049.045.1.061.143l.114-.146a1.206,1.206,0,0,1-.175,0Z" transform="translate(-15.949 -18.56)" fill="url(#linear-gradient)"/>
    <path id="Trazado_31" data-name="Trazado 31" d="M461.757,840.089A40.422,40.422,0,0,0,471.1,841.1c1.784-.216,4.146-1.12,4.818-2.3s4.439-2.965,5.449-2.851a3.662,3.662,0,0,0,1.222-.171,14.97,14.97,0,0,0,2.036-.782,3.78,3.78,0,0,0-.045-1.548,2.49,2.49,0,0,0-.09-.3,2.693,2.693,0,0,0-1.368-1.523l-.147-.069a4.154,4.154,0,0,0-.88-.269c-3.2-.615-16.409.619-16.409.619s-.371.664-.88,1.487a11.367,11.367,0,0,1-2.15,2.729,4.174,4.174,0,0,0-1.389,2.395C461.113,839.23,461.227,839.89,461.757,840.089Z" transform="translate(-62.537 -347.339)" fill="#fff"/>
    <path id="Trazado_32" data-name="Trazado 32" d="M461.775,841.75a40.39,40.39,0,0,0,9.339,1.006c1.784-.216,4.146-1.124,4.822-2.3s4.435-2.965,5.445-2.851a9.437,9.437,0,0,0,3.258-.953,3.376,3.376,0,0,0-.668-2.741l-2.036,1.446s-5.449,1.69-6.459,3.258-2.851,2.444-5.51,2.6a51.549,51.549,0,0,1-8.691-1.031C461.132,840.891,461.242,841.55,461.775,841.75Z" transform="translate(-62.555 -349)" opacity="0.1"/>
    <path id="Trazado_33" data-name="Trazado 33" d="M419.671,842.381a54.26,54.26,0,0,1,7.192.338c3.824.448,6.744-1.222,7.253-1.91a17,17,0,0,1,5.168-3.829c.99-.383,1.222-1.629,1.177-2.794v-.192a11.422,11.422,0,0,0-.326-2.187l-15.847-.338-1.373,1.861-.212.285-.835,1.136s-.379.5-.876,1.222a17.391,17.391,0,0,0-2.326,4.219h0C418.169,842.1,419.671,842.381,419.671,842.381Z" transform="translate(-0.955 -347.554)" fill="#fff"/>
    <path id="Trazado_34" data-name="Trazado 34" d="M419.688,846.346a54.26,54.26,0,0,1,7.192.338c3.82.448,6.744-1.222,7.249-1.91a16.511,16.511,0,0,1,5.172-3.82c.99-.383,1.222-1.629,1.177-2.794-1.132.265-3.511.941-4.443,2.118-1.222,1.572-3.409,4.215-6.516,4.382-2.509.134-8.618-.314-10.858-.493C418.181,846.069,419.688,846.346,419.688,846.346Z" transform="translate(-0.972 -351.519)" opacity="0.1"/>
    <path id="Trazado_35" data-name="Trazado 35" d="M418.53,831.8c.183,1.36.749,1.727,1.157,1.808a.8.8,0,0,0,.3,0,1.027,1.027,0,0,0,.159-.024s14.23,3.144,17.105.6a1.979,1.979,0,0,0,.2-.212,11.4,11.4,0,0,0-.326-2.187l-15.847-.338-1.373,1.861a2.692,2.692,0,0,0-1.368-1.523Z" transform="translate(2.072 -347.542)" opacity="0.1"/>
    <path id="Trazado_36" data-name="Trazado 36" d="M465.36,833.316c.318.35.582.55.749.481.749-.3,6.891-1.348,8.842-.448s8.553.147,8.553.147,0-.782.037-2.036a4.144,4.144,0,0,0-.88-.269c-3.2-.615-16.409.619-16.409.619S465.865,832.494,465.36,833.316Z" transform="translate(-63.085 -347.286)" opacity="0.1"/>
    <path id="Trazado_37" data-name="Trazado 37" d="M416.089,579.911l1.8,12.438,2.093,8.243,3,15.582v16.495s-1.947,32.818-1.2,33.714,3.6,6,4.346,5.7,6.891-1.348,8.842-.452,8.553.151,8.553.151.151-12.736.9-16.332-1.348-18.881-1.348-18.881l-.75-8.239s-1.051-5.547-.151-7.046-1.348-7.331-1.348-7.331,1.047-3.3.745-5.25-.745-9.29-.745-9.29.745,5.1,2.827,8.092,1.816,29.82,1.816,29.82l-.147,23.214c-3.751,12.291,0,11.09,0,11.09s14.23,3.148,17.105.6,2.053-18.6,2.053-18.6.3-12.886-.9-16.779S462,618.573,462,618.573s.077-28.774,0-30.716c-.057-1.629,0-16.213,0-20.771v-1.348l-1.719-4.268-20.363-2.55H430.18s-14.662,3.446-16.177,4.932a.331.331,0,0,0-.081.09C412.94,565.379,416.089,579.911,416.089,579.911Z" transform="translate(-23.108 -186.005)" fill="#6c63ff"/>
    <path id="Trazado_38" data-name="Trazado 38" d="M479.034,770.88s-4.48,10.789-6.594,11.538S479.034,770.88,479.034,770.88Z" transform="translate(-61.329 -311.64)" opacity="0.1"/>
    <path id="Trazado_39" data-name="Trazado 39" d="M491.156,809.88s-15.126.749-14.975,2.4S491.156,809.88,491.156,809.88Z" transform="translate(-75.108 -334.757)" opacity="0.1"/>
    <path id="Trazado_40" data-name="Trazado 40" d="M437.181,799.29c-.6.566-11.538,1.629-10.638,2.663S436.28,805,436.28,805Z" transform="translate(-0.895 -328.48)" opacity="0.1"/>
    <path id="Trazado_41" data-name="Trazado 41" d="M430.474,753.59c0,.448-2.248,14.385-2.851,14.983s-5.543,1.2-5.543,1.2Z" transform="translate(7.608 -301.392)" opacity="0.1"/>
    <path id="Trazado_42" data-name="Trazado 42" d="M457.971,281.232c2.146,2.4,3.075,5.8,5.576,7.828,1.519,1.222,3.441,1.8,5.209,2.635s3.519,2.1,4.044,3.979c.586,2.118-.546,4.28-1.14,6.4a26.48,26.48,0,0,0-.688,6.773c-.041,2.774-.086,5.547-.037,8.321.073,4.321.432,8.842,2.725,12.5-8.28,2.635-17.085,2.993-25.768,3.331a25.986,25.986,0,0,1-5.005-.126,42.894,42.894,0,0,1-4.264-1.079,32.706,32.706,0,0,0-8.5-1.087,14.267,14.267,0,0,1-3.731-.248,3.681,3.681,0,0,1-2.692-2.366,4.4,4.4,0,0,1,.688-3.209c1.01-1.776,2.444-3.258,3.527-5.009A13.765,13.765,0,0,0,428.8,307.5c-.961-2.236-2.509-4.183-3.454-6.423a13.546,13.546,0,0,1,2.729-14.369c3.287-3.364,8-4.667,12.516-5.36a11.367,11.367,0,0,0,5.27-2.036,9.02,9.02,0,0,1,6-1.165,9.8,9.8,0,0,1,6.1,3.087Z" transform="translate(-36.201 -19.53)" fill="#3f3d56"/>
    <g id="Grupo_1" data-name="Grupo 1" transform="translate(387.287 275.085)" opacity="0.1">
      <path id="Trazado_43" data-name="Trazado 43" d="M535.864,329.242a13.551,13.551,0,0,1,1.038,6.219,13.314,13.314,0,0,0-1.038-4.415c-.957-2.236-2.5-4.182-3.45-6.422a13,13,0,0,1-.949-5.914,12.67,12.67,0,0,0,.949,4.114C533.359,325.063,534.907,327.006,535.864,329.242Z" transform="translate(-530.675 -318.71)"/>
      <path id="Trazado_44" data-name="Trazado 44" d="M425.688,333.684c-.025,1.6-.049,3.2-.053,4.793q0-3.3.053-6.59a26.427,26.427,0,0,1,.688-6.777A33.577,33.577,0,0,0,427.6,320.9c.362,2-.668,4.02-1.222,6.011A26.3,26.3,0,0,0,425.688,333.684Z" transform="translate(-378.326 -320.008)"/>
      <path id="Trazado_45" data-name="Trazado 45" d="M426.779,397.693a13.754,13.754,0,0,0,3.726.248A32.681,32.681,0,0,1,439,399.008a43.252,43.252,0,0,0,4.264,1.075,25.732,25.732,0,0,0,5.01.13c8.39-.33,16.9-.684,24.933-3.083a13.85,13.85,0,0,0,.815,1.548c-8.28,2.631-17.085,2.993-25.764,3.332a25.744,25.744,0,0,1-5.009-.131A42.078,42.078,0,0,1,439,400.808a32.678,32.678,0,0,0-8.476-1.079,14.068,14.068,0,0,1-3.726-.252,3.684,3.684,0,0,1-2.692-2.362,3.232,3.232,0,0,1,.041-1.694A3.8,3.8,0,0,0,426.779,397.693Z" transform="translate(-424.01 -364.178)"/>
    </g>
    <path id="Trazado_46" data-name="Trazado 46" d="M441.961,354.274c.3.676,1.572,6.516,1.874,7.115s1.947,10.182,2.1,10.72,10.846-2.248,10.846-2.248l6.439-5.4,6.618-6.586s.2-5.942-4.68-7.848a7.435,7.435,0,0,0-1.018-.318c-5.914-1.421-5.319-19.4-5.319-19.4l-12.137,5.241s2.248,10.491,2.171,12.516c-.02.68-.554,1.1-1.251,1.36a9.885,9.885,0,0,1-3.315.358S441.66,353.6,441.961,354.274Z" transform="translate(-39.842 -50.501)" fill="#fbbebe"/>
    <path id="Trazado_47" data-name="Trazado 47" d="M526.352,436.226l-1.723.452s-1.275,1.939,1.723,3.743a51.879,51.879,0,0,1,5.469,3.825l8.859,2.7,1.706-5.355-8.243-6.256Z" transform="translate(-145.96 -112.75)" fill="#6c63ff"/>
    <path id="Trazado_48" data-name="Trazado 48" d="M526.352,436.226l-1.723.452s-1.275,1.939,1.723,3.743a51.879,51.879,0,0,1,5.469,3.825l8.859,2.7,1.706-5.355-8.243-6.256Z" transform="translate(-145.96 -112.75)" opacity="0.1"/>
    <path id="Trazado_49" data-name="Trazado 49" d="M411.955,448.813l3.446,3.372s-6.215,7.192-11,7.64-7.864-5.47-7.864-5.47l4.138-6.516Z" transform="translate(33.083 -120.165)" fill="#6c63ff"/>
    <path id="Trazado_50" data-name="Trazado 50" d="M411.955,448.813l3.446,3.372s-6.215,7.192-11,7.64-7.864-5.47-7.864-5.47l4.138-6.516Z" transform="translate(33.083 -120.165)" opacity="0.1"/>
    <circle id="Elipse_16" data-name="Elipse 16" cx="11.986" cy="11.986" r="11.986" transform="translate(400.324 267.587)" opacity="0.1"/>
    <circle id="Elipse_17" data-name="Elipse 17" cx="11.986" cy="11.986" r="11.986" transform="translate(400.324 266.687)" fill="#fbbebe"/>
    <path id="Trazado_51" data-name="Trazado 51" d="M420.07,565.32a38.685,38.685,0,0,1,8.019,1.8c4.48,1.49,39.587.024,40.075,0v-1.348l-1.719-4.268-20.364-2.549H436.34s-14.662,3.445-16.177,4.932C420.1,564.778,420.07,565.32,420.07,565.32Z" transform="translate(-29.264 -186.023)" opacity="0.1"/>
    <path id="Trazado_52" data-name="Trazado 52" d="M441.961,382.1c.3.676,1.572,6.517,1.874,7.115s1.947,10.182,2.1,10.719,10.846-2.248,10.846-2.248l6.439-5.4,6.618-6.586s.2-5.942-4.68-7.848l-12.1,13.917L447.6,377.25a9.885,9.885,0,0,1-3.315.358S441.66,381.424,441.961,382.1Z" transform="translate(-39.842 -78.324)" opacity="0.1"/>
    <path id="Trazado_53" data-name="Trazado 53" d="M439.008,391.31,451.4,377.056a5.192,5.192,0,0,1,4.916-.362c2.773,1.2,6.219,2.175,7.119,2.773a55.539,55.539,0,0,1,4.272,4.3l-10.043,26.273,4.423,17.3s-.676,8.842,1.047,12.063a13.239,13.239,0,0,1,1.426,6.667s-.525,4.272.073,6.516a10.852,10.852,0,0,1,.077,4.57s-35.591,1.5-40.083,0a38.366,38.366,0,0,0-8.019-1.8s.814-14.987,1.629-18.584-.676-17.3-.676-17.3l.973-14.686-5.84-15.069s3.164-9.66,6.463-10.634a64.057,64.057,0,0,0,7.266-2.1,25.473,25.473,0,0,1,5.022-1.275l1.967.66Z" transform="translate(-25.798 -77.417)" fill="#6c63ff"/>
    <rect id="Rectángulo_30" data-name="Rectángulo 30" width="28.525" height="43.651" rx="2.94" transform="translate(426.15 368.58) rotate(176.11)" opacity="0.1"/>
    <rect id="Rectángulo_31" data-name="Rectángulo 31" width="28.525" height="43.651" rx="2.94" transform="translate(425.252 367.686) rotate(176.11)" fill="#3f3d56"/>
    <rect id="Rectángulo_32" data-name="Rectángulo 32" width="24.852" height="37.559" transform="translate(423.228 365.001) rotate(176.11)" fill="#fff"/>
    <rect id="Rectángulo_33" data-name="Rectángulo 33" width="20.303" height="5.659" transform="matrix(-0.998, 0.07, -0.07, -0.998, 418.759, 343.006)" opacity="0.1"/>
    <rect id="Rectángulo_34" data-name="Rectángulo 34" width="3.222" height="2.949" transform="translate(402.256 363.935) rotate(176.11)" opacity="0.1"/>
    <rect id="Rectángulo_35" data-name="Rectángulo 35" width="16.49" height="2.949" transform="translate(418.665 355.935) rotate(176.11)" opacity="0.1"/>
    <rect id="Rectángulo_36" data-name="Rectángulo 36" width="17.171" height="4.533" transform="translate(416.393 331.172) rotate(176.11)" fill="#3f3d56"/>
    <rect id="Rectángulo_37" data-name="Rectángulo 37" width="17.171" height="4.533" transform="translate(416.393 331.172) rotate(176.11)" opacity="0.1"/>
    <path id="Trazado_54" data-name="Trazado 54" d="M476.189,572.56s.151,22.18,6,34.915c0,0-7.046-16.783-7.046-17.455s-3.894-7.718-2.851-9.815S476.189,572.56,476.189,572.56Z" transform="translate(-64.478 -194.09)" opacity="0.1"/>
    <path id="Trazado_55" data-name="Trazado 55" d="M465.881,301.813a8.336,8.336,0,0,0-1.356-5.584,6.879,6.879,0,0,1-5.319,7.249.9.9,0,0,0,.257-.986,30.167,30.167,0,0,1-2.419,2.9,3.215,3.215,0,0,1-3.474.737c-1.511-.814-1.527-2.961-1.136-4.631a21.752,21.752,0,0,1,5.006-9.559,6.622,6.622,0,0,1,5.254-2.672,12.926,12.926,0,0,1,6.789,1.063,18.046,18.046,0,0,1,3.258,2.277l5.7,4.651a5.413,5.413,0,0,1,1.385,1.458,3.991,3.991,0,0,1,.432,1.527,8.231,8.231,0,0,1-3.836,7.767,6.073,6.073,0,0,0-3.637-5.7,1.58,1.58,0,0,0-.566,1.177l-1.2-2.142a2.356,2.356,0,0,0-.815-.965,2.127,2.127,0,0,0-2.3.648,4.1,4.1,0,0,1-2.093,1.381l-.033-3.189" transform="translate(-54.488 -26.138)" opacity="0.1"/>
    <path id="Trazado_56" data-name="Trazado 56" d="M465.925,300.713a8.341,8.341,0,0,0-1.356-5.588,6.883,6.883,0,0,1-5.323,7.249.892.892,0,0,0,.256-.981,30.681,30.681,0,0,1-2.419,2.9,3.2,3.2,0,0,1-3.474.733c-1.511-.814-1.527-2.961-1.136-4.627a21.748,21.748,0,0,1,5.005-9.559,8.011,8.011,0,0,1,2.8-2.175,8.145,8.145,0,0,1,2.443-.5,12.924,12.924,0,0,1,6.789,1.059,18.277,18.277,0,0,1,3.258,2.281l5.7,4.651a5.36,5.36,0,0,1,1.385,1.458,3.976,3.976,0,0,1,.432,1.527,8.227,8.227,0,0,1-3.836,7.763,6.081,6.081,0,0,0-3.637-5.7,1.592,1.592,0,0,0-.566,1.177l-1.2-2.134a2.333,2.333,0,0,0-.815-.965,2.126,2.126,0,0,0-2.3.648,4.128,4.128,0,0,1-2.093,1.381l-.033-3.193" transform="translate(-54.532 -25.486)" fill="#3f3d56"/>
    <path id="Trazado_57" data-name="Trazado 57" d="M426.409,470.975c1.047-.529,18.356,2.171,18.356,2.171a99.02,99.02,0,0,1,9.742-1.947c6.891-1.132,7.331-7.869,7.331-7.869l.753-13.485-2.326-2.036-9.962,6.517a32.2,32.2,0,0,0,0,3.889,5.466,5.466,0,0,1,.334,1.222.407.407,0,0,1-.334.367c-.676.171-9.888,1.662-9.888,1.662S419.061,460,413.739,467.2a5.406,5.406,0,0,0-.941,1.776C411.478,473.888,425.46,471.444,426.409,470.975Z" transform="translate(-20.693 -120.147)" fill="#fbbebe"/>
    <path id="Trazado_58" data-name="Trazado 58" d="M441.283,485.964c.815.363,1.319.623,1.319.623s7.64-.224,11.933-1.78a28.029,28.029,0,0,1,9.51-1.279s17.887-3.079,15.114-7.1a.407.407,0,0,1-.334.367c-.676.171-9.888,1.662-9.888,1.662s-21.353-1.462-26.676,5.73A5.409,5.409,0,0,0,441.283,485.964Z" transform="translate(-49.19 -137.111)" opacity="0.1"/>
    <path id="Trazado_59" data-name="Trazado 59" d="M442.658,441.58s-1.051,7.416-1.124,8.019-.452,7.864,0,8.691,1.124,2.171,1.124,2.171-.749,1.572,2.248,2.175a30.771,30.771,0,0,1,6.516,2.395s7.644-.224,11.913-1.8a27.486,27.486,0,0,1,9.514-1.275s22.705-3.9,12.963-8.654a14.992,14.992,0,0,0-16.633,1.686l-10.862-.672s-4.048-2.476-5.172-2.248a4.157,4.157,0,0,1-2.322-.375l-.077-7.868Z" transform="translate(-57.994 -116.454)" fill="#fbbebe"/>
    <path id="Trazado_60" data-name="Trazado 60" d="M406.589,396.714l2.175-.114,6.59,25.658s-7.115-1.8-10.182,0-8.691,2.171-8.691,2.171l2.1-20.453Z" transform="translate(33.155 -89.793)" opacity="0.1"/>
    <path id="Trazado_61" data-name="Trazado 61" d="M406.589,395.6l2.175-.114,6.59,25.658s-7.115-1.8-10.182,0-8.691,2.171-8.691,2.171l2.1-20.453Z" transform="translate(33.155 -89.135)" fill="#6c63ff"/>
    <path id="Trazado_62" data-name="Trazado 62" d="M539.878,409.57l-2.993.676s-7.645,11-8.243,11.611,2.851,2.851,4.272,2.851,8.39.814,10.414,2.7,1.181-7.587,1.181-7.8S542,413.411,542,413.411Z" transform="translate(-149.972 -97.481)" opacity="0.1"/>
    <path id="Trazado_63" data-name="Trazado 63" d="M539.878,408.47l-2.993.672s-7.645,11.017-8.243,11.615,2.851,2.851,4.272,2.851,8.39.814,10.414,2.7,1.181-7.587,1.181-7.8-2.529-6.211-2.529-6.211Z" transform="translate(-149.972 -96.829)" fill="#6c63ff"/>
    <g id="Grupo_2" data-name="Grupo 2" transform="translate(397.729 268.739)" opacity="0.1">
      <path id="Trazado_64" data-name="Trazado 64" d="M452.277,304.067a6,6,0,0,0-.02-.937,8.34,8.34,0,0,1,1.254,3.075v1.136c0,.66,0,1.324.02,1.983h.057v.305a1.622,1.622,0,0,1,.02-.314,4.334,4.334,0,0,0,2-1.36c.607-.546,1.556-1.067,2.3-.647a2.334,2.334,0,0,1,.814.965l1.21,2.134a1.577,1.577,0,0,1,.566-1.173,6.073,6.073,0,0,1,3.637,5.7A8.275,8.275,0,0,0,468,308.449a8.234,8.234,0,0,1-3.865,7.384,6.08,6.08,0,0,0-3.637-5.7,1.592,1.592,0,0,0-.566,1.177l-1.2-2.134a2.333,2.333,0,0,0-.815-.965,2.126,2.126,0,0,0-2.3.648,4.126,4.126,0,0,1-2.093,1.381q0-1.564-.033-3.12A8.292,8.292,0,0,0,452.277,304.067Z" transform="translate(-439.948 -303.13)"/>
      <path id="Trazado_65" data-name="Trazado 65" d="M487.626,312.679c-.02-.277-.053-.554-.094-.815l-.045-1.124A8.239,8.239,0,0,1,487.626,312.679Z" transform="translate(-473.921 -307.641)"/>
      <path id="Trazado_66" data-name="Trazado 66" d="M504.6,322.149a3.206,3.206,0,0,0,3.474-.733,30.161,30.161,0,0,0,2.419-2.9.9.9,0,0,1-.256.986.958.958,0,0,0,.236-.061,26.953,26.953,0,0,1-2.4,2.851,3.234,3.234,0,0,1-3.474.733c-1.112-.595-1.43-1.987-1.332-3.344A2.827,2.827,0,0,0,504.6,322.149Z" transform="translate(-503.248 -312.252)"/>
      <path id="Trazado_67" data-name="Trazado 67" d="M491.133,311.962a6.923,6.923,0,0,0,5.075-6.052,6.879,6.879,0,0,1-5.335,7.017A.9.9,0,0,0,491.133,311.962Z" transform="translate(-483.887 -304.778)"/>
    </g>
  </g>
</svg>
