<svg xmlns="http://www.w3.org/2000/svg" xmlns:xlink="http://www.w3.org/1999/xlink" width="570" height="524" viewBox="0 0 570 524">
  <defs>
    <clipPath id="clip-path">
      <rect id="Mask" width="570" height="524" rx="16" fill="none"/>
    </clipPath>
    <clipPath id="clip-path-2">
      <path id="Clip_336" data-name="Clip 336" d="M.237,9.272A18.211,18.211,0,0,1,2.157,0,46.206,46.206,0,0,0,7.781,3.192" transform="translate(1.811 0.76)" fill="none"/>
    </clipPath>
    <clipPath id="clip-path-3">
      <path id="Clip_339" data-name="Clip 339" d="M23.136,64.08C15.472,55.744,8.408,47.144,5.024,41.04L0,43.216a38.159,38.159,0,0,1,5.024-8.064c.776-.92,1.544-1.912,2.288-2.96a71.316,71.316,0,0,0,9.776-18.224C20.368,6.272,22.312,0,22.312,0s14.176,21.512,30.64,32.328a18.211,18.211,0,0,0-1.92,9.272l-27.9,22.48" transform="translate(0.016 0.432)" fill="none"/>
    </clipPath>
    <clipPath id="clip-path-4">
      <path id="Clip_357" data-name="Clip 357" d="M8.5,9.168S-2.543,3.984.545.784C.809.52,1.057.256,1.3,0A11.1,11.1,0,0,0,8.881,8.76L8.5,9.168" transform="translate(2.271 7.392)" fill="none"/>
    </clipPath>
    <clipPath id="clip-path-5">
      <path id="Clip_360" data-name="Clip 360" d="M7.584,15.056A11.1,11.1,0,0,1,0,6.3,72.655,72.655,0,0,0,5.392,0l8.56,8.256-6.368,6.8" transform="translate(3.568 1.096)" fill="none"/>
    </clipPath>
    <clipPath id="clip-path-6">
      <path id="Clip_374" data-name="Clip 374" d="M0,99.72S4.3,33.224,15.248,0C10.984,20.76,3.744,53.6,2.2,85.376c-.184,3.776-.4,8.048-.632,12.7L0,99.72" transform="translate(4.272 3.472)" fill="none"/>
    </clipPath>
    <clipPath id="clip-path-7">
      <path id="Clip_377" data-name="Clip 377" d="M0,58.112C2.632,40.024,5.776,20.984,9.576.856c.056-.28.1-.568.16-.856A181.111,181.111,0,0,1,34.224,22.04L0,58.112" transform="translate(4.112 2.664)" fill="none"/>
    </clipPath>
    <clipPath id="clip-path-8">
      <path id="Clip_380" data-name="Clip 380" d="M0,117.7c.232-4.648.448-8.92.632-12.7C2.176,73.232,9.416,40.392,13.68,19.632c2.624-7.952,5.624-14,9.04-16.776A13.108,13.108,0,0,1,31.24,0c7.5,0,16.52,4.848,24.768,10.824-.056.288-.1.576-.16.856-3.8,20.128-6.944,39.168-9.576,57.256L0,117.7" transform="translate(5.84 7.84)" fill="none"/>
    </clipPath>
    <clipPath id="clip-path-9">
      <path id="Clip_408" data-name="Clip 408" d="M0,154.64S3.448,72.52,4.416,60.784C5.136,52.136,8.392,17.6,10.056,0l1.888,5.08C10.68,12.624,9.072,19.944,8.7,22.64,4.648,51.984,2.224,116.36,1.1,153.472L0,154.64" transform="translate(0.624 0.288)" fill="none"/>
    </clipPath>
    <clipPath id="clip-path-10">
      <path id="Clip_411" data-name="Clip 411" d="M0,40.624C.856,26.784,1.848,12.992,2.816,0l8.968,24.16L61.232,5.8,41.744,26.456c-1.776.024-3.728.04-5.8.04-11.568,0-26.7-.456-33.536-1.3,0,0-1.128,6.9-2.408,15.424" transform="translate(0.192 0.024)" fill="none"/>
    </clipPath>
    <clipPath id="clip-path-11">
      <path id="Clip_414" data-name="Clip 414" d="M0,148.392C1.12,111.28,3.544,46.9,7.592,17.56,7.968,14.864,9.576,7.544,10.84,0L29.28,49.656c-.968,12.992-1.96,26.784-2.816,40.624-1.688,11.232-3.64,25.28-3.64,30.016a2.8,2.8,0,0,0,1.552,2.264L0,148.392" transform="translate(0.728 0.368)" fill="none"/>
    </clipPath>
    <clipPath id="clip-path-12">
      <path id="Clip_417" data-name="Clip 417" d="M1.552,47.7A2.8,2.8,0,0,1,0,45.44C0,40.7,1.952,26.656,3.64,15.424,4.92,6.9,6.048,0,6.048,0c6.84.84,21.968,1.3,33.536,1.3,2.072,0,4.024-.016,5.8-.04L44.336,2.368c-2.144.056-4.7.088-7.48.088-10.568,0-24.36-.424-30.6-1.192,0,0-5.52,33.9-5.52,41.512,0,1.128,1.04,2.048,2.84,2.784L1.552,47.7" transform="translate(0.552 0.224)" fill="none"/>
    </clipPath>
    <clipPath id="clip-path-13">
      <path id="Clip_420" data-name="Clip 420" d="M2.84,44.3C1.04,43.56,0,42.64,0,41.512,0,33.9,5.52,0,5.52,0c6.24.768,20.032,1.192,30.6,1.192,2.784,0,5.336-.032,7.48-.088L2.84,44.3" transform="translate(0.288 0.488)" fill="none"/>
    </clipPath>
    <clipPath id="clip-path-14">
      <path id="Clip_423" data-name="Clip 423" d="M5.829,59.76l-3.456-9.3A481.807,481.807,0,0,1,.045,0L11.453,53.8,5.829,59.76" transform="translate(3.147 3.52)" fill="none"/>
    </clipPath>
    <linearGradient id="linear-gradient" x1="-9.021" y1="0.858" x2="0.983" y2="0.798" gradientUnits="objectBoundingBox">
      <stop offset="0" stop-color="#8fc5ea"/>
      <stop offset="1" stop-color="#3b5160"/>
    </linearGradient>
    <clipPath id="clip-path-15">
      <path id="Clip_426" data-name="Clip 426" d="M60.56,122.208,28.288,35.3,0,45.808,43.008,0,58.232,71.752a481.806,481.806,0,0,0,2.328,50.456" transform="translate(0.96 0.768)" fill="none"/>
    </clipPath>
    <linearGradient id="linear-gradient-2" x1="-0.745" y1="1.007" x2="1.147" y2="0.977" gradientUnits="objectBoundingBox">
      <stop offset="0" stop-color="#fff"/>
      <stop offset="1" stop-color="#696969"/>
    </linearGradient>
    <clipPath id="clip-path-16">
      <path id="Clip_429" data-name="Clip 429" d="M29.3,132.112,0,53.216c.592-6.3.984-10.44.984-10.44L31.28,10.5,59.568,0,95.3,96.208,78.744,113.752,29.3,132.112" transform="translate(0.68 0.072)" fill="none"/>
    </clipPath>
    <linearGradient id="linear-gradient-3" x1="-0.145" y1="0.664" x2="1.057" y2="0.637" gradientUnits="objectBoundingBox">
      <stop offset="0" stop-color="#5f46ee"/>
      <stop offset="1" stop-color="#0b0141"/>
    </linearGradient>
    <clipPath id="clip-path-17">
      <path id="Clip_434" data-name="Clip 434" d="M0,63.1v0C2.911,56.8,6.047,50.112,9.32,43.232A45.515,45.515,0,0,0,12.7,32.808,47.408,47.408,0,0,1,8.752,46.544c-2.571,5.413-4.926,10.34-7,14.687l-.612,1.281c-.412.21-.793.409-1.133.591ZM8.711,5.321A36.223,36.223,0,0,0,5.28.048L5.712,0a37.33,37.33,0,0,1,3,5.32Z" transform="translate(1.104 4.616)" fill="none"/>
    </clipPath>
    <clipPath id="clip-path-18">
      <path id="Clip_437" data-name="Clip 437" d="M0,66.216Q3.372,59.16,7.616,50.248a47.44,47.44,0,0,0,3.952-13.736A41.735,41.735,0,0,0,7.592,9.056,37.231,37.231,0,0,0,4.576,3.7L40.744,0,10.32,60.856c-3.848,2-7.448,3.872-10.32,5.36" transform="translate(2.24 0.912)" fill="none"/>
    </clipPath>
    <clipPath id="clip-path-19">
      <path id="Clip_440" data-name="Clip 440" d="M0,7.012A.284.284,0,0,1,.032,6.94c.36-.192.744-.392,1.136-.592C4.04,4.86,7.64,2.988,11.488.988l-.088.16C7.088,3.388,3.032,5.46,0,7.012" transform="translate(1.072 4.78)" fill="none"/>
    </clipPath>
    <clipPath id="clip-path-20">
      <path id="Clip_446" data-name="Clip 446" d="M4.524,5.9,1.492,4.736C2.708,4.1,4.428,3.192,6.508,2.1L4.628,5.848c-.032.016-.064.032-.1.056" transform="translate(2.508 2.76)" fill="none"/>
    </clipPath>
    <clipPath id="clip-path-21">
      <path id="Clip_281" data-name="Clip 281" d="M2.812,44.936l0,0c-.127-.226-.223-.408-.3-.573A118.121,118.121,0,0,0,3.689,23.172C3.487,17.3,2.716,8.968.2,2.608A1.737,1.737,0,0,1,.22.948C.649.319,1.715,0,3.389,0,7.277,0,14.324,1.7,23.23,4.791a174.1,174.1,0,0,1,22.542,9.537l-7.9,1.624c.031-2.364.048-3.746.048-3.759L5.308,11.24l-2.5,33.693ZM49.028,21.408v0c-.364-2.31-.612-4.172-.759-5.693.987.567,1.9,1.143,2.728,1.712L49.03,21.405Z" transform="translate(1.332 1.072)" fill="none"/>
    </clipPath>
    <clipPath id="clip-path-22">
      <path id="Clip_284" data-name="Clip 284" d="M22.992,57.16l-.12-3.744C15.44,52.64,3.28,39.688,0,33.7L2.5,0,35.112.952s-.016,1.368-.048,3.76L28.392,6.088,24.976,53.144,22.992,57.16" transform="translate(0.144 0.312)" fill="none"/>
    </clipPath>
    <clipPath id="clip-path-23">
      <path id="Clip_287" data-name="Clip 287" d="M0,50.056,3.416,3l6.672-1.376L17.984,0c.9.472,1.728.936,2.5,1.384q.228,2.352.76,5.7L0,50.056" transform="translate(5.12 7.4)" fill="none"/>
    </clipPath>
    <clipPath id="clip-path-24">
      <path id="Clip_310" data-name="Clip 310" d="M8.144,9.424H0V0H1.263A11.172,11.172,0,0,0,3.536,5.7L1.264,0h6.88V9.423Z" transform="translate(5.984 4.176)" fill="none"/>
    </clipPath>
    <clipPath id="clip-path-25">
      <path id="Clip_313" data-name="Clip 313" d="M6.88,15.3a11.444,11.444,0,0,1-1.7-.88,34.46,34.46,0,0,1-2.9-2.632A11.159,11.159,0,0,1,0,6.1a1.743,1.743,0,0,1,.36-.312A74.557,74.557,0,0,0,7.712,0l6.864,9.72L6.88,15.3" transform="translate(7.248 6.08)" fill="none"/>
    </clipPath>
  </defs>
  <g id="Grupo_1" data-name="Grupo 1" transform="translate(-841 9607)">
    <rect id="Rectangle" width="570" height="368" rx="16" transform="translate(841 -9505)" fill="#f8e71c"/>
    <g id="Group_Group_3_Group_2_Mask" data-name="Group + Group 3 + Group 2 Mask" transform="translate(841 -9607)">
      <rect id="Mask-2" data-name="Mask" width="570" height="524" rx="16" fill="none"/>
      <g id="Group_Group_3_Group_2_Mask-2" data-name="Group + Group 3 + Group 2 Mask" clip-path="url(#clip-path)">
        <g id="Group" transform="translate(320 119)">
          <path id="Fill_328" data-name="Fill 328" d="M56.237,0c3.272,18.832,4.6,75.2-.568,83.488S39.261,235.632,39.5,243.792c.408,14.416,15.416,34.2,36.992,43.616-11.84,7.9-30.464,16.224-48.032-12.16-6.408-10.328-18.96-3.216-21.544-10.3-5.864-16.12,3.216-14.928,4.336-32.544C12.757,208.08-10.355,111.592,5.7,73.16c9.832-23.448,3.784-56.072,6.256-64.272C14.445.7,56.237,0,56.237,0" transform="translate(77.499 434.12)" fill="#eab6ac"/>
          <path id="Fill_329" data-name="Fill 329" d="M8.538,0C3.426,4.048-2.2,12.568.874,22.744,3.922,33,10.586,48.672,8.57,56.824c5.448,1.288,7.32-.872,7.32-.872s.376-20.624,1.848-19.512c4.408,3.3,12.512,9.944,23.024,19.416,10.208,9.208,40.464,5.552,42.5,2.48,2.048-3.064,4.624-10.632-3.552-13.7a74.552,74.552,0,0,1-15.312-8.176S52.506,49.2,40.762,38.112C27.306,25.392,8.538,0,8.538,0" transform="translate(76.99 676.624)" fill="#212121"/>
          <path id="Fill_330" data-name="Fill 330" d="M116.9,1.282c-4.28,17.168-85.944,153.1-84.44,192.784.32,8.4,6.928,23.4,17.568,41.008,12.416,20.552-4.1,23.208-21.272,12.472-9.528-5.96-26.9-33.488-28.616-50.624-1.368-13.808,7.824-15.656,10.272-23.464C33.786,98.69,9.442,40.97,62.026,9.106,84.762-4.678,116.9,1.282,116.9,1.282" transform="translate(5.286 500.75)" fill="#ffddd2"/>
          <path id="Fill_331" data-name="Fill 331" d="M10.265,0c-4,10.368-.088,19.784,3.808,30.912,3.312,9.408,6.464,21.04,17.384,26.288C49.8,66,52.721,49.864,52.721,49.864s22.016,22.376,6.608,31.92c-7.9,4.872-20.92,1.832-33.024-4.408-10.176-5.24-12.216-25.92-17.112-39.624-4.9-13.68-10.76-17.6-8.808-24.44C2.353,6.448,10.265,0,10.265,0" transform="translate(0.391 680.464)"/>
          <path id="Fill_332" data-name="Fill 332" d="M0,0C.976,6.36,6.856,38.64,4.408,40.6l4.408.488s2.44-9.792,4.88-11.736C16.152,27.384,0,0,0,0" transform="translate(4.688 701.104)"/>
          <path id="Fill_333" data-name="Fill 333" d="M93.864,18.784c11.04,43.064-2.208,151.28-2.208,151.28L0,173.392,20.976,0,93.864,18.784" transform="translate(61.232 343.848)" fill="#5f46ee"/>
          <path id="Fill_334" data-name="Fill 334" d="M76.1,94.472c-3.144-.2-6.992-5.624-14.424-14.84C57.254,62,69.246,56.184,81.55,49.256c0,0-47.9-66.992-48.032-44.72C33.19,65.056,1.038,78.488.158,77.992c-3.888,3.24,65.456,64.264,60.416,69.384-8.3,15.312,15.264-50.864,15.528-52.9" transform="translate(60.29 44.472)" fill="#e28b7c"/>
          <g id="Group_337" data-name="Group 337" transform="translate(119 108)">
            <path id="Clip_336-2" data-name="Clip 336" d="M.237,9.272A18.211,18.211,0,0,1,2.157,0,46.206,46.206,0,0,0,7.781,3.192" transform="translate(1.811 0.76)" fill="none"/>
            <g id="Group_337-2" data-name="Group 337" clip-path="url(#clip-path-2)">
              <path id="Fill_335" data-name="Fill 335" d="M43.72,27.632v0a18.15,18.15,0,0,1,1.92-9.27,46.378,46.378,0,0,0,5.624,3.192l-7.542,6.078ZM.045,18.164h0A98.046,98.046,0,0,0,9.776,0,71.65,71.65,0,0,1,.045,18.164Z" transform="translate(-41.672 -17.6)" fill="none"/>
            </g>
          </g>
          <g id="Group_340" data-name="Group 340" transform="translate(70 76)">
            <path id="Clip_339-2" data-name="Clip 339" d="M23.136,64.08C15.472,55.744,8.408,47.144,5.024,41.04L0,43.216a38.159,38.159,0,0,1,5.024-8.064c.776-.92,1.544-1.912,2.288-2.96a71.316,71.316,0,0,0,9.776-18.224C20.368,6.272,22.312,0,22.312,0s14.176,21.512,30.64,32.328a18.211,18.211,0,0,0-1.92,9.272l-27.9,22.48" transform="translate(0.016 0.432)" fill="none"/>
            <g id="Group_340-2" data-name="Group 340" clip-path="url(#clip-path-3)">
              <path id="Fill_338" data-name="Fill 338" d="M23.136,64.08C15.472,55.744,8.408,47.144,5.024,41.04L0,43.216a38.159,38.159,0,0,1,5.024-8.064c.776-.92,1.544-1.912,2.288-2.96a71.316,71.316,0,0,0,9.776-18.224C20.368,6.272,22.312,0,22.312,0s14.176,21.512,30.64,32.328a18.211,18.211,0,0,0-1.92,9.272l-27.9,22.48" transform="translate(0.016 0.432)" fill="none"/>
            </g>
          </g>
          <path id="Fill_341" data-name="Fill 341" d="M30.24,0C38.52,14.9,68.7,44.728,76.064,49.152c0,0,10.36-22.824,8.288-33.136C84,14.336,95.544,25.4,98.152,25.4s13.944,217.408,11.04,231.9c-.928,4.592-84.48,9.936-87.24,7.184C14.12,256.656,0,13.08,0,13.08L30.24,0" transform="translate(44.8 117.472)" fill="#73ade9"/>
          <path id="Fill_342" data-name="Fill 342" d="M74.1,87.19c.912-2.056-1.072-4.136.744-14.824,1.336-2.7,2.24-4.72,2.584-5.536C89.909,38.358,85.293,14.99,62.637,5.1c-22.64-9.944-44.488-6.7-57,21.8C-6.827,55.35,3.821,77.966,14.037,90.67c3.408,4.232,23.12,18.856,29.088,18.04,7.976-1.088,15.744-9.824,21.912-19.088,2.568.368,7.368,1.368,9.064-2.432" transform="translate(84.171 9.818)" fill="#e79a8d"/>
          <path id="Fill_343" data-name="Fill 343" d="M97.789,45.477c-.824-.016-1.9,1.472-5.264.552l-.016-1.384c-3.984-.64-7.56-.176-14.936,2.28-1.192.392-2.9-1.648-4.152-1.1-3.848,1.68-9.9,7.368-14.368,9.28-1.232.792-1.384,2.264-2.688,3.192s-4.24.048-5.6,1.12c-2.264,1.784-4.9,2.392-7.376,4.64-1.936,1.88-5.032.272-5.184-3.656,0,0-3.064-6.176-7.552-1.416-6.808,7.232-1.776,18.056-1.776,18.056l-13.688,10.7s-30.92-37.024-4.528-70.184c24.9-31.288,58.56-14.768,81.92,3.28,10.5,8.112,5.208,24.632,5.208,24.632" transform="translate(70.843 0.987)" fill="#5e1c17"/>
          <path id="Fill_344" data-name="Fill 344" d="M55.864,43.784c-13.032-5.7-13.656-19.936-22.928-31.048S4.936-1.952,0,.976c7.5.088,23.736-1.384,30.056,18S38.528,44.344,45.68,46.128c7.16,1.76,10.184-2.344,10.184-2.344" transform="translate(101.64 1.92)" fill="#873f26"/>
          <path id="Fill_345" data-name="Fill 345" d="M42.5,42.944c-6.968-10.008-2.512-15.752-13.9-28.088S0,0,0,0,21.2,1.824,33.008,15.072C44.816,28.3,51.664,44.76,47.864,44.9s-5.368-1.96-5.368-1.96" transform="translate(113.072 3.184)" fill="#873f26"/>
          <path id="Fill_346" data-name="Fill 346" d="M.092,0C2.06-.048,30.884,4.136,45.66,25.24,55.66,39.52,48.8,43.512,50,45.1s3.032-.272,3.224-1.376,5.456-10.9-10.864-26.28C23.524-.3-1.716.08.092,0" transform="translate(111.772 1.728)" fill="#873f26"/>
          <path id="Fill_347" data-name="Fill 347" d="M27.176,38.955C19.008,37.083,18.592,28.1,12.112,12.8S0,.179,0,.179s8.5.936,7.992,9.584c-.5,8.672,11.88,30.76,15.264,31.432,3.392.7,3.92-2.24,3.92-2.24" transform="translate(106.64 14.901)" fill="#873f26"/>
          <path id="Fill_348" data-name="Fill 348" d="M20.687,32.26c-2.664,1.648-4.632,7.168-9.664-3.456S2.6,2.94.8.748c-1.84-2.216-.168.464,1.664,8.384,1.848,7.928,5.136,27.8,9.456,28.824,4.3,1.024,8.768-5.7,8.768-5.7" transform="translate(109.209 23.836)" fill="#873f26"/>
          <path id="Fill_349" data-name="Fill 349" d="M30.366,4.564C19.654-4.708,4-.172.286,21.1-2.786,38.884,19.694,58.412,29.462,46.308c9.776-12.08.9-41.744.9-41.744" transform="translate(52.706 15.268)" fill="#5e1c17"/>
          <path id="Fill_350" data-name="Fill 350" d="M53,0s6.784,12.384,20.616,33.512c12.52,19.128,24.848,56.3,28.544,63.672,3.672,7.36,3.856,75.832,3.856,92.76s1.472,229.32,1.472,229.32L0,410.432S6.624,294.12,8.84,248.48c2.2-45.648,16.192-93.5,16.192-104.552,0-11.032-3.688-42.7-5.16-69.2s-9.2-58.344-9.2-58.344S49.4.872,53,0" transform="translate(14.848 116.368)" fill="#fff"/>
          <path id="Fill_351" data-name="Fill 351" d="M0,0C11.616,5.464,11.04,7.72,21.36,14.344c6.992,4.512,22,61.088,30.368,82.824C59.1,116.312,41.04,106.92,39.576,114.28a199.106,199.106,0,0,0-1.656,72.344c5.9,36.808,7.736,213.12,7.736,213.12l-26.136,5.52s-1.112-141.728-2.584-162.328c-1.48-20.616-.728-139.5-2.2-149.816S14.16,36.368,10.864,26.5C7.544,16.552,0,0,0,0" transform="translate(123.8 126.32)" fill="#fff"/>
          <path id="Fill_352" data-name="Fill 352" d="M19.872,58.344c1.472,26.5,5.16,58.168,5.16,69.2,0,11.048-13.984,58.9-16.2,104.552C6.632,277.736,0,394.048,0,394.048l38.864,3.2c3.1-69.456,4.184-147.256,25.184-258.48C71.416,99.752,42.088,21.76,25.032,6.072,22.288,7.176,10.672,0,10.672,0s7.744,31.84,9.2,58.344" transform="translate(12.64 132.752)" fill="#e4e8ef"/>
          <path id="Fill_353" data-name="Fill 353" d="M8.721.4c0,2.016-6.072,5.648-1.384,23.04,3.92,14.5,16.752,65.064,18.224,68.744s-4.552,2.08-4.552,2.08S3.2,31.682,1.825,25.378c-4.416-20.152.432-22.1,1.52-23.464A4.278,4.278,0,0,1,8.721.4" transform="translate(57.199 115.286)"/>
          <path id="Fill_354" data-name="Fill 354" d="M24.045,11.23c.848,6.96-3.832,13.264-10.424,14.072S.957,21.11.1,14.15,3.925.894,10.533.086,23.181,4.27,24.045,11.23" transform="translate(70.883 204.538)" fill="#232121"/>
          <path id="Fill_355" data-name="Fill 355" d="M19.938,9.979c.744,6.152-3.088,11.664-8.568,12.336S.834,18.547.1,12.411C-.67,6.267,3.178.731,8.65.067c5.5-.672,10.544,3.768,11.288,9.912" transform="translate(74.334 206.109)" fill="#b4b9c1"/>
          <g id="Group_358" data-name="Group 358" transform="translate(71 212)">
            <path id="Clip_357-2" data-name="Clip 357" d="M8.5,9.168S-2.543,3.984.545.784C.809.52,1.057.256,1.3,0A11.1,11.1,0,0,0,8.881,8.76L8.5,9.168" transform="translate(2.271 7.392)" fill="none"/>
            <g id="Group_358-2" data-name="Group 358" clip-path="url(#clip-path-4)">
              <path id="Fill_356" data-name="Fill 356" d="M8.5,9.168S-2.543,3.984.545.784C.809.52,1.057.256,1.3,0A11.1,11.1,0,0,0,8.881,8.76L8.5,9.168" transform="translate(2.271 7.392)" fill="none"/>
            </g>
          </g>
          <g id="Group_361" data-name="Group 361" transform="translate(71 212)">
            <path id="Clip_360-2" data-name="Clip 360" d="M7.584,15.056A11.1,11.1,0,0,1,0,6.3,72.655,72.655,0,0,0,5.392,0l8.56,8.256-6.368,6.8" transform="translate(3.568 1.096)" fill="none"/>
            <g id="Group_361-2" data-name="Group 361" clip-path="url(#clip-path-5)">
              <path id="Fill_359" data-name="Fill 359" d="M7.584,15.056A11.1,11.1,0,0,1,0,6.3,72.655,72.655,0,0,0,5.392,0l8.56,8.256-6.368,6.8" transform="translate(3.568 1.096)" fill="none"/>
            </g>
          </g>
          <path id="Fill_362" data-name="Fill 362" d="M11.52,5.352A5.927,5.927,0,0,1,6.536,12.1,5.953,5.953,0,0,1,.048,6.76,5.935,5.935,0,0,1,5.056.04,5.932,5.932,0,0,1,11.52,5.352" transform="translate(78.408 211.016)"/>
          <path id="Fill_363" data-name="Fill 363" d="M7.261,3.66C7.525,5.892,6.3,7.892,4.5,8.1,2.709,8.332,1.013,6.708.741,4.46.469,2.236,1.709.26,3.509.02,5.3-.2,6.981,1.436,7.261,3.66" transform="translate(81.939 212.38)" fill="#b4b9c1"/>
          <path id="Fill_364" data-name="Fill 364" d="M14.088,35.36C7.824,26.384.856,3.7,0,1.256L.616,0,1.864.608c.824,2.464,7.912,25.184,13.848,33.64a9.87,9.87,0,0,0,8.216,4.616c3.9.016,7.264-2.544,7.5-4.912v.016l1.088-.856.84,1.1c-.568,3.808-4.784,6.576-9.432,6.616a11.948,11.948,0,0,1-9.84-5.472" transform="translate(138.392 186.944)" fill="#959ba5"/>
          <path id="Fill_365" data-name="Fill 365" d="M5.814,5.236c-1.944,3.088-2.672,3.1-3.592,2.7-.9-.392-1.3-1.688-.92-4.72C1.71.028,3.47-.4,5.07.276c.912.376,3.04,1.344.744,4.96" transform="translate(167.546 215.98)" fill="#232121"/>
          <path id="Fill_366" data-name="Fill 366" d="M7.9,47.9C4.48,47.888,1.28,46.536,0,43.952l.472-1.3,1.3.448c.7,1.56,3.208,2.864,6.128,2.848a9.963,9.963,0,0,0,9.728-7.464c1.864-6.208,2.24-18.168,2.224-26.936,0-4.8-.1-8.64-.1-10.168L19.784.8,20.912,0l.8,1.136v.248c0,1.456.1,5.352.1,10.168,0,8.848-.312,20.792-2.3,27.5A11.931,11.931,0,0,1,7.936,47.9H7.9" transform="translate(141.696 182.344)" fill="#959ba5"/>
          <path id="Fill_367" data-name="Fill 367" d="M2.6,6.024c2.776,2.2,3.424,1.96,4.2,1.272.744-.72.744-2.064-.536-4.784C4.907-.352,3.163-.144,1.835,1.048c-.768.72-2.48,2.384.768,4.976" transform="translate(137.629 220.936)" fill="#232121"/>
          <path id="Fill_368" data-name="Fill 368" d="M0,13.216l.744-.824c1.3-.224,2.056.184,2.216-2.624l-.1-1.576-.072-.984C2.8,2.8,6.688.016,10.368,0l1.184.128c4.024.632,6.072,2.712,6.784,6.528.472,2.072,1.608,2.152,2.488,2.224l.648-.056.92.624-.616.92-.952.08A3.946,3.946,0,0,1,16.8,6.984c-.808-3.472-1.864-4.568-5.552-5.32l-.88-.1a5.938,5.938,0,0,0-6.032,5.64l.072.784.128,1.776c.144,3.52-2.4,4.192-3.728,4.192l.016.024L0,13.216" transform="translate(141.032 181.32)" fill="#959ba5"/>
          <path id="Fill_369" data-name="Fill 369" d="M.688,19.032A12.622,12.622,0,0,1,0,14.84C.056,7.824,4.952.184,12.544,0l.312.016C19.288,0,26.768,4.624,27.032,16.624a1.961,1.961,0,0,1-3.92.136C22.512,6.328,17.688,4.3,12.5,3.92c-4.4.064-8.552,5.616-8.568,10.92A9.044,9.044,0,0,0,4.4,17.76v.016a1.975,1.975,0,0,1-1.216,2.5l-.624.1A1.964,1.964,0,0,1,.688,19.032" transform="translate(137 169.592)"/>
          <path id="Fill_370" data-name="Fill 370" d="M5.293.827c2.136,3.36,12.1,24.608,12.1,33.784-1.232,1.832-4.184,1.552-4.184,1.552S9.933,12.515,1.981,3.955C-3.939-2.421,5.293.827,5.293.827" transform="translate(134.715 136.157)"/>
          <path id="Fill_371" data-name="Fill 371" d="M20.984,0,7.184,11.6,0,34.24,27.24,46.768,20.984,58.536s38.1,52.448,41.408,60.176-7.168-37.536-17.12-54.1C35.344,48.048,26.048,23.368,22.464,13.992S20.984,0,20.984,0" transform="translate(56.808 106.424)" fill="#e4e8ef"/>
          <path id="Fill_372" data-name="Fill 372" d="M18.408,103.976l9.568-68.64L18.768,26.5l6.264-7L8.84,7.36,0,0A191.163,191.163,0,0,1,10.68,21.712c3.856,9.944,7.728,82.264,7.728,82.264" transform="translate(120.128 121.16)" fill="#e4e8ef"/>
          <g id="Group_375" data-name="Group 375" transform="translate(15 276)">
            <path id="Clip_374-2" data-name="Clip 374" d="M0,99.72S4.3,33.224,15.248,0C10.984,20.76,3.744,53.6,2.2,85.376c-.184,3.776-.4,8.048-.632,12.7L0,99.72" transform="translate(4.272 3.472)" fill="none"/>
            <g id="Group_375-2" data-name="Group 375" clip-path="url(#clip-path-6)">
              <path id="Fill_373" data-name="Fill 373" d="M0,99.72S4.3,33.224,15.248,0C10.984,20.76,3.744,53.6,2.2,85.376c-.184,3.776-.4,8.048-.632,12.7L0,99.72" transform="translate(4.272 3.472)" fill="none"/>
            </g>
          </g>
          <g id="Group_378" data-name="Group 378" transform="translate(63 268)">
            <path id="Clip_377-2" data-name="Clip 377" d="M0,58.112C2.632,40.024,5.776,20.984,9.576.856c.056-.28.1-.568.16-.856A181.111,181.111,0,0,1,34.224,22.04L0,58.112" transform="translate(4.112 2.664)" fill="none"/>
            <g id="Group_378-2" data-name="Group 378" clip-path="url(#clip-path-7)">
              <path id="Fill_376" data-name="Fill 376" d="M0,58.112C2.632,40.024,5.776,20.984,9.576.856c.056-.28.1-.568.16-.856A181.111,181.111,0,0,1,34.224,22.04L0,58.112" transform="translate(4.112 2.664)" fill="none"/>
            </g>
          </g>
          <g id="Group_381" data-name="Group 381" transform="translate(15 252)">
            <path id="Clip_380-2" data-name="Clip 380" d="M0,117.7c.232-4.648.448-8.92.632-12.7C2.176,73.232,9.416,40.392,13.68,19.632c2.624-7.952,5.624-14,9.04-16.776A13.108,13.108,0,0,1,31.24,0c7.5,0,16.52,4.848,24.768,10.824-.056.288-.1.576-.16.856-3.8,20.128-6.944,39.168-9.576,57.256L0,117.7" transform="translate(5.84 7.84)" fill="none"/>
            <g id="Group_381-2" data-name="Group 381" clip-path="url(#clip-path-8)">
              <path id="Fill_379" data-name="Fill 379" d="M0,117.7c.232-4.648.448-8.92.632-12.7C2.176,73.232,9.416,40.392,13.68,19.632c2.624-7.952,5.624-14,9.04-16.776A13.108,13.108,0,0,1,31.24,0c7.5,0,16.52,4.848,24.768,10.824-.056.288-.1.576-.16.856-3.8,20.128-6.944,39.168-9.576,57.256L0,117.7" transform="translate(5.84 7.84)" fill="none"/>
            </g>
          </g>
          <path id="Fill_382" data-name="Fill 382" d="M.52.681c3.728.5,13.84-1.224,14.784.48S9.928,7.953,6.592,7.593C3.248,7.209,0,4.545,0,4.545L.52.681" transform="translate(123.44 255.207)" fill="#ffddd2"/>
          <path id="Fill_383" data-name="Fill 383" d="M0,88.728,59.624,0l57.048,5.16L61.64,90.568,0,88.728" transform="translate(107.256 212.44)" fill="#5f46ee"/>
          <path id="Fill_384" data-name="Fill 384" d="M21.144,2.689C28.5.457,32.8-.247,35.592.073s7.64,5.3,3.624,4.152c0,0-2.36-.184.208,1.008,2.536,1.216,10.1,0,12.7-.7,2.616-.712,10.208-2.576,11.824-2.376,2.464.336-.728,1.44-3.264,3.6s-6.608,2.936-8.768,3.76c-2.152.84,12.3-5.792,15.008-5.216,2.032.432.352,2.712-2.512,4.312s-14.648,5.1-14.648,5.1,17.4-5.392,17.344-3.48-5.144,4.544-9.464,6.208c-4.328,1.648-10.488,1.344-10.488,1.344s16.648-4.416,16.472-2.04c-.2,2.336-9.888,6.8-15.568,9.024-3.368,1.328-25.064-.632-28.648-1.64C15.856,22.113,0,17.841,0,17.841L1.5,2.4l19.648.288" transform="translate(89.952 255.935)" fill="#e6998c"/>
          <path id="Fill_385" data-name="Fill 385" d="M11.528,0l10.68,2.416L16.744,38.68,0,32.864,11.528,0" transform="translate(84.592 254.024)" fill="#b6eeff"/>
          <path id="Fill_386" data-name="Fill 386" d="M14.178.148C1.594-2.044-1.478,20.628.594,36.292c2.088,15.664-3.512,68.4,8.8,79.24,18.568,16.32,60.16,56,63.48,41.64l12.144-37S36.274,98.4,35.81,94.252C34.826,85.38,32.2,28.82,29.434,17.716,25.714,2.62,14.178.148,14.178.148" transform="translate(16.518 133.132)" fill="#fff"/>
          <path id="Fill_387" data-name="Fill 387" d="M.291,37.676c2.08,15.656-4.9,77.44,7.416,88.264,18.56,16.312,59.4,41.128,70.984,45.544,0,0,9.056-26.688,8.288-26.7-16.5-.36-58.808-21.52-65.712-33.112C14.363,100.092,11.339,24.98,17.587.5,7.643-3.924-1.789,22.012.291,37.676" transform="translate(7.933 132.252)" fill="#e4e8ef"/>
          <path id="Fill_388" data-name="Fill 388" d="M13.257,1.83c2.312,2.456-1.568,4.632-1.568,4.632S1.105,5.054.185,3.414C-.735,1.8,1.937,1.5,4.577,1.542c3.9.056,8.68.288,8.68.288" transform="translate(190.879 255.042)" fill="#eab6ac"/>
          <path id="Fill_389" data-name="Fill 389" d="M10.086,1.922c.4,1.168-.728,4.536-2.68,4.392C5.43,6.154-.53,5.354.038,3.666S.054,1.9,3.71,1.722a40.234,40.234,0,0,1,6.376.2" transform="translate(191.626 258.918)" fill="#eab6ac"/>
          <path id="Fill_390" data-name="Fill 390" d="M12.95.582c1.208.832,1.12,6.336-.752,6.712C10.318,7.686.326,7.078.07,6.462A2.755,2.755,0,0,1,2.238,3.278c2.032-.384,4.184-.92,6.376-1.208A13.918,13.918,0,0,0,12.95.582" transform="translate(193.674 243.842)" fill="#eab6ac"/>
          <path id="Fill_391" data-name="Fill 391" d="M15.015.968c2.256,1.68,2.9,3.536.68,5.456S.575,5.944.055,3.456,2.839,1.064,4.663.92C6.5.816,15.015.968,15.015.968" transform="translate(190.857 250.168)" fill="#eab6ac"/>
        </g>
        <g id="Group_3" data-name="Group 3" transform="translate(67 118)">
          <path id="Fill_392" data-name="Fill 392" d="M77.287,0c-.376,1.84-1.84,11.232-1.84,11.232s-2.216,3.5-18.224,3.12c-9.208-.208-42.152,4.608-50.8,1.288C-1.233,12.7-.393,2.016.711,2.392S77.287,0,77.287,0" transform="translate(16.833 719.256)" fill="#e4e8ef"/>
          <path id="Fill_393" data-name="Fill 393" d="M72.551,0c0,15.464,10.68,31.88-.552,37-10.128,4.6-12.144-3.856-30.92,2.216-10.712,3.464-25.4,3.32-32.76,2.216C2.863,40.6-7.937,31.664,9.607,26.512,28.375,20.992,51.015,1.656,57.639,1.656A91.552,91.552,0,0,0,72.551,0" transform="translate(17.145 689.064)" fill="#e4e8ef"/>
          <path id="Fill_394" data-name="Fill 394" d="M60.565,0C62.781,11.056,71.613,83.928,67.2,103.808s0,68.472,4.416,101.592,13.256,163.448,8.832,185.528c-33.128,0-45.48,2.768-45.48,2.768S28.917,267.616,24.493,247c-7.128-33.288-14.344-70.3-20.976-132.144S1.669,11.424,1.669,11.424L60.565,0" transform="translate(12.563 309.184)" fill="#00404f"/>
          <path id="Fill_395" data-name="Fill 395" d="M77.273,0c-.36,1.832-1.824,11.224-1.824,11.224s-2.208,3.5-18.224,3.128c-9.208-.216-42.152,4.6-50.8,1.288C-1.239,12.7-.391,2.016.713,2.384S77.273,0,77.273,0" transform="translate(40.391 726.992)" fill="#e4e8ef"/>
          <path id="Fill_396" data-name="Fill 396" d="M72.55,0c0,15.472,10.68,31.888-.552,37-10.12,4.608-12.144-3.856-30.92,2.208-10.712,3.472-25.4,3.328-32.76,2.224-5.464-.824-16.248-9.76,1.288-14.92,18.776-5.52,41.408-24.848,48.04-24.848A91.112,91.112,0,0,0,72.55,0" transform="translate(40.706 696.792)" fill="#fff"/>
          <path id="Fill_397" data-name="Fill 397" d="M75.856.736c2.2,11.048,10.3,61.84,5.888,81.72S79.912,187.992,89.1,220.136c7.368,25.752,14.736,133.248,10.312,155.336-33.128,0-55.208,1.472-55.208,1.472S43.656,241.5,29.472,210.552,12.544,151.672,5.92,89.816C-.712,27.984.024,0,.024,0L75.856.736" transform="translate(21.576 336.792)" fill="#298aee"/>
          <path id="Fill_398" data-name="Fill 398" d="M2.344.08C17.528-2.392,46.512,53.1,43.208,90.368c-3.048,34.264-1.376,54.344,4.36,58.192-8.64,1.68-18.232,3.544-23.088-21.432-4.856-24.96-16.288-37.048-15.232-57.2C10.328,49.808,0,7.6,0,7.6L2.344.08" transform="translate(91.864 41.584)" fill="#333"/>
          <path id="Fill_399" data-name="Fill 399" d="M79.512,81.307C76.144,69.947,58.264,60.6,53.56,5.395,51.72-16.341,10.816,34.627,10.816,34.627c11.488,7.728,18.9,32.416,9.336,53.04C5.624,118.259-1.392,132.155.552,131.379c-8.432,18.032,82.5-46.608,78.96-50.072" transform="translate(22.704 46.493)" fill="#dc8b7e"/>
          <path id="Fill_400" data-name="Fill 400" d="M4.012,4H3.988V4L4.012,4" transform="translate(30.724 56.252)"/>
          <path id="Fill_401" data-name="Fill 401" d="M72.328,14.632c-6.016,3.416-45.272,23.736-45.272,23.736-6.608,12.064-9.8,13.312-19.592,31.48C2.936,78.2,5.408,95.04,11.752,99.928c4.336,3.328-2.592,32.176-3.416,38.144C2.472,180.624,0,296.776,0,296.776s114.848,3.3,114.848-4.416c0-57.424-23.84-164.064-14.072-220.3,3.008-17.3,14.264-30.248,8.56-48.408C105.92,17.4,100.472,10.232,93.872,0c-1.384,2.752-5.528,5.52-21.544,14.632" transform="translate(1.72 115.112)" fill="#fff"/>
          <path id="Fill_402" data-name="Fill 402" d="M7.451,46.568c-4.5,8.36-2.048,25.2,4.3,30.088,4.328,3.32-2.584,32.168-3.424,38.152C2.467,157.352,0,273.5,0,273.5s-.872-.184,25.576-.184C21.571,214.168,36.371,92.712,33.867,75.1,31.6,59.12,60,2.584,55.587,0c-12.216,6.488-27.8,14.36-27.8,14.36C21.179,26.424,17.251,28.4,7.451,46.568" transform="translate(0.989 139.12)" fill="none"/>
          <path id="Fill_403" data-name="Fill 403" d="M73.712,0S68.112,7.208,61.1,11.544c-7,4.32-50.12,26.944-50.12,26.944l-8.408.536L0,43.9,11.5,40.9S59,16.68,62.776,13.336,73.712,0,73.712,0" transform="translate(24.08 117.032)" fill="#b6eeff"/>
          <path id="Fill_404" data-name="Fill 404" d="M6.048,0c11.288,1.384,45.12,1.728,48.344.7,3.24-1.04,7.264,46.136,3.632,47.872C51.712,51.584,0,53.768,0,45.44S6.048,0,6.048,0" transform="translate(24.552 311.224)" fill="#e4e8ef"/>
          <path id="Fill_405" data-name="Fill 405" d="M5.52,0C15.824,1.272,46.736,1.584,49.7.632s6.632,42.144,3.312,43.736C47.232,47.12,0,49.112,0,41.512,0,33.9,5.52,0,5.52,0" transform="translate(25.288 312.488)" fill="#fff"/>
          <path id="Fill_406" data-name="Fill 406" d="M39.448,132.112,0,25.888,69.72,0l39.448,106.224-69.72,25.888" transform="translate(0.528 178.072)" fill="#5f46ee"/>
          <g id="Group_409" data-name="Group 409" transform="translate(0 231)">
            <path id="Clip_408-2" data-name="Clip 408" d="M0,154.64S3.448,72.52,4.416,60.784C5.136,52.136,8.392,17.6,10.056,0l1.888,5.08C10.68,12.624,9.072,19.944,8.7,22.64,4.648,51.984,2.224,116.36,1.1,153.472L0,154.64" transform="translate(0.624 0.288)" fill="none"/>
            <g id="Group_409-2" data-name="Group 409" clip-path="url(#clip-path-9)">
              <path id="Fill_407" data-name="Fill 407" d="M0,154.64S3.448,72.52,4.416,60.784C5.136,52.136,8.392,17.6,10.056,0l1.888,5.08C10.68,12.624,9.072,19.944,8.7,22.64,4.648,51.984,2.224,116.36,1.1,153.472L0,154.64" transform="translate(0.624 0.288)" fill="none"/>
            </g>
          </g>
          <g id="Group_412" data-name="Group 412" transform="translate(28 286)">
            <path id="Clip_411-2" data-name="Clip 411" d="M0,40.624C.856,26.784,1.848,12.992,2.816,0l8.968,24.16L61.232,5.8,41.744,26.456c-1.776.024-3.728.04-5.8.04-11.568,0-26.7-.456-33.536-1.3,0,0-1.128,6.9-2.408,15.424" transform="translate(0.192 0.024)" fill="none"/>
            <g id="Group_412-2" data-name="Group 412" clip-path="url(#clip-path-10)">
              <path id="Fill_410" data-name="Fill 410" d="M0,40.624C.856,26.784,1.848,12.992,2.816,0l8.968,24.16L61.232,5.8,41.744,26.456c-1.776.024-3.728.04-5.8.04-11.568,0-26.7-.456-33.536-1.3,0,0-1.128,6.9-2.408,15.424" transform="translate(0.192 0.024)" fill="none"/>
            </g>
          </g>
          <g id="Group_415" data-name="Group 415" transform="translate(1 236)">
            <path id="Clip_414-2" data-name="Clip 414" d="M0,148.392C1.12,111.28,3.544,46.9,7.592,17.56,7.968,14.864,9.576,7.544,10.84,0L29.28,49.656c-.968,12.992-1.96,26.784-2.816,40.624-1.688,11.232-3.64,25.28-3.64,30.016a2.8,2.8,0,0,0,1.552,2.264L0,148.392" transform="translate(0.728 0.368)" fill="none"/>
            <g id="Group_415-2" data-name="Group 415" clip-path="url(#clip-path-11)">
              <path id="Fill_413" data-name="Fill 413" d="M0,148.392C1.12,111.28,3.544,46.9,7.592,17.56,7.968,14.864,9.576,7.544,10.84,0L29.28,49.656c-.968,12.992-1.96,26.784-2.816,40.624-1.688,11.232-3.64,25.28-3.64,30.016a2.8,2.8,0,0,0,1.552,2.264L0,148.392" transform="translate(0.728 0.368)" fill="none"/>
            </g>
          </g>
          <g id="Group_418" data-name="Group 418" transform="translate(24 311)">
            <path id="Clip_417-2" data-name="Clip 417" d="M1.552,47.7A2.8,2.8,0,0,1,0,45.44C0,40.7,1.952,26.656,3.64,15.424,4.92,6.9,6.048,0,6.048,0c6.84.84,21.968,1.3,33.536,1.3,2.072,0,4.024-.016,5.8-.04L44.336,2.368c-2.144.056-4.7.088-7.48.088-10.568,0-24.36-.424-30.6-1.192,0,0-5.52,33.9-5.52,41.512,0,1.128,1.04,2.048,2.84,2.784L1.552,47.7" transform="translate(0.552 0.224)" fill="none"/>
            <g id="Group_418-2" data-name="Group 418" clip-path="url(#clip-path-12)">
              <path id="Fill_416" data-name="Fill 416" d="M1.552,47.7A2.8,2.8,0,0,1,0,45.44C0,40.7,1.952,26.656,3.64,15.424,4.92,6.9,6.048,0,6.048,0c6.84.84,21.968,1.3,33.536,1.3,2.072,0,4.024-.016,5.8-.04L44.336,2.368c-2.144.056-4.7.088-7.48.088-10.568,0-24.36-.424-30.6-1.192,0,0-5.52,33.9-5.52,41.512,0,1.128,1.04,2.048,2.84,2.784L1.552,47.7" transform="translate(0.552 0.224)" fill="none"/>
            </g>
          </g>
          <g id="Group_421" data-name="Group 421" transform="translate(25 312)">
            <path id="Clip_420-2" data-name="Clip 420" d="M2.84,44.3C1.04,43.56,0,42.64,0,41.512,0,33.9,5.52,0,5.52,0c6.24.768,20.032,1.192,30.6,1.192,2.784,0,5.336-.032,7.48-.088L2.84,44.3" transform="translate(0.288 0.488)" fill="none"/>
            <g id="Group_421-2" data-name="Group 421" clip-path="url(#clip-path-13)">
              <path id="Fill_419" data-name="Fill 419" d="M2.84,44.3C1.04,43.56,0,42.64,0,41.512,0,33.9,5.52,0,5.52,0c6.24.768,20.032,1.192,30.6,1.192,2.784,0,5.336-.032,7.48-.088L2.84,44.3" transform="translate(0.288 0.488)" fill="none"/>
            </g>
          </g>
          <g id="Group_424" data-name="Group 424" transform="translate(97 211)">
            <path id="Clip_423-2" data-name="Clip 423" d="M5.829,59.76l-3.456-9.3A481.807,481.807,0,0,1,.045,0L11.453,53.8,5.829,59.76" transform="translate(3.147 3.52)" fill="none"/>
            <g id="Group_424-2" data-name="Group 424" clip-path="url(#clip-path-14)">
              <path id="Fill_422" data-name="Fill 422" d="M5.829,59.76l-3.456-9.3A481.807,481.807,0,0,1,.045,0L11.453,53.8,5.829,59.76" transform="translate(3.147 3.52)" fill="url(#linear-gradient)"/>
            </g>
          </g>
          <g id="Group_427" data-name="Group 427" transform="translate(41 142)">
            <path id="Clip_426-2" data-name="Clip 426" d="M60.56,122.208,28.288,35.3,0,45.808,43.008,0,58.232,71.752a481.806,481.806,0,0,0,2.328,50.456" transform="translate(0.96 0.768)" fill="none"/>
            <g id="Group_427-2" data-name="Group 427" clip-path="url(#clip-path-15)">
              <path id="Fill_425" data-name="Fill 425" d="M60.56,122.208,28.288,35.3,0,45.808,43.008,0,58.232,71.752a481.806,481.806,0,0,0,2.328,50.456" transform="translate(0.96 0.768)" opacity="0.145" fill="url(#linear-gradient-2)"/>
            </g>
          </g>
          <g id="Group_430" data-name="Group 430" transform="translate(10 178)">
            <path id="Clip_429-2" data-name="Clip 429" d="M29.3,132.112,0,53.216c.592-6.3.984-10.44.984-10.44L31.28,10.5,59.568,0,95.3,96.208,78.744,113.752,29.3,132.112" transform="translate(0.68 0.072)" fill="none"/>
            <g id="Group_430-2" data-name="Group 430" clip-path="url(#clip-path-16)">
              <path id="Fill_428" data-name="Fill 428" d="M29.3,132.112,0,53.216c.592-6.3.984-10.44.984-10.44L31.28,10.5,59.568,0,95.3,96.208,78.744,113.752,29.3,132.112" transform="translate(0.68 0.072)" opacity="0.399" fill="url(#linear-gradient-3)"/>
            </g>
          </g>
          <path id="Fill_431" data-name="Fill 431" d="M75.8,20.454c-3.328,2.88,3.28,45.024,3.912,54.28.256,3.44-15.256-.88-34.616,6.9-3.144-.016-5.872-.32-6.616-1.184-3.28-3.784-6.232-5.216-9.624-6.872C21,69.766,18.288,65.862,17.328,66.094c-3.312.776,2.56,8.824,2.56,8.824s-7.224-.744-10.3-.36a16.652,16.652,0,0,0-7.728,2.568c-2.1,1.5-2.92,4.424.248,3.328s5.456-1.3,6.744-.928l5.976.624s-5.776-.424-8.912.664a15.612,15.612,0,0,0-5.52,3.5S-.8,87.67,2.592,86.7c2.584-.736,3.864-1.088,3.864-1.088L14.2,86.886S.968,86.814,1.672,89.838c.32,1.456-.48,2.64,5.712,2.208S16.832,93.4,16.832,93.4,6.3,91.9,3.52,92.782c-2.136.672-1.984,2.8,2.392,3.136,4.384.3,15.128,6.168,23.2,4.1,3.536-.9,7.064-1.6,10.84-2.192l.056.12c30.5,9.528,56.968,9.272,64.736,2.56,7.784-6.72,8.7-79.056-3.68-99.392C97.16-5.258,79.12,17.582,75.8,20.454" transform="translate(12.568 170.026)" fill="#e79a8d"/>
          <path id="Fill_432" data-name="Fill 432" d="M19.659.148C45.059-3.9,51.995,76.516,48.723,98.06a108.732,108.732,0,0,0-43.792-.728S-1,41.444.147,31.076C1.867,15.172,6.6,2.228,19.659.148" transform="translate(78.149 131.244)" fill="#fff"/>
          <g id="Group_435" data-name="Group 435" transform="translate(33 83)">
            <path id="Clip_434-2" data-name="Clip 434" d="M0,63.1v0C2.911,56.8,6.047,50.112,9.32,43.232A45.515,45.515,0,0,0,12.7,32.808,47.408,47.408,0,0,1,8.752,46.544c-2.571,5.413-4.926,10.34-7,14.687l-.612,1.281c-.412.21-.793.409-1.133.591ZM8.711,5.321A36.223,36.223,0,0,0,5.28.048L5.712,0a37.33,37.33,0,0,1,3,5.32Z" transform="translate(1.104 4.616)" fill="none"/>
            <g id="Group_435-2" data-name="Group 435" clip-path="url(#clip-path-17)">
              <path id="Fill_433" data-name="Fill 433" d="M0,63.1v0C2.911,56.8,6.047,50.112,9.32,43.232A45.515,45.515,0,0,0,12.7,32.808,47.408,47.408,0,0,1,8.752,46.544c-2.571,5.413-4.926,10.34-7,14.687l-.612,1.281c-.412.21-.793.409-1.133.591ZM8.711,5.321A36.223,36.223,0,0,0,5.28.048L5.712,0a37.33,37.33,0,0,1,3,5.32Z" transform="translate(1.104 4.616)" fill="none"/>
            </g>
          </g>
          <g id="Group_438" data-name="Group 438" transform="translate(33 83)">
            <path id="Clip_437-2" data-name="Clip 437" d="M0,66.216Q3.372,59.16,7.616,50.248a47.44,47.44,0,0,0,3.952-13.736A41.735,41.735,0,0,0,7.592,9.056,37.231,37.231,0,0,0,4.576,3.7L40.744,0,10.32,60.856c-3.848,2-7.448,3.872-10.32,5.36" transform="translate(2.24 0.912)" fill="none"/>
            <g id="Group_438-2" data-name="Group 438" clip-path="url(#clip-path-18)">
              <path id="Fill_436" data-name="Fill 436" d="M0,66.216Q3.372,59.16,7.616,50.248a47.44,47.44,0,0,0,3.952-13.736A41.735,41.735,0,0,0,7.592,9.056,37.231,37.231,0,0,0,4.576,3.7L40.744,0,10.32,60.856c-3.848,2-7.448,3.872-10.32,5.36" transform="translate(2.24 0.912)" fill="none"/>
            </g>
          </g>
          <g id="Group_441" data-name="Group 441" transform="translate(33 139)">
            <path id="Clip_440-2" data-name="Clip 440" d="M0,7.012A.284.284,0,0,1,.032,6.94c.36-.192.744-.392,1.136-.592C4.04,4.86,7.64,2.988,11.488.988l-.088.16C7.088,3.388,3.032,5.46,0,7.012" transform="translate(1.072 4.78)" fill="none"/>
            <g id="Group_441-2" data-name="Group 441" clip-path="url(#clip-path-19)">
              <path id="Fill_439" data-name="Fill 439" d="M0,7.012A.284.284,0,0,1,.032,6.94c.36-.192.744-.392,1.136-.592C4.04,4.86,7.64,2.988,11.488.988l-.088.16C7.088,3.388,3.032,5.46,0,7.012" transform="translate(1.072 4.78)" fill="none"/>
            </g>
          </g>
          <g id="Group_447" data-name="Group 447" transform="translate(33 147)">
            <path id="Clip_446-2" data-name="Clip 446" d="M4.524,5.9,1.492,4.736C2.708,4.1,4.428,3.192,6.508,2.1L4.628,5.848c-.032.016-.064.032-.1.056" transform="translate(2.508 2.76)" fill="none"/>
            <g id="Group_447-2" data-name="Group 447" clip-path="url(#clip-path-20)">
              <path id="Fill_445" data-name="Fill 445" d="M4.524,5.9,1.492,4.736C2.708,4.1,4.428,3.192,6.508,2.1L4.628,5.848c-.032.016-.064.032-.1.056" transform="translate(2.508 2.76)" fill="none"/>
            </g>
          </g>
          <path id="Fill_448" data-name="Fill 448" d="M2.323,79.175c-.536-2.136,1.736-3.784,1.752-14.424-.808-2.824-1.336-4.936-1.552-5.784C-4.725,29.4,3.683,7.615,27.211,1.879,50.723-3.9,71.275,2.911,78.555,32.527c7.224,29.552-6.864,49.584-18.848,60.128-3.992,3.52-25.5,14.32-31.1,12.52-7.528-2.4-13.56-12.152-17.968-22.112-2.5-.08-7.328.08-8.312-3.888" transform="translate(4.725 5.449)" fill="#e6998c"/>
          <path id="Fill_449" data-name="Fill 449" d="M87.11,17.66C71.774-7.724,35.6-3.012,12.366,14.6A19.742,19.742,0,0,0,4.542,27.14c-10.672,11.936-.12,14.1,6.984,14.88,7.208.76,20.448,2.912,20.888,14.192,2.352-1.024,4.12-5.056,3.544-9.984,4.5,3.528,11.856,8.168,13.488,10.272,1.544,2.152,3.1-8.664,8.192-4.816,6.976,5.232,4.96,17.992,4.96,17.992L77.046,83.044S108.59,53.18,87.11,17.66" transform="translate(1.066 0.556)" fill="#333"/>
        </g>
        <g id="Group_2" data-name="Group 2" transform="translate(132 50)">
          <path id="Fill_268" data-name="Fill 268" d="M4.844,16.352C4.876,23.8.716,41.912.092,47.064c-.64,5.144,2.256,15.08,2.824,17.944,1.456,7.208,7.168,15.576,8.952,14.344C12.852,78.72,9.74,70.72,9.1,67.536,8.428,64.3,7.06,55.608,7.06,55.608s1.512,11.568,4.112,16.44c2.5,4.688,6.912,11.024,7.848,9.04.92-2.04-.856-5.232-2.136-7.5-1.28-2.216-4.512-18.064-4.512-18.064s5.616,18.512,7.2,20.776c1.736,2.48,3.768.952,3.192-1.112-.568-2.04-3.752-14.84-3.9-17.12-.12-2.328,2.256,13.816,4.776,13.208,1.208-.3,2.112-3.768.5-10.248-1.664-6.5.448-13.456,2-19.128,1.528-5.616,1.1-22.848-.416-27.064C24.228,10.632,19.94,0,19.94,0L2.932,2.552s1.928,9.6,1.912,13.8" transform="translate(25.436 350.872)" fill="#e79a8d"/>
          <path id="Fill_269" data-name="Fill 269" d="M16.818,5.8A31.214,31.214,0,0,1,13.5,21.981c-2.576,5.16-5.52,18.408-8.1,19.52s-3.3-10.312-4.056-15.456c-.736-5.16-3.3-13.264,1.48-22.456C7.618-5.619,16.818,5.8,16.818,5.8" transform="translate(29.382 367.035)" fill="#ffddd2"/>
          <path id="Fill_270" data-name="Fill 270" d="M31.888,0C16.2,17.64,13.784,104.328,13.256,133.96,13.216,136.432,6.64,175.2,0,245.864c6.816-.184,32.4,5.16,36.808,6.632,1.48-18.4,10.328-112.648,10.328-112.648,1.392-5.136,11.536-78.008,6.608-92.76C48.832,32.344,31.888,0,31.888,0" transform="translate(22.264 135.792)" fill="#fff"/>
          <path id="Fill_271" data-name="Fill 271" d="M26.256,91.288c.7-2.544,3.52-21.7,5.608-42.168C29.56,29.648,26.256,0,26.256,0c-1.48,11.048-9.584,90.56-11.776,104.544C12.5,116.992,1.8,182.456,0,200.3c7.208,1.416,13.888,2.928,15.936,3.624,1.472-18.408,10.32-112.64,10.32-112.64" transform="translate(43.048 184.256)" fill="#e4e8ef"/>
          <path id="Fill_272" data-name="Fill 272" d="M147.976,211.664c-8.824,12.152-73.248,7.36-89.816,9.568S0,192.136,0,192.136L77.3,0l46.016,23.552s10.3,91.288,12.5,114.472c2.216,23.2,12.16,73.64,12.16,73.64" transform="translate(93.688 274.912)" fill="#e4e8ef"/>
          <path id="Fill_273" data-name="Fill 273" d="M78.749,4.746c.768,11.216-.9,37.552-7.712,45.872,0,0-5.864,3.592-11.848,1.688-6.176-1.992-7.424.664-11.336,5.176-3.92,4.5-26.976,7.432-37.464,4.648-12.44-3.288-15.648-10.368,1.248-20.5C31.581,29.674,43.581,18.186,48.749,5.8c5.16-12.408,30-1.056,30-1.056" transform="translate(0.731 709.558)"/>
          <path id="Fill_274" data-name="Fill 274" d="M0,58.36c-.12-7.68,3.984-12.544.552-51.984C.139,1.616,35.9,0,35.9,0c-1.592,19.36-4.7,37.1,14.056,60.4,9.64,11.984,20.056,29,3.24,31.744C32.579,95.5,17.587,86.52,11.979,72.7c-.384-.912-1.88-.528-1.88-.528S.243,72.176,0,58.36" transform="translate(138.269 684.672)"/>
          <path id="Fill_275" data-name="Fill 275" d="M66.758,0C76.11,24.472,80.766,30.088,80.766,70.9s-11.04,130.7-13.84,161.3c-.824,9.08-9.352,181.424-9.352,193.672,0,12.232-44.912,4.192-52.376-1.928-7.5-6.128-4.68-155.92-4.68-176.328s.824-112.952.824-129.272S6.95,4.072,6.95,4.072L66.758,0" transform="translate(135.306 309.24)"/>
          <path id="Fill_276" data-name="Fill 276" d="M8.424,8.656c2.816,13.5,4.68,166.7.952,218.728L0,434.544s16.848,0,14.984-3.856c-1.88-3.856,6.536-175.36,9.352-193.672S43.04,75.128,38.368,59.736C33.7,44.312,27.152,0,27.152,0L8.424,8.656" transform="translate(177.896 304.424)" fill="#212121"/>
          <path id="Fill_277" data-name="Fill 277" d="M54.952,4.08c-14.024,23.12-29.7,203.728-32.5,223.944C19.656,248.264,0,421.688,0,430.376c16.84,20.232,42.1,20.232,50.52,14.456-8.816,6.04,44.36-217.056,42.1-205.224L120.68,80.616,129.864,0,54.952,4.08" transform="translate(36.64 302.808)"/>
          <path id="Fill_278" data-name="Fill 278" d="M17.1,0,14.6,33.744,0,47.248s49.48,45.7,49.16,35.424c-.312-10.312.56-81.72.56-81.72L17.1,0" transform="translate(105.536 71.312)" fill="#eab6ac"/>
          <path id="Fill_279" data-name="Fill 279" d="M51.816,52.08c-.136-4.472-20.424-7.064-21.168-20.6-3.32-16.016-5.3-26.3-5.512-31.48L8.2,3.48,0,116.4c14.824,4.912,52.152-54.12,51.816-64.32" transform="translate(140.336 73.92)" fill="#df8e80"/>
          <g id="Group_282" data-name="Group 282" transform="translate(116 59)">
            <path id="Clip_281-2" data-name="Clip 281" d="M2.812,44.936l0,0c-.127-.226-.223-.408-.3-.573A118.121,118.121,0,0,0,3.689,23.172C3.487,17.3,2.716,8.968.2,2.608A1.737,1.737,0,0,1,.22.948C.649.319,1.715,0,3.389,0,7.277,0,14.324,1.7,23.23,4.791a174.1,174.1,0,0,1,22.542,9.537l-7.9,1.624c.031-2.364.048-3.746.048-3.759L5.308,11.24l-2.5,33.693ZM49.028,21.408v0c-.364-2.31-.612-4.172-.759-5.693.987.567,1.9,1.143,2.728,1.712L49.03,21.405Z" transform="translate(1.332 1.072)" fill="none"/>
            <g id="Group_282-2" data-name="Group 282" clip-path="url(#clip-path-21)">
              <path id="Fill_280" data-name="Fill 280" d="M2.812,44.936l0,0c-.127-.226-.223-.408-.3-.573A118.121,118.121,0,0,0,3.689,23.172C3.487,17.3,2.716,8.968.2,2.608A1.737,1.737,0,0,1,.22.948C.649.319,1.715,0,3.389,0,7.277,0,14.324,1.7,23.23,4.791a174.1,174.1,0,0,1,22.542,9.537l-7.9,1.624c.031-2.364.048-3.746.048-3.759L5.308,11.24l-2.5,33.693ZM49.028,21.408v0c-.364-2.31-.612-4.172-.759-5.693.987.567,1.9,1.143,2.728,1.712L49.03,21.405Z" transform="translate(1.332 1.072)" fill="none"/>
            </g>
          </g>
          <g id="Group_285" data-name="Group 285" transform="translate(120 71)">
            <path id="Clip_284-2" data-name="Clip 284" d="M22.992,57.16l-.12-3.744C15.44,52.64,3.28,39.688,0,33.7L2.5,0,35.112.952s-.016,1.368-.048,3.76L28.392,6.088,24.976,53.144,22.992,57.16" transform="translate(0.144 0.312)" fill="none"/>
            <g id="Group_285-2" data-name="Group 285" clip-path="url(#clip-path-22)">
              <path id="Fill_283" data-name="Fill 283" d="M22.992,57.16l-.12-3.744C15.44,52.64,3.28,39.688,0,33.7L2.5,0,35.112.952s-.016,1.368-.048,3.76L28.392,6.088,24.976,53.144,22.992,57.16" transform="translate(0.144 0.312)" fill="#b65b4b"/>
            </g>
          </g>
          <g id="Group_288" data-name="Group 288" transform="translate(140 67)">
            <path id="Clip_287-2" data-name="Clip 287" d="M0,50.056,3.416,3l6.672-1.376L17.984,0c.9.472,1.728.936,2.5,1.384q.228,2.352.76,5.7L0,50.056" transform="translate(5.12 7.4)" fill="none"/>
            <g id="Group_288-2" data-name="Group 288" clip-path="url(#clip-path-23)">
              <path id="Fill_286" data-name="Fill 286" d="M0,50.056,3.416,3l6.672-1.376L17.984,0c.9.472,1.728.936,2.5,1.384q.228,2.352.76,5.7L0,50.056" transform="translate(5.12 7.4)" fill="none"/>
            </g>
          </g>
          <path id="Fill_289" data-name="Fill 289" d="M34.244,0C31.66,3.28,11.164,20.864,3.356,20.048c-7.8-.84.44,14.3.44,14.3L6.028,208.352,60.86,203.68,66.244,34.344,34.244,0" transform="translate(139.492 106.768)" fill="#b6dcff"/>
          <path id="Fill_290" data-name="Fill 290" d="M22.992,0c2.576,5.568,15.5,19.664,23.264,20.48l5.88,189.928L0,215.552,1.632,19.32S20.872,2.312,22.992,0" transform="translate(96.76 104.248)" fill="#78c3ff"/>
          <path id="Fill_291" data-name="Fill 291" d="M5.68,14.9h5.712V0H.088L0,6.44,5.68,14.9" transform="translate(132.456 121.968)" fill="#002a68"/>
          <path id="Fill_292" data-name="Fill 292" d="M5.7,0,0,144.392l16.16,11.936L12.408.072,5.7,0" transform="translate(131.712 134.592)" fill="#412ac2"/>
          <path id="Fill_293" data-name="Fill 293" d="M4.736,14.9H0V0H11.568l-.08,6.44L4.736,14.9" transform="translate(143.432 121.968)" fill="#02499e"/>
          <path id="Fill_294" data-name="Fill 294" d="M5.552,0,19.5,142.648,4.424,156.328,0,0H5.552" transform="translate(143.448 134.592)" fill="#5f46ee"/>
          <path id="Fill_295" data-name="Fill 295" d="M0,4.54H11.9V3.46H.136L0,4.54" transform="translate(137.2 132.18)" fill="#02499e"/>
          <path id="Fill_296" data-name="Fill 296" d="M74.368,390.024S0,390.944,0,387.8c0-44.16,25.84-210.744,26.4-230.92.448-15.64,1.416-53.592-.824-60.288-2.248-6.728-9-49.656-9-49.656s-18.232.04-15.144-14.9C2.76,25.488,6.8,17.128,13.128,15.9,31.136,12.376,29.264,13.44,61.048,0c0,0,1.608,15.112,7.048,25.96,5.5,11.032,10.24,85.592,14,96.808,3.976,11.592-7.728,267.256-7.728,267.256" transform="translate(47.304 114.592)" fill="#fff"/>
          <path id="Fill_297" data-name="Fill 297" d="M50.808,386.872,50.056,246.24,47.488,226,36.08,211.272,0,125.152s5.36-18.24,7-86.888L9.808,0c27.92,13.448,27.208,13.376,45.6,19.64C61.36,21.664,58.392,38.7,58.392,38.7s-9.184,49.336-11.4,56.024c-2.24,6.712-2.3,40.5-1.88,56.12.272,9.208,25.208,190.648,25.208,222.4L50.808,386.872" transform="translate(172.088 115.16)" fill="#fff"/>
          <path id="Fill_298" data-name="Fill 298" d="M37.04,0,.736,12.12,0,31.264l36.28-8.328L37.04,0" transform="translate(67.256 331.128)" fill="#e4e8ef"/>
          <path id="Fill_299" data-name="Fill 299" d="M70.172,34.082C66.42,13.818,57.8-4.19,28.732.858c-36.32,6.288-29.36,28-25.584,52.864,3.76,24.832,23.544,49.032,42.1,46.208,14.136-2.16,23.44-19.352,25.384-38.4,3.5-2.72,5.568-8.336,4.888-14.584-.888-8.152.048-13.136-5.352-12.864" transform="translate(98.324 8.726)" fill="#e79a8d"/>
          <path id="Fill_300" data-name="Fill 300" d="M19.878,0C.222,7.272,1.166,22.208,3.95,39.808l-.568,3.328c-5.64,1.312-2.944,3.3-1.04,11.464,1.624,7.1,7.24,13.776,9.128,14.024,7.76,16.16,21.32,28.52,34.52,27.616-8.984-13.1-17.344-34.808-22.2-60.16A218.516,218.516,0,0,1,19.878,0" transform="translate(95.674 12.408)" fill="#b65b4b"/>
          <path id="Fill_301" data-name="Fill 301" d="M25.675.007S16.451-.537,8.035,7.871C1.907,14-1.133,22.727.387,29.871c.1,2.176.288,4.6.632,7.216C2.4,47.887,5.155,50.223,5.155,50.223l4.512.336S4.411,36.367,11.939,27.2c7.528-9.152,25.8-8.144,25.8-8.144L25.675.007" transform="translate(91.021 6.993)"/>
          <path id="Fill_302" data-name="Fill 302" d="M63.66,15.763c-4.248-5.6-7.912-9.88-14.688-11.5-7.6-9.5-42.232-1.232-45.264,6.536-4.36,6.888-5.872,18.92,1.048,21.936,16.816,7.32,29.008-2.4,37.7-3.792,6.824,1.272,9.392,2.384,11.664,5.152,3.088,3.728,5.424,13.56,5.424,13.56l7.864-3.544,3.92,1.3s.824-18.32-7.672-29.64" transform="translate(101.628 0.573)" fill="#333"/>
          <path id="Fill_303" data-name="Fill 303" d="M0,20.592,13.032,35.72,29.68,7.568,22.656,0,0,20.592" transform="translate(148.328 101.688)" fill="#78baff"/>
          <path id="Fill_304" data-name="Fill 304" d="M26.1,17.672l-14.5,15.88L2.52,14.12,0,5.544,5.024,0,26.1,17.672" transform="translate(114.096 104.248)" fill="#b6e1ff"/>
          <path id="Fill_305" data-name="Fill 305" d="M21.056,0A69.04,69.04,0,0,1,6.312,18.256,27.054,27.054,0,0,0,0,25.976S10.528,42.824,16.84,46.328c3.464,1.92,5.608-7.72,7-12.64,1.424-4.9,9.136-16.84,9.136-16.84L21.056,0" transform="translate(198.024 319.32)" fill="#e79a8d"/>
          <path id="Fill_306" data-name="Fill 306" d="M12.344,100.066a2.739,2.739,0,0,1-2.656-2.832c.048-1.5.08-2.92.08-4.328C9.832,67.682.1,45.946,0,26.8-.032,17.41,2.592,8.442,10.136.81V.826a2.741,2.741,0,0,1,3.92,3.832C7.608,11.266,5.544,18.314,5.488,26.8c-.1,17.264,9.72,39.552,9.768,66.1,0,1.488-.016,2.976-.08,4.52a2.749,2.749,0,0,1-2.744,2.64h-.088" transform="translate(89.312 116.726)" fill="#001c49"/>
          <path id="Fill_307" data-name="Fill 307" d="M25.388,13.548A12.709,12.709,0,1,1,13.564.028a12.716,12.716,0,0,1,11.824,13.52" transform="translate(89.676 201.316)" fill="#232121"/>
          <path id="Fill_308" data-name="Fill 308" d="M22.387,11.963A11.205,11.205,0,1,1,11.955.027,11.2,11.2,0,0,1,22.387,11.963" transform="translate(91.189 202.805)" fill="#b4b9c1"/>
          <g id="Group_311" data-name="Group 311" transform="translate(84 211)">
            <path id="Clip_310-2" data-name="Clip 310" d="M8.144,9.424H0V0H1.263A11.172,11.172,0,0,0,3.536,5.7L1.264,0h6.88V9.423Z" transform="translate(5.984 4.176)" fill="none"/>
            <g id="Group_311-2" data-name="Group 311" clip-path="url(#clip-path-24)">
              <path id="Fill_309" data-name="Fill 309" d="M7.034,9.424h0c-.024-.017-.6-.434-1.407-1.1a11.236,11.236,0,0,0,1.7.88l-.3.216ZM2.71,5.684A12.582,12.582,0,0,1,.387,2.62,2.222,2.222,0,0,1,.451,0,11.161,11.161,0,0,0,2.712,5.682Z" transform="translate(6.797 4.176)" fill="none"/>
            </g>
          </g>
          <g id="Group_314" data-name="Group 314" transform="translate(84 203)">
            <path id="Clip_313-2" data-name="Clip 313" d="M6.88,15.3a11.444,11.444,0,0,1-1.7-.88,34.46,34.46,0,0,1-2.9-2.632A11.159,11.159,0,0,1,0,6.1a1.743,1.743,0,0,1,.36-.312A74.557,74.557,0,0,0,7.712,0l6.864,9.72L6.88,15.3" transform="translate(7.248 6.08)" fill="none"/>
            <g id="Group_314-2" data-name="Group 314" clip-path="url(#clip-path-25)">
              <path id="Fill_312" data-name="Fill 312" d="M6.88,15.3a11.444,11.444,0,0,1-1.7-.88,34.46,34.46,0,0,1-2.9-2.632A11.159,11.159,0,0,1,0,6.1a1.743,1.743,0,0,1,.36-.312A74.557,74.557,0,0,0,7.712,0l6.864,9.72L6.88,15.3" transform="translate(7.248 6.08)" fill="none"/>
            </g>
          </g>
          <path id="Fill_315" data-name="Fill 315" d="M12.133,6.47A6.074,6.074,0,1,1,6.5.014,6.058,6.058,0,0,1,12.133,6.47" transform="translate(96.555 207.73)"/>
          <path id="Fill_316" data-name="Fill 316" d="M8.131,4.338A4.069,4.069,0,1,1,4.339.01,4.065,4.065,0,0,1,8.131,4.338" transform="translate(98.573 209.726)" fill="#b4b9c1"/>
          <path id="Fill_317" data-name="Fill 317" d="M17.6.052C17.728-.74,3.24,7.78,3.24,7.78L0,21.412l12.08,4.776L2.512,37.972,33.9,127.844S23.768,36.62,21.28,23.98A229.241,229.241,0,0,1,17.6.052" transform="translate(94.856 110.308)" fill="#e4e8ef"/>
          <path id="Fill_318" data-name="Fill 318" d="M1.112,0C3.04.64,19.5,12.328,19.5,12.328L24.3,24.84,11.416,27.048,22.456,37.36,0,137.12S3.312,36.888,4.784,24.1C6.336,11.344,1.112,0,1.112,0" transform="translate(172.088 105.4)" fill="#e4e8ef"/>
          <path id="Fill_319" data-name="Fill 319" d="M8.943,45.743C3.327,33.327.471,4.679.015,1.567a1.377,1.377,0,0,1,2.728-.384C3.151,4.327,6.159,33.047,11.455,44.6a13.243,13.243,0,0,0,12.28,8.128c3.9.032,7.144-1.768,7.84-3.752l1.784-.784.776,1.784c-1.488,3.6-5.768,5.48-10.4,5.512h-.1a16.051,16.051,0,0,1-14.7-9.744" transform="translate(175.001 170.329)" fill="#959ba5"/>
          <path id="Fill_320" data-name="Fill 320" d="M6.18,6.8C2.86,9.83,1.948,9.654.876,8.91-.22,8.182-.38,6.558.924,3.126,2.332-.5,4.668-.5,6.54.758c1.088.728,3.544,2.472-.36,6.04" transform="translate(204.9 213.962)" fill="#232121"/>
          <path id="Fill_321" data-name="Fill 321" d="M13.072,53.31C7.024,53.23,1.36,50.326.048,45.838a1.381,1.381,0,0,1,.976-1.688,1.382,1.382,0,0,1,1.68.992c.488,2.48,5.216,5.5,10.368,5.416A12.5,12.5,0,0,0,24.136,44.35C30.7,33.51,36.1,4.174,36.9,1.03A1.369,1.369,0,0,1,38.568.046a1.392,1.392,0,0,1,.992,1.672c-.8,2.952-6.032,32.312-13.08,44.064a15.3,15.3,0,0,1-13.3,7.528h-.112" transform="translate(169 171.738)" fill="#959ba5"/>
          <path id="Fill_322" data-name="Fill 322" d="M1.794,6.574C4.746,9.974,5.65,9.878,6.81,9.3c1.168-.624,1.512-2.216.624-5.768C6.45-.242,4.146-.514,2.13.518c-1.176.608-3.808,2.064-.336,6.056" transform="translate(165.286 211.226)" fill="#232121"/>
          <path id="Fill_323" data-name="Fill 323" d="M23.216,10.224v-.168c-.08-4.208-1.264-5.952-5.808-7.888a8.5,8.5,0,0,0-3.24-.592C10.448,1.584,6.9,3.7,6.592,7.632c-.28,4.544-2.368,6.1-4.368,6.016l-1.592-.16L0,12.584l.912-.648,1.312.152C3.44,12,4.536,11.808,5.016,7.5,5.44,2.544,9.912-.032,14.168,0A9.917,9.917,0,0,1,18,.728c4.848,1.864,6.872,4.72,6.784,9.328h-.04l-.016.136h.056l.008.04c.008,3.648,3.656,3.584,3.656,3.632l.776.776-.776.776c-.016,0-5.16-.048-5.232-5.192" transform="translate(177.008 167.472)" fill="#959ba5"/>
          <path id="Fill_324" data-name="Fill 324" d="M2.035,40.187A2.763,2.763,0,0,1,.091,36.819c2.92-10.88,4.064-18.384,4.064-23.528-.008-4.584-.872-7.2-2.048-9.048A2.749,2.749,0,0,1,6.731,1.267C8.611,4.2,9.659,8.043,9.643,13.291c0,5.936-1.28,13.816-4.24,24.952l.016.008a2.756,2.756,0,0,1-2.656,2.032l-.728-.1" transform="translate(191.413 118.101)" fill="#001c49"/>
          <path id="Fill_325" data-name="Fill 325" d="M31.68,26.672a2.746,2.746,0,0,1-2.208-3.2,26.451,26.451,0,0,0,.456-4.664c-.112-8.3-4.7-11.424-10.264-13.024a8,8,0,0,0-2.168-.3C11.568,5.5,5.5,12.08,5.5,17.856l.064,1.152.016.016a2.754,2.754,0,0,1-5.456.76L0,17.856C.16,8.792,7.928.192,17.5,0a13.4,13.4,0,0,1,3.576.472c6.96,1.616,14.472,7.384,14.36,18.336a32.475,32.475,0,0,1-.552,5.672,2.75,2.75,0,0,1-2.7,2.24l-.5-.048" transform="translate(173.776 152.504)" fill="#001c49"/>
          <path id="Fill_326" data-name="Fill 326" d="M26.664,0C40.7,2.106,44.44,13.33,50.04,41.4s18.72,87.944,20.584,102.9c1.88,14.968-44.672,89.336-44.672,89.336A77.488,77.488,0,0,0,0,197.874c14.032-31.816,28.056-56.136,27.352-60.344-1.64-9.9-5.368-51.224-9.1-62.44C14.5,63.866,24.08-.382,26.664,0" transform="translate(200.832 134.798)" fill="#fff"/>
          <path id="Fill_327" data-name="Fill 327" d="M27.352,92.822c.7,4.208-13.32,28.528-27.352,60.336a72.459,72.459,0,0,1,8.1,7.224c5.344-10.264,33.5-64.288,35.5-68.28,2.2-4.424-19.728-105.7-20.992-90.56-.136,1.624-2.072,11.712-4.92,25.936a14,14,0,0,0,.568,2.9c3.736,11.224,7.464,52.544,9.1,62.44" transform="translate(200.832 179.362)" fill="#e4e8ef"/>
        </g>
      </g>
    </g>
  </g>
</svg>
