<svg xmlns="http://www.w3.org/2000/svg" width="342" height="106" viewBox="0 0 342 106">
  <g id="Grupo_24" data-name="Grupo 24" transform="translate(-54 -107)">
    <text id="COVID" transform="translate(161 191)" fill="#fff" font-size="80" font-family="Roboto-Bold, Roboto" font-weight="700"><tspan x="0" y="0">COVID</tspan></text>
    <g id="virus_1_" data-name="virus (1)" transform="translate(54.001 115)">
      <path id="Trazado_1" data-name="Trazado 1" d="M88.044,50.83a2.637,2.637,0,0,0-3.229,1.864l-.061.228-6.1-1.635a34.321,34.321,0,0,0,0-12.575l6.1-1.635.061.228a2.637,2.637,0,1,0,5.094-1.365l-1.487-5.549a2.637,2.637,0,1,0-5.094,1.365l.061.228-6.1,1.635a34.248,34.248,0,0,0-6.3-10.878l4.479-4.479.167.167A2.637,2.637,0,0,0,79.362,14.7L75.3,10.637a2.637,2.637,0,0,0-3.729,3.729l.167.167-4.479,4.479a34.248,34.248,0,0,0-10.879-6.3l1.635-6.1.228.061a2.637,2.637,0,0,0,1.365-5.094L54.059.091a2.637,2.637,0,0,0-1.365,5.094l.228.061-1.635,6.1a34.323,34.323,0,0,0-12.575,0l-1.635-6.1.228-.061A2.637,2.637,0,0,0,35.94.09L30.391,1.577a2.637,2.637,0,1,0,1.365,5.094l.228-.061,1.635,6.1a34.251,34.251,0,0,0-10.879,6.3l-4.479-4.479.167-.167A2.637,2.637,0,0,0,14.7,10.637L10.637,14.7a2.637,2.637,0,1,0,3.729,3.729l.167-.167,4.479,4.479a34.252,34.252,0,0,0-6.3,10.878l-6.1-1.635.061-.228A2.637,2.637,0,1,0,1.577,30.39L.09,35.94a2.637,2.637,0,0,0,5.094,1.365l.061-.228,6.1,1.635a34.32,34.32,0,0,0,0,12.575l-6.1,1.635-.061-.228A2.637,2.637,0,0,0,.09,54.059l1.487,5.549A2.637,2.637,0,0,0,6.67,58.243l-.061-.228,6.1-1.635a34.251,34.251,0,0,0,6.3,10.879l-4.479,4.479-.167-.167A2.637,2.637,0,1,0,10.636,75.3L14.7,79.363a2.637,2.637,0,0,0,3.729-3.729l-.167-.167,4.479-4.479a34.248,34.248,0,0,0,10.879,6.3l-1.635,6.1-.228-.061a2.637,2.637,0,0,0-1.365,5.094l5.549,1.487A2.637,2.637,0,0,0,37.3,84.816l-.228-.061,1.635-6.1a34.323,34.323,0,0,0,12.575,0l1.635,6.1-.228.061a2.637,2.637,0,0,0,1.365,5.094l5.549-1.487a2.637,2.637,0,0,0-1.365-5.094l-.228.061-1.635-6.1a34.251,34.251,0,0,0,10.879-6.3l4.479,4.479-.167.167A2.637,2.637,0,1,0,75.3,79.363L79.362,75.3a2.637,2.637,0,0,0-3.729-3.729l-.167.167-4.479-4.479a34.248,34.248,0,0,0,6.3-10.879l6.1,1.635-.061.228a2.637,2.637,0,0,0,5.094,1.365l1.487-5.549a2.636,2.636,0,0,0-1.863-3.229ZM45,73.961A28.961,28.961,0,1,1,73.96,45,28.994,28.994,0,0,1,45,73.961Z" transform="translate(0 0)" fill="#fff"/>
      <circle id="Elipse_13" data-name="Elipse 13" cx="34.5" cy="34.5" r="34.5" transform="translate(10.377 10.378)" fill="#fff"/>
      <circle id="Elipse_1" data-name="Elipse 1" cx="2.646" cy="2.646" r="2.646" transform="translate(42.353 22.588)" fill="#879ee9"/>
      <circle id="Elipse_2" data-name="Elipse 2" cx="2.646" cy="2.646" r="2.646" transform="translate(42.353 62.118)" fill="#879ee9"/>
      <circle id="Elipse_3" data-name="Elipse 3" cx="2.646" cy="2.646" r="2.646" transform="translate(36.706 48)" fill="#879ee9"/>
      <circle id="Elipse_4" data-name="Elipse 4" cx="2.646" cy="2.646" r="2.646" transform="translate(48 48)" fill="#879ee9"/>
      <circle id="Elipse_5" data-name="Elipse 5" cx="2.646" cy="2.646" r="2.646" transform="translate(48 36.706)" fill="#879ee9"/>
      <circle id="Elipse_6" data-name="Elipse 6" cx="2.646" cy="2.646" r="2.646" transform="translate(36.706 36.706)" fill="#879ee9"/>
      <circle id="Elipse_7" data-name="Elipse 7" cx="2.646" cy="2.646" r="2.646" transform="translate(62.118 42.353)" fill="#879ee9"/>
      <circle id="Elipse_8" data-name="Elipse 8" cx="2.646" cy="2.646" r="2.646" transform="translate(22.588 42.353)" fill="#879ee9"/>
      <circle id="Elipse_9" data-name="Elipse 9" cx="2.646" cy="2.646" r="2.646" transform="translate(56.329 28.378)" fill="#879ee9"/>
      <circle id="Elipse_10" data-name="Elipse 10" cx="2.646" cy="2.646" r="2.646" transform="translate(28.377 56.33)" fill="#879ee9"/>
      <circle id="Elipse_11" data-name="Elipse 11" cx="2.646" cy="2.646" r="2.646" transform="translate(56.329 56.33)" fill="#879ee9"/>
      <circle id="Elipse_12" data-name="Elipse 12" cx="2.646" cy="2.646" r="2.646" transform="translate(28.377 28.378)" fill="#879ee9"/>
    </g>
  </g>
</svg>
