<svg xmlns="http://www.w3.org/2000/svg" xmlns:xlink="http://www.w3.org/1999/xlink" width="1148" height="849" viewBox="0 0 1148 849">
  <defs>
    <linearGradient id="linear-gradient" x1="0.102" y1="0.887" x2="1.176" y2="0.006" gradientUnits="objectBoundingBox">
      <stop offset="0" stop-color="#5dbceb"/>
      <stop offset="1" stop-color="#3be0b1"/>
    </linearGradient>
    <linearGradient id="linear-gradient-2" x1="0.927" y1="0.128" x2="-1.173" y2="1.958" xlink:href="#linear-gradient"/>
    <linearGradient id="linear-gradient-3" x1="-0.004" y1="0.051" x2="1.434" y2="1.001" xlink:href="#linear-gradient"/>
    <linearGradient id="linear-gradient-4" x1="0.203" y1="0.375" x2="1.175" y2="0.978" gradientUnits="objectBoundingBox">
      <stop offset="0" stop-color="#b26929"/>
      <stop offset="1" stop-color="#7e3c10"/>
    </linearGradient>
    <linearGradient id="linear-gradient-5" x1="0.5" y1="0.061" x2="0.5" y2="3.576" xlink:href="#linear-gradient-4"/>
    <linearGradient id="linear-gradient-6" x1="0.5" y1="-3.601" x2="0.5" y2="1.166" xlink:href="#linear-gradient-4"/>
    <linearGradient id="linear-gradient-7" x1="0.015" y1="0.728" x2="1.02" y2="0.254" xlink:href="#linear-gradient-4"/>
    <linearGradient id="linear-gradient-8" y1="0.5" x2="1" y2="0.5" gradientUnits="objectBoundingBox">
      <stop offset="0" stop-color="#fff"/>
      <stop offset="1"/>
    </linearGradient>
    <linearGradient id="linear-gradient-10" x1="0.99" y1="-0.509" x2="0.208" y2="1.101" xlink:href="#linear-gradient"/>
    <linearGradient id="linear-gradient-11" x1="0.559" y1="-0.078" x2="0.44" y2="1.206" xlink:href="#linear-gradient"/>
    <linearGradient id="linear-gradient-12" x1="-0.03" y1="0.145" x2="1.488" y2="0.97" gradientUnits="objectBoundingBox">
      <stop offset="0" stop-color="#c572ee"/>
      <stop offset="1" stop-color="#3a3199"/>
    </linearGradient>
    <linearGradient id="linear-gradient-13" x1="0.823" y1="0.924" x2="0.013" y2="0.094" gradientUnits="objectBoundingBox">
      <stop offset="0" stop-color="#ff7461"/>
      <stop offset="1" stop-color="#f7b880"/>
    </linearGradient>
    <linearGradient id="linear-gradient-14" x1="1.154" y1="1.028" x2="0.053" y2="-0.006" gradientUnits="objectBoundingBox">
      <stop offset="0" stop-color="#ff8093"/>
      <stop offset="1" stop-color="#f5b1f5"/>
    </linearGradient>
    <linearGradient id="linear-gradient-15" y1="0.5" x2="1" y2="0.5" gradientUnits="objectBoundingBox">
      <stop offset="0" stop-color="#2cc9b3"/>
      <stop offset="1" stop-color="#7be9d9"/>
    </linearGradient>
  </defs>
  <g id="Grupo_2" data-name="Grupo 2" transform="translate(-2103 212)">
    <ellipse id="Elipse_19" data-name="Elipse 19" cx="153.01" cy="34.623" rx="153.01" ry="34.623" transform="translate(2693.64 434.488)" opacity="0.1"/>
    <path id="Trazado_2" data-name="Trazado 2" d="M1282.51,1021.6c-.01.39-.03.79-.05,1.19-.01.45-.04.89-.08,1.34-.04.59-.09,1.19-.15,1.78,0,.02-.01.05-.01.08-.06.59-.13,1.19-.22,1.78-.05.43-.11.87-.19,1.3-.06.4-.13.8-.2,1.19-.09.54-.19,1.08-.31,1.62-.11.56-.24,1.11-.37,1.66-.36,1.54-.78,3.06-1.27,4.58q-.21.69-.45,1.38a1.175,1.175,0,0,1-.07.2c-.2.61-.42,1.21-.65,1.81a1.966,1.966,0,0,1-.08.22c-.21.56-.44,1.13-.67,1.69-.19.48-.39.96-.61,1.44-.12.3-.25.59-.38.88q-.36.81-.75,1.62c-.28.58-.56,1.16-.86,1.74-.24.49-.49.97-.76,1.45q-.225.45-.48.9c-.26.5-.54.99-.82,1.48-.35.6-.7,1.19-1.06,1.79-.37.62-.76,1.24-1.15,1.85q-1.29,2.04-2.72,4.06c-.35.49-.7.98-1.06,1.47q-1.335,1.83-2.78,3.65c-.37.46-.74.92-1.11,1.37-1.15,1.42-2.36,2.82-3.61,4.22-.4.46-.82.93-1.25,1.39-.6.66-1.22,1.32-1.85,1.98-.55.59-1.12,1.18-1.69,1.76-1.16,1.19-2.34,2.36-3.56,3.53H787.98c38.35-49.5,179.79-210.16,466.26-309.92-24.13,16.4-99.16,81.34,6.76,200.92C1276.45,988.44,1282.96,1005.35,1282.51,1021.6Z" transform="translate(1331 -443)" fill="#c9def1"/>
    <ellipse id="Elipse_20" data-name="Elipse 20" cx="74.667" cy="21.122" rx="74.667" ry="21.122" transform="matrix(0.996, -0.093, 0.093, 0.996, 2174.861, 590.686)" opacity="0.1"/>
    <ellipse id="Elipse_21" data-name="Elipse 21" cx="43.481" cy="12.3" rx="43.481" ry="12.3" transform="translate(2370.101 435.762) rotate(-19.991)" opacity="0.1"/>
    <ellipse id="Elipse_22" data-name="Elipse 22" cx="49.583" cy="8.88" rx="49.583" ry="8.88" transform="translate(2396.167 535.757)" opacity="0.1"/>
    <line id="Línea_14" data-name="Línea 14" y1="24.014" x2="134.633" transform="translate(2791.867 225.5)" fill="none" stroke="red" stroke-miterlimit="10" stroke-width="1"/>
    <line id="Línea_15" data-name="Línea 15" y1="22.687" x2="127.191" transform="translate(2784.367 270.327)" fill="none" stroke="red" stroke-miterlimit="10" stroke-width="1"/>
    <g id="Grupo_1" data-name="Grupo 1" transform="translate(1331 -443)">
      <path id="Trazado_3" data-name="Trazado 3" d="M1692.46,458.13a10.1,10.1,0,0,1-8.2,2.87,12.712,12.712,0,0,1-3.59-1l-36.16,88.53L1633.63,540l-7.67-6.01,49.71-92.32s1.41-6.34,4.67-10.45a8.533,8.533,0,0,1,4.71-3.29,6.465,6.465,0,0,1,3.45.22,11.8,11.8,0,0,1,3.83,2.18C1700.63,437.02,1699.2,451.85,1692.46,458.13Z" fill="#ffcec3"/>
      <path id="Trazado_4" data-name="Trazado 4" d="M1651.6,554.09,1595.5,668.5s-18.11,83.6-71.9,134.95a161.158,161.158,0,0,1-14.19,12.08c-21.09,15.93-46.81,26.64-77.91,27.07a143.231,143.231,0,0,1-14.5-.53,176.428,176.428,0,0,1-36-7.07c-.19-.08-.37-.17-.55-.26-.25-.12-.5-.25-.75-.38,71.55-42.85,82.93-112.39,81.18-159.3-.32-8.35-1.04-15.98-1.92-22.61l17.8-16.89L1587,531s9,24.5,8.5,39l24.39-40.77,6.07,4.76,13.5,10.58,5.05,3.96Z" fill="url(#linear-gradient)"/>
      <path id="Trazado_5" data-name="Trazado 5" d="M1402.61,617.75l-26.3-4.07-.01-.01-30.68-4.76-13.71-2.12-5.54,5.05C1324.81,575.75,1325,550,1325,550l20.62,18Z" fill="url(#linear-gradient-2)"/>
      <path id="Trazado_6" data-name="Trazado 6" d="M1587,531l-41.43,39.29-8.03,7.62-78.58,74.54a188.43,188.43,0,0,0-5.29-26.78l-51.06-7.92L1345.62,568,1325,550l-1.33-48.33a47.2,47.2,0,0,0,13.63-.81c.17-.03.34-.07.51-.11a57.07,57.07,0,0,0,8.14-2.36v-.01c1.47-.54,2.94-1.14,4.39-1.8,23.38-10.5,43.63-34.5,55.16-50.36a85.555,85.555,0,0,1,54.55-34.38c27.61-4.72,47.15,5.77,55.05,11.18.35.25.68.47.98.7a33.936,33.936,0,0,1,2.91,2.27l.01.01,3.5-9.25,6.7,9.35.03.06c3.49,5.91,6.88,11.14,7.77,10.84.2-.07.58-.25,1.12-.52a.091.091,0,0,0,.07-.03,41.151,41.151,0,0,1,8.31-2.69c15.98-3.26,25.56,6.19,26.98,7.7a.983.983,0,0,1,.1.11c.06.07.09.1.09.1l11.34,76Z" fill="#ffcec3"/>
      <path id="Trazado_7" data-name="Trazado 7" d="M1379.7,834.36c-1.11.66-2.23,1.32-3.37,1.97,0,0-98.66-13.33-126.66-154.66l76.7-69.83,5.54-5.05,44.39,6.88.01.01,26.3,4.07,51.06,7.92a188.43,188.43,0,0,1,5.29,26.78c.88,6.63,1.6,14.26,1.92,22.61C1462.63,721.97,1451.25,791.51,1379.7,834.36Z" fill="url(#linear-gradient-3)"/>
      <path id="Trazado_8" data-name="Trazado 8" d="M1623.5,430.5c.5,64-38.49,87.17-38.49,87.17l-11.34-76s-.03-.03-.09-.1a.983.983,0,0,0-.1-.11c-1.65-1.76-14.33-14.24-35.29-5.01a.091.091,0,0,1-.07.03c-.37.17-.74.34-1.12.52-.89.3-4.28-4.93-7.77-10.84l-.03-.06-6.7-9.35L1519,426a34.734,34.734,0,0,0-2.92-2.28c-.3-.23-.63-.45-.98-.7-7.9-5.41-27.44-15.9-55.05-11.18a85.555,85.555,0,0,0-54.55,34.38c-15.75,21.67-47.78,58.52-81.83,55.45,0,0-11.4,31.45-35.54,18.1a41.243,41.243,0,0,1-5.63-3.77c-28-22-43.5-64.5-4-109s233.5-213,258-124.5c2.36,13.41-6.47,26.68-15.38,36.25a113.676,113.676,0,0,1-16.03,14.19.275.275,0,0,0-.05.04,97.864,97.864,0,0,1,24.55-1.88c16.8.87,37.56,6.79,46.41,28.9C1576,360,1623,366.5,1623.5,430.5Z" fill="url(#linear-gradient-4)"/>
      <path id="Trazado_9" data-name="Trazado 9" d="M1688.5,428.15c-3.48-1.13-6.17.55-8.16,3.07l-1.92-14.57,8.42-1.11Z" fill="url(#linear-gradient-5)"/>
      <path id="Trazado_10" data-name="Trazado 10" d="M1693.84,468.58l-8.43,1.11-1.15-8.69a10.1,10.1,0,0,0,8.2-2.87Z" fill="url(#linear-gradient-6)"/>
      <path id="Trazado_11" data-name="Trazado 11" d="M1702.2,413.42l-39.16,5.17-1.41-10.66,8.02-1.06v.01l12.81-1.69,10.32-1.37,8.01-1.05Z" fill="url(#linear-gradient-7)"/>
      <path id="Trazado_12" data-name="Trazado 12" d="M1682.46,405.19l-12.81,1.69v-.01Z" fill="url(#linear-gradient-8)"/>
      <path id="Trazado_13" data-name="Trazado 13" d="M1692.78,403.82l-10.32,1.37-12.81,1.68-21.06-159.61,3.45-6.66L1657,231l14.72,13.21Z" fill="#d8d8d8"/>
      <path id="Trazado_14" data-name="Trazado 14" d="M1682.46,405.19l-12.81,1.69v-.01Z" fill="url(#linear-gradient-8)"/>
      <path id="Trazado_15" data-name="Trazado 15" d="M1431.5,842.6v52.9H1417V842.07c2.07.18,4.11.32,6.13.4,1.29.06,2.56.1,3.83.12C1428.49,842.62,1430,842.62,1431.5,842.6Z" fill="url(#linear-gradient-10)"/>
      <path id="Trazado_16" data-name="Trazado 16" d="M1431.5,895.5l-1.62,15.88-9,2.66-2.21-2.37-40.34,8.66-.66-3.33c.31-13.98,35.76-20.84,39.08-21.45a2.209,2.209,0,0,0,.25-.05Z" fill="#7e3c10"/>
      <path id="Trazado_17" data-name="Trazado 17" d="M1526.17,902.62h-14.5l-2.26-87.09q2.115-1.59,4.15-3.25c2.16-1.74,4.26-3.53,6.31-5.39q1.89-1.68,3.73-3.44Z" fill="url(#linear-gradient-11)"/>
      <path id="Trazado_18" data-name="Trazado 18" d="M1526.17,902.62l-1.63,15.88-9,2.66-2.21-2.37L1473,927.45l-.67-3.33c.34-14.67,39.34-21.5,39.34-21.5Z" fill="#7e3c10"/>
    </g>
    <path id="Trazado_19" data-name="Trazado 19" d="M1081,790.5c-12.15,11.79-22.99,15.29-32.05,13.79-15.93-2.62-26.4-20.68-28.95-36.29-1.74-10.67-8.31-17.82-15.51-22.74-9.33-6.37-19.7-9.02-21.99-10.76-31.56-24.06-19.38-43.63-5.8-54.93a184.492,184.492,0,0,0,23.93-23.99c7.53-9.06,19.46-15.55,32.39-17.64a52.625,52.625,0,0,1,25.14,1.87c10.05,3.35,19.37,10.12,26.34,21.19C1110,701.5,1114.5,758,1081,790.5Z" transform="translate(1331 -443)" fill="url(#linear-gradient-12)"/>
    <line id="Línea_16" data-name="Línea 16" x1="3.333" y2="18.333" transform="translate(2349.667 235.667)" fill="none" stroke="#fff" stroke-linecap="round" stroke-linejoin="round" stroke-width="3"/>
    <line id="Línea_17" data-name="Línea 17" x2="18.5" y2="2.333" transform="translate(2343.167 241.833)" fill="none" stroke="#fff" stroke-linecap="round" stroke-linejoin="round" stroke-width="3"/>
    <line id="Línea_18" data-name="Línea 18" x2="10.833" y2="5.833" transform="translate(2382.333 230.5)" fill="none" stroke="#fff" stroke-linecap="round" stroke-linejoin="round" stroke-width="3"/>
    <line id="Línea_19" data-name="Línea 19" x1="6.667" y2="13.167" transform="translate(2385.5 227.5)" fill="none" stroke="#fff" stroke-linecap="round" stroke-linejoin="round" stroke-width="3"/>
    <line id="Línea_20" data-name="Línea 20" y1="20.5" x2="30.167" transform="translate(2370.667 259.333)" fill="none" stroke="#fff" stroke-linecap="round" stroke-linejoin="round" stroke-width="3"/>
    <path id="Trazado_20" data-name="Trazado 20" d="M980,969a161.959,161.959,0,0,1-16.52,36.98c-9.54,15.45-21.4,27.56-35.02,34.68-24.38,12.76-54.43,9.53-86.96-19.16a157.118,157.118,0,0,1-16.04-16.35c-24.24-28.61-35.22-62.61-37.75-95.06a194.229,194.229,0,0,1,7.33-70.08q1.815-6.015,3.95-11.47a.157.157,0,0,0,.01-.04L772,793l42.5,9.5s15-29,36-36.5c0,0-.04-.49-.11-1.36-.52-6.47-2.66-33.82-1.43-33.18l.04.04c1.5,1.5,22.5,27,22.5,27s29.22,14.3,36.68,45.83a68.9,68.9,0,0,1,.32,29.17s64.24,47.22,73.5,102.03A71.385,71.385,0,0,1,980,969Z" transform="translate(1331 -443)" fill="url(#linear-gradient-13)"/>
    <line id="Línea_21" data-name="Línea 21" y1="16.5" x2="12.5" transform="translate(2183.5 346)" fill="none" stroke="#7e3c10" stroke-linecap="round" stroke-linejoin="round" stroke-width="3"/>
    <line id="Línea_22" data-name="Línea 22" y1="6.5" x2="21.5" transform="translate(2150.5 371)" fill="none" stroke="#7e3c10" stroke-linecap="round" stroke-linejoin="round" stroke-width="3"/>
    <circle id="Elipse_23" data-name="Elipse 23" cx="5.5" cy="5.5" r="5.5" transform="translate(2165.5 383)" fill="#7e3c10"/>
    <circle id="Elipse_24" data-name="Elipse 24" cx="5.5" cy="5.5" r="5.5" transform="translate(2194.5 363.25)" fill="#7e3c10"/>
    <path id="Trazado_21" data-name="Trazado 21" d="M870.95,870.6l-.423.37a5.084,5.084,0,0,1-7.665-1.146L852.54,853.2l-.02-.02,11.83-8.01,10-6.77,10.41-7.06,1.52-1.03a23.265,23.265,0,0,0,7.192,13.129,5.1,5.1,0,0,1-.092,7.571h0l-2.16,1.89-17.66,15.42" transform="translate(1331 -443)" opacity="0.1"/>
    <path id="Trazado_22" data-name="Trazado 22" d="M870.95,870.6c-6.9-6.4-17.92-16.94-18.41-17.4l-.02-.02,11.83-8.01c.77,1.95,5.89,14.83,9.21,23.15,1.55,3.89,2.71,6.78,2.86,7.1C876.58,875.76,874.23,873.65,870.95,870.6Z" transform="translate(1331 -443)" fill="#fff"/>
    <path id="Trazado_23" data-name="Trazado 23" d="M896,857l-4.78-4.1-16.87-14.5,10.41-7.06,8.62,19.67Z" transform="translate(1331 -443)" fill="#fff"/>
    <path id="Trazado_24" data-name="Trazado 24" d="M840,941.5c-16.86,14.88-23.39-47.49-52.29-31.41a194.229,194.229,0,0,1,7.33-70.08S791,867,813.5,877,875.04,908.98,840,941.5Z" transform="translate(1331 -443)" fill="#f7b880"/>
    <path id="Trazado_25" data-name="Trazado 25" d="M825.077,958.042a11.579,11.579,0,0,1,5.634,7.754c1.067,4.808,4.6,12.392,16.289,11.7,17-1,35,14,23.5,28s-8.5-12-22-13.5S822,998.5,818,972C815.546,955.74,820.715,955.669,825.077,958.042Z" transform="translate(1331 -443)" opacity="0.1"/>
    <path id="Trazado_26" data-name="Trazado 26" d="M980,969c-10.24,32.91-28.33,59.53-51.54,71.66l-1.46-.16s-23,1-26-49.5,26-30.5,26-61c0-25.99,40.29-26.93,55,5.53A71.385,71.385,0,0,1,980,969Z" transform="translate(1331 -443)" fill="#ff7461"/>
    <path id="Trazado_27" data-name="Trazado 27" d="M1125.38,983.72c-7.22,3.27-14.81,4.01-21.64,1.34a24.576,24.576,0,0,1-7.49-4.65,23.113,23.113,0,0,1-7.41-16.32A15.9,15.9,0,0,0,1083,952c-8.33-6.67-16.33-11-8-25,3.15-5.29,14.11-13.44,26.99-19.08,11.24-4.93,23.95-7.94,34.22-5.48,9.09,2.17,16.26,8.65,18.79,21.89C1160.01,950.51,1143.88,975.37,1125.38,983.72Z" transform="translate(1331 -443)" fill="url(#linear-gradient-14)"/>
    <line id="Línea_23" data-name="Línea 23" x1="13" y2="7.667" transform="translate(2456 487.333)" fill="none" stroke="#fff" stroke-linecap="round" stroke-linejoin="round" stroke-width="3"/>
    <path id="Trazado_28" data-name="Trazado 28" d="M1130.17,934.951l2.33,8.924-5.709-6.931" transform="translate(1331 -443)" fill="#fff"/>
    <circle id="Elipse_25" data-name="Elipse 25" cx="2.375" cy="2.375" r="2.375" transform="translate(2445.75 475.5)" fill="#fff"/>
    <circle id="Elipse_26" data-name="Elipse 26" cx="2.125" cy="2.125" r="2.125" transform="translate(2461.75 470.25)" fill="#fff"/>
    <path id="Trazado_29" data-name="Trazado 29" d="M1757.676,961.944S1686.5,1010,1559,913.5C1559,913.5,1705.351,839.888,1757.676,961.944Z" transform="translate(1331 -443)" fill="url(#linear-gradient-15)"/>
    <path id="Trazado_30" data-name="Trazado 30" d="M1615.667,749s16,32.667,16.666,47.333,38.667,81.334,78,82S1690.333,746.333,1615.667,749Z" transform="translate(1331 -443)" fill="url(#linear-gradient-15)"/>
    <path id="Trazado_31" data-name="Trazado 31" d="M1786.333,882.333c-85.333-4-72.666-139.333-62-167.333s26-88,26-88,119.334,52,75.334,188.667C1811.667,859.667,1786.333,882.333,1786.333,882.333Z" transform="translate(1331 -443)" fill="url(#linear-gradient-15)"/>
    <path id="Trazado_32" data-name="Trazado 32" d="M1859.45,962.9s97.782-100.562,0-194.562c0,0,6.281,38.667-9.084,80.667S1841.232,953.457,1859.45,962.9Z" transform="translate(1331 -443)" fill="url(#linear-gradient-15)"/>
    <circle id="Elipse_27" data-name="Elipse 27" cx="7.362" cy="7.362" r="7.362" transform="translate(2730.638 47.971)" fill="#7e3c10"/>
    <circle id="Elipse_28" data-name="Elipse 28" cx="7.362" cy="7.362" r="7.362" transform="translate(2799.305 42.638)" fill="#7e3c10"/>
    <path id="Trazado_33" data-name="Trazado 33" d="M1503.17,560.83,1488.3,568l-7.32-13.9.01-.01a53.525,53.525,0,0,0,17.21-8.38Z" transform="translate(1331 -443)" fill="#fff"/>
    <line id="Línea_24" data-name="Línea 24" y1="13" x2="28" transform="translate(2794.5 18)" fill="none" stroke="#7e3c10" stroke-linecap="round" stroke-linejoin="round" stroke-width="3"/>
    <line id="Línea_25" data-name="Línea 25" x1="29.852" y1="7.863" transform="translate(2719.074 30.37)" fill="none" stroke="#7e3c10" stroke-linecap="round" stroke-linejoin="round" stroke-width="3"/>
    <path id="Trazado_34" data-name="Trazado 34" d="M1515.67,526.33a67.6,67.6,0,0,1-17.47,19.38,53.525,53.525,0,0,1-17.21,8.38,57.388,57.388,0,0,1-31.99-.42" transform="translate(1331 -443)" fill="none" stroke="#7e3c10" stroke-linecap="round" stroke-linejoin="round" stroke-width="3"/>
    <path id="Trazado_35" data-name="Trazado 35" d="M1509.668,516.912s1.452,7.867,15.431,17.489" transform="translate(1331 -443)" fill="none" stroke="#7e3c10" stroke-linecap="round" stroke-linejoin="round" stroke-width="3"/>
    <path id="Trazado_36" data-name="Trazado 36" d="M1320.983,730.806c2.907,2,5.663,4.135,8.337,6.338s5.284,4.46,7.823,6.778c5.089,4.627,9.956,9.444,14.658,14.4l.879.932a.953.953,0,0,0,.266.234,1.68,1.68,0,0,1,.157.131,3.783,3.783,0,0,0,.669.3,2.3,2.3,0,0,0,1.411,0,2.2,2.2,0,0,0,1.1-.7c.049-.1.148-.16.185-.284a.846.846,0,0,1,.1-.15l.3-.563,1.2-2.258,4.82-9.03,4.909-8.983c6.616-11.941,13.434-23.775,20.573-35.44s14.537-23.2,22.613-34.368c-4.625,12.987-9.937,25.613-15.488,38.113s-11.441,24.822-17.526,37.042l-4.615,9.137-4.7,9.09-1.178,2.272-.3.57-.568.943a13.749,13.749,0,0,1-1.326,1.775,13.763,13.763,0,0,1-16.165,3.4,13.224,13.224,0,0,1-3.619-2.451l-.736-.785c-.23-.254-.521-.578-.6-.7l-.784-1.013c-4.165-5.417-8.167-10.973-11.946-16.72q-2.843-4.3-5.478-8.783C1324.187,737.043,1322.509,733.989,1320.983,730.806Z" transform="translate(1331 -443)" fill="#fff"/>
    <path id="Trazado_37" data-name="Trazado 37" d="M1345.62,568,1325,550l-1.33-48.33a47.2,47.2,0,0,0,13.63-.81c.02.06.2.01.51-.11a57.07,57.07,0,0,0,8.14-2.36C1344.93,507.51,1340.88,547.28,1345.62,568Z" transform="translate(1331 -443)" fill="#fff" opacity="0.33"/>
    <path id="Trazado_38" data-name="Trazado 38" d="M1587,531l-1.99-13.33-11.34-76s-.03-.03-.09-.1a.983.983,0,0,0-.1-.11c-1.419-1.514-11-10.945-26.992-7.686l.012-.014c-.128.026-.262.064-.392.091-.36.078-.725.165-1.092.255-.261.065-.521.129-.785.2-.417.113-.84.24-1.265.37-.222.068-.442.131-.666.205-.513.166-1.033.352-1.557.546-.151.056-.3.1-.453.163-.691.264-1.39.547-2.1.86a.091.091,0,0,1-.07.03c-.54.27-.92.45-1.12.52-.89.3-4.28-4.93-7.77-10.84l-.03-.06-6.7-9.35L1519,426l-.01-.01a33.936,33.936,0,0,0-2.91-2.27c-.3-.23-.63-.45-.98-.7-7.9-5.41-27.44-15.9-55.05-11.18a85.555,85.555,0,0,0-54.55,34.38c-11.53,15.86-31.78,39.86-55.16,50.36,26.98-4.14,67.95-63.67,98.66-75.58a60.594,60.594,0,0,1,31.288-3.512c24.927,3.725,45.065,22.188,52.06,46.4,7.835,27.119,15.75,65.872,13.222,106.4Z" transform="translate(1331 -443)" opacity="0.1"/>
    <ellipse id="Elipse_29" data-name="Elipse 29" cx="9.982" cy="5.439" rx="9.982" ry="5.439" transform="translate(2619.262 6.262) rotate(-52.266)" fill="#fff" opacity="0.33"/>
    <ellipse id="Elipse_30" data-name="Elipse 30" cx="4.708" cy="2.566" rx="4.708" ry="2.566" transform="translate(2625.893 -19.726) rotate(-52.266)" fill="#fff" opacity="0.33"/>
    <path id="Trazado_39" data-name="Trazado 39" d="M1467.5,307.833c-39.152,6.153-130.509,51.669-170.5,94.937-46,49.77-8.87,117-8.87,117a41.243,41.243,0,0,1-5.63-3.77c-28-22-43.5-64.5-4-109s233.5-213,258-124.5C1538.86,295.91,1477.658,306.237,1467.5,307.833Z" transform="translate(1331 -443)" fill="#fff" opacity="0.33"/>
    <path id="Trazado_40" data-name="Trazado 40" d="M1623.5,430.5c.5,64-38.49,87.17-38.49,87.17l-11.34-76s23.34-21.05,0-53.19-68.65-55.49-68.65-55.49l24.57-1.89c16.8.87,37.56,6.79,46.41,28.9C1576,360,1623,366.5,1623.5,430.5Z" transform="translate(1331 -443)" opacity="0.1"/>
    <path id="Trazado_41" data-name="Trazado 41" d="M1688.5,428.15,1633.63,540l-7.67-6.01,49.71-92.32s1.41-6.34,4.67-10.45a8.533,8.533,0,0,1,4.71-3.29Z" transform="translate(1331 -443)" fill="#fff" opacity="0.33"/>
    <path id="Trazado_42" data-name="Trazado 42" d="M1682.46,405.19l-12.81,1.68-21.06-159.61,3.45-6.66Z" transform="translate(1331 -443)" fill="#fff" opacity="0.33"/>
    <path id="Trazado_43" data-name="Trazado 43" d="M1345.62,568v40.91l-13.71-2.12-5.54,5.05C1324.81,575.75,1325,550,1325,550Z" transform="translate(1331 -443)" fill="#fff" opacity="0.33"/>
    <path id="Trazado_44" data-name="Trazado 44" d="M1376.33,836.33S1277.67,823,1249.67,681.67l76.7-69.83,5.54-5.05L1279,692.51S1286.33,766.33,1376.33,836.33Z" transform="translate(1331 -443)" fill="#fff" opacity="0.33"/>
    <path id="Trazado_45" data-name="Trazado 45" d="M1380.45,834.74c-.25-.12-.5-.25-.75-.38,71.55-42.85,82.93-112.39,81.18-159.3-.32-8.35-1.04-15.98-1.92-22.61l17.8-16.89C1494.81,778.44,1401.43,825.94,1380.45,834.74Z" transform="translate(1331 -443)" opacity="0.1"/>
    <path id="Trazado_46" data-name="Trazado 46" d="M1651.6,554.09,1595.5,668.5s-18.11,83.6-71.9,134.95a161.158,161.158,0,0,1-14.19,12.08c-21.09,15.93-46.81,26.64-77.91,27.07a143.231,143.231,0,0,1-14.5-.53,176.428,176.428,0,0,1-36-7.07c-.19-.08-.37-.17-.55-.26C1545.9,835.98,1575,659,1575,659l64.46-114.43,5.05,3.96Z" transform="translate(1331 -443)" opacity="0.1"/>
    <circle id="Elipse_31" data-name="Elipse 31" cx="5.654" cy="5.654" r="5.654" transform="translate(2739.346 108.679)" fill="#ff948c" opacity="0.56"/>
    <circle id="Elipse_32" data-name="Elipse 32" cx="3.998" cy="3.998" r="3.998" transform="translate(2725.614 94.24)" fill="#ff948c" opacity="0.56"/>
    <circle id="Elipse_33" data-name="Elipse 33" cx="3.998" cy="3.998" r="3.998" transform="translate(2742.658 90.242)" fill="#ff948c" opacity="0.56"/>
    <path id="Trazado_47" data-name="Trazado 47" d="M1423.13,842.47c-.27,10.83-.66,36.38-.91,53.03H1417V842.07C1419.07,842.25,1421.11,842.39,1423.13,842.47Z" transform="translate(1331 -443)" fill="#fff" opacity="0.33"/>
    <path id="Trazado_48" data-name="Trazado 48" d="M1515.74,902.62h-4.07l-2.26-87.09q2.115-1.59,4.15-3.25C1514.05,833.99,1515.2,880.95,1515.74,902.62Z" transform="translate(1331 -443)" fill="#fff" opacity="0.33"/>
    <path id="Trazado_49" data-name="Trazado 49" d="M980,969a161.959,161.959,0,0,1-16.52,36.98C984.81,922.94,901.5,843,901.5,843l7-9.5s64.24,47.22,73.5,102.03A71.385,71.385,0,0,1,980,969Z" transform="translate(1331 -443)" opacity="0.1"/>
    <path id="Trazado_50" data-name="Trazado 50" d="M825.46,1005.15c-24.24-28.61-35.22-62.61-37.75-95.06a194.229,194.229,0,0,1,7.33-70.08q1.815-6.015,3.95-11.47C798.61,830.65,784.33,911.12,825.46,1005.15Z" transform="translate(1331 -443)" fill="#fff" opacity="0.33"/>
    <path id="Trazado_51" data-name="Trazado 51" d="M908.18,804.33C890.4,774.38,850.5,766,850.5,766s-3-36-1.5-34.5,22.5,27,22.5,27S900.72,772.8,908.18,804.33Z" transform="translate(1331 -443)" opacity="0.1"/>
    <path id="Trazado_52" data-name="Trazado 52" d="M854.95,767.16,850.5,766s-2.94-35.27-1.54-34.54l.04.04Z" transform="translate(1331 -443)" fill="#fff" opacity="0.33"/>
    <path id="Trazado_53" data-name="Trazado 53" d="M798.99,828.54a.157.157,0,0,0,.01-.04L772,793l31,29.67Z" transform="translate(1331 -443)" fill="#fff" opacity="0.33"/>
    <path id="Trazado_54" data-name="Trazado 54" d="M854.95,767.16,814.5,802.5s15-29,36-36.5c0,0-.04-.49-.11-1.36C853.13,766.15,854.95,767.16,854.95,767.16Z" transform="translate(1331 -443)" fill="#fff" opacity="0.33"/>
    <path id="Trazado_55" data-name="Trazado 55" d="M1103.74,985.06a24.576,24.576,0,0,1-7.49-4.65,23.113,23.113,0,0,1-7.41-16.32A15.9,15.9,0,0,0,1083,952c-8.33-6.67-16.33-11-8-25,3.15-5.29,14.11-13.44,26.99-19.08-7.27,9.49-13.23,21.01-10.49,27.58C1096.17,946.71,1110.43,970.56,1103.74,985.06Z" transform="translate(1331 -443)" fill="#fff" opacity="0.33"/>
    <path id="Trazado_56" data-name="Trazado 56" d="M1125.38,983.72c11.04-15.02,31.02-48.82,15.62-72.91a87.72,87.72,0,0,1-4.79-8.37c9.09,2.17,16.26,8.65,18.79,21.89C1160.01,950.51,1143.88,975.37,1125.38,983.72Z" transform="translate(1331 -443)" opacity="0.1"/>
    <path id="Trazado_57" data-name="Trazado 57" d="M1004.49,745.26c-9.33-6.37-19.7-9.02-21.99-10.76-31.56-24.06-19.38-43.63-5.8-54.93a184.492,184.492,0,0,0,23.93-23.99c7.53-9.06,19.46-15.55,32.39-17.64-1.48,1.03-73.72,51.32-45.02,76.39C999.48,724.36,1003.64,735.48,1004.49,745.26Z" transform="translate(1331 -443)" fill="#fff" opacity="0.33"/>
    <path id="Trazado_58" data-name="Trazado 58" d="M1081,790.5c-12.15,11.79-22.99,15.29-32.05,13.79,18.49-19.74,52.05-63.92,32.72-108.29-13.52-31.01-20.28-47.53-23.51-56.19,10.05,3.35,19.37,10.12,26.34,21.19C1110,701.5,1114.5,758,1081,790.5Z" transform="translate(1331 -443)" opacity="0.1"/>
    <circle id="Elipse_34" data-name="Elipse 34" cx="4" cy="4" r="4" transform="translate(2351.667 292)" fill="#fff" opacity="0.33"/>
    <circle id="Elipse_35" data-name="Elipse 35" cx="3" cy="3" r="3" transform="translate(2356.667 310.667)" fill="#fff" opacity="0.33"/>
    <path id="Trazado_59" data-name="Trazado 59" d="M1818.048,1021.566S1726.552,886.93,1566.06,917.5" transform="translate(1331 -443)" fill="none" stroke="#17b09a" stroke-miterlimit="10" stroke-width="3"/>
    <path id="Trazado_60" data-name="Trazado 60" d="M1615.667,749s82.666,68,112.666,144" transform="translate(1331 -443)" fill="none" stroke="#17b09a" stroke-miterlimit="10" stroke-width="3"/>
    <path id="Trazado_61" data-name="Trazado 61" d="M1750.333,627s43.479,31.2,22,130.667c-16.285,75.416,63.074,258.666,63.074,258.666" transform="translate(1331 -443)" fill="none" stroke="#17b09a" stroke-miterlimit="10" stroke-width="3"/>
    <path id="Trazado_62" data-name="Trazado 62" d="M1822.333,1009s87.334-52,44-232" transform="translate(1331 -443)" fill="none" stroke="#17b09a" stroke-miterlimit="10" stroke-width="3"/>
    <path id="Trazado_63" data-name="Trazado 63" d="M1920,1022.52V1080H1387.74c26.59-34.61,68.59-79.63,107.26-59,60,32,88-4,134-32s56,34,122,14,72-30,122,12C1886.68,1026.49,1903.21,1027.35,1920,1022.52Z" transform="translate(1331 -443)" fill="#2cc9b3"/>
    <path id="Trazado_64" data-name="Trazado 64" d="M1526.17,902.62h-5.24l-1.06-95.73q1.89-1.68,3.73-3.44Z" transform="translate(1331 -443)" opacity="0.1"/>
    <path id="Trazado_65" data-name="Trazado 65" d="M1511.67,902.62h0c-15.5.66-38.67,24.83-38.67,24.83l-.67-3.33C1472.67,909.45,1511.67,902.62,1511.67,902.62Z" transform="translate(1331 -443)" fill="#fff" opacity="0.33"/>
    <path id="Trazado_66" data-name="Trazado 66" d="M1526.17,902.62l-1.63,15.88-9,2.66-2.21-2.37s11.78-7.3,7.6-16.17Z" transform="translate(1331 -443)" opacity="0.1"/>
    <path id="Trazado_67" data-name="Trazado 67" d="M1416.75,895.55c-20.72,4.44-38.42,24.78-38.42,24.78l-.66-3.33C1377.98,903.02,1413.43,896.16,1416.75,895.55Z" transform="translate(1331 -443)" fill="#fff" opacity="0.33"/>
    <path id="Trazado_68" data-name="Trazado 68" d="M1431.5,842.6v52.9h-5.59l1.05-52.91C1428.49,842.62,1430,842.62,1431.5,842.6Z" transform="translate(1331 -443)" opacity="0.1"/>
    <path id="Trazado_69" data-name="Trazado 69" d="M1431.5,895.5l-1.62,15.88-9,2.66-2.21-2.37s10.82-8.92,7.24-16.17Z" transform="translate(1331 -443)" opacity="0.1"/>
  </g>
</svg>
