<svg xmlns="http://www.w3.org/2000/svg" xmlns:xlink="http://www.w3.org/1999/xlink" width="629.66" height="685.28" viewBox="0 0 629.66 685.28">
  <defs>
    <linearGradient id="linear-gradient" x1="0.198" y1="0.055" x2="0.87" y2="0.876" gradientUnits="objectBoundingBox">
      <stop offset="0" stop-color="#b7e78c"/>
      <stop offset="0.725" stop-color="#77ce97"/>
      <stop offset="0.845" stop-color="#6ecb99"/>
      <stop offset="1" stop-color="#98db90"/>
    </linearGradient>
    <linearGradient id="linear-gradient-4" x1="0.311" y1="0.044" x2="0.571" y2="0.687" gradientUnits="objectBoundingBox">
      <stop offset="0" stop-color="#fc829b"/>
      <stop offset="1" stop-color="#d42749"/>
    </linearGradient>
    <filter id="Trazado_755" x="212.343" y="381.19" width="40.396" height="40.192" filterUnits="userSpaceOnUse">
      <feOffset dy="3" input="SourceAlpha"/>
      <feGaussianBlur stdDeviation="1.5" result="blur"/>
      <feFlood flood-opacity="0.071"/>
      <feComposite operator="in" in2="blur"/>
      <feComposite in="SourceGraphic"/>
    </filter>
  </defs>
  <g id="virus" transform="translate(-830.761 -268.828)">
    <path id="Trazado_751" data-name="Trazado 751" d="M44.326-198.972c32.573,13.591,64.614,35.382,85.038,66.436,20.348,31.054,29.156,71.448,21.26,107.741-7.9,36.217-32.5,68.334-60.97,91.8-28.549,23.462-60.97,38.267-92.4,39.938C-34.183,108.685-64.63,97.22-97.81,89.855c-33.1-7.365-68.866-10.782-92.783-29.46-23.917-18.6-35.99-52.542-35.61-85.038.456-32.5,13.211-63.475,27.106-94.074,13.819-30.6,28.776-60.818,53-78.205,24.3-17.387,58.008-21.943,91.34-21.487C-21.351-218.03,11.753-212.563,44.326-198.972Z" transform="translate(1186.925 726.991)" fill="#7ed196" opacity="0.6"/>
    <g id="Grupo_151" data-name="Grupo 151" transform="translate(870.007 306.436)">
      <g id="Grupo_76" data-name="Grupo 76">
        <g id="Grupo_30" data-name="Grupo 30" transform="translate(290.014 1.49)">
          <path id="Trazado_667" data-name="Trazado 667" d="M280.309,212.388a8.092,8.092,0,0,1-9.512,6.359l-8.108-1.609a8.1,8.1,0,0,1-6.356-9.519h0a8.091,8.091,0,0,1,9.515-6.356l8.1,1.612a8.089,8.089,0,0,1,6.356,9.512Z" transform="translate(-256.044 -139.77)" fill="#5cb130" opacity="0.8" style="mix-blend-mode: multiply;isolation: isolate"/>
          <g id="Grupo_29" data-name="Grupo 29" transform="translate(0 0)">
            <g id="Grupo_28" data-name="Grupo 28">
              <path id="Trazado_668" data-name="Trazado 668" d="M291.609,185.7c-3.822-1.144-9.225.628-12.657.646a16.9,16.9,0,0,1-8.385-1.9c-6.226-3.354-16.5-.178-14.061,8.791,1.014,3.73,5.188,5.123,7.247,8.187,3.4,5.048-.618,10.53-2.022,15.5-1.878,6.67,2.07,12.862,3.115,19.365a17.6,17.6,0,0,1-.649,8.634c-1.336,3.9-4.4,11.926,2.1,12.825,5.683.782,10.079-6.544,11.482-10.98a31.129,31.129,0,0,0-.485-18.651c-2.449-7.466-5.386-17.237.85-23.033,3.88-3.6,10.451-2.432,14.146-6.278C295.707,195.252,298.511,187.769,291.609,185.7Z" transform="translate(-256.137 -183.148)" fill="#67c1a6"/>
            </g>
            <path id="Trazado_671" data-name="Trazado 671" d="M287.662,194.207c2.172-2.264,4.088-6.117,3.426-9.153-.717,2.439-2.695,4.669-5.748,6.25-4.071,2.111-8.675,2.76-12.982,4.307-3.6,1.288-7.746,2.6-11.554,1.27a14.245,14.245,0,0,1-2.749-1.332,9.336,9.336,0,0,1,1.069,1.277,7.782,7.782,0,0,1,1.253,5.488c.027-.014.048-.031.068-.041a2.665,2.665,0,0,1,3.815,1.107c1.906,3.979-.762,6.588-1.366,10.54-1.144,7.5,3.7,12.948,4.624,20.011.526,4,.71,9.952-1.892,13.351a17.866,17.866,0,0,1-6.475,4.84,4.9,4.9,0,0,0,2.517,1.028c5.683.782,10.079-6.544,11.483-10.98a31.128,31.128,0,0,0-.485-18.651c-2.449-7.466-5.386-17.237.85-23.033C277.4,196.881,283.966,198.053,287.662,194.207Z" transform="translate(-251.508 -178.544)" fill="#91d584"/>
          </g>
        </g>
        <g id="Grupo_33" data-name="Grupo 33" transform="translate(353.844 28.271)">
          <path id="Trazado_672" data-name="Trazado 672" d="M293.378,222.365a8.1,8.1,0,0,1-11.254,2.087l-6.814-4.679a8.1,8.1,0,0,1-2.083-11.254h0a8.1,8.1,0,0,1,11.25-2.087l6.814,4.682a8.1,8.1,0,0,1,2.087,11.25Z" transform="translate(-271.804 -148.675)" fill="#5cb130" opacity="0.8" style="mix-blend-mode: multiply;isolation: isolate"/>
          <g id="Grupo_32" data-name="Grupo 32" transform="translate(5.507 0)">
            <g id="Grupo_31" data-name="Grupo 31" transform="translate(0)">
              <path id="Trazado_673" data-name="Trazado 673" d="M327.425,202.24c-3.064-2.558-8.733-3.057-11.892-4.4a16.872,16.872,0,0,1-6.954-5.048c-4.4-5.54-15.1-6.674-16.394,2.531-.536,3.829,2.749,6.749,3.429,10.379,1.137,5.984-4.717,9.437-7.965,13.446-4.365,5.389-3.18,12.637-4.782,19.027a17.564,17.564,0,0,1-4,7.678c-2.763,3.057-8.74,9.225-3.125,12.61,4.911,2.958,11.838-2.035,14.877-5.557a31.112,31.112,0,0,0,6.913-17.333c.7-7.825,1.851-17.968,9.867-20.834,4.986-1.776,10.567,1.9,15.478-.184C327.421,212.633,332.947,206.861,327.425,202.24Z" transform="translate(-273.417 -188.517)" fill="#67c1a6"/>
            </g>
            <path id="Trazado_676" data-name="Trazado 676" d="M322.583,203.53c2.889-1.223,6.172-4,6.756-7.06-1.619,1.957-4.314,3.231-7.743,3.477-4.58.335-9.061-.888-13.631-1.165-3.815-.236-8.149-.663-11.121-3.392a14.223,14.223,0,0,1-2-2.309,8.737,8.737,0,0,1,.475,1.6,7.8,7.8,0,0,1-1,5.54.561.561,0,0,1,.075-.01,2.668,2.668,0,0,1,3.067,2.521c.184,4.409-3.3,5.755-5.413,9.146-4.01,6.438-1.708,13.354-3.641,20.219-1.1,3.876-3.275,9.42-7,11.52a17.9,17.9,0,0,1-7.862,1.885,4.835,4.835,0,0,0,1.909,1.94c4.911,2.958,11.838-2.036,14.877-5.557a31.113,31.113,0,0,0,6.913-17.333c.7-7.825,1.851-17.968,9.867-20.834C312.091,201.938,317.671,205.61,322.583,203.53Z" transform="translate(-273.124 -177.491)" fill="#91d584"/>
          </g>
        </g>
        <g id="Grupo_36" data-name="Grupo 36" transform="translate(423.975 93.284)">
          <path id="Trazado_677" data-name="Trazado 677" d="M299.339,241.042a8.1,8.1,0,0,1-9.87-5.782l-2.087-8a8.1,8.1,0,0,1,5.789-9.874h0a8.087,8.087,0,0,1,9.867,5.789l2.094,7.992a8.1,8.1,0,0,1-5.793,9.874Z" transform="translate(-287.119 -190.063)" fill="#5cb130" opacity="0.8" style="mix-blend-mode: multiply;isolation: isolate"/>
          <g id="Grupo_35" data-name="Grupo 35" transform="translate(3.976 0)">
            <g id="Grupo_34" data-name="Grupo 34" transform="translate(0)">
              <path id="Trazado_678" data-name="Trazado 678" d="M364.462,239.695c-.639-3.941-4.6-8.033-6.1-11.114a16.786,16.786,0,0,1-1.95-8.371c.29-7.066-7.042-14.925-14.051-8.815-2.91,2.541-2.343,6.9-4.2,10.092-3.064,5.266-9.747,4.04-14.826,4.949-6.827,1.213-10.67,7.469-16.073,11.25a17.53,17.53,0,0,1-8.05,3.183c-4.092.5-12.647,1.253-10.618,7.486,1.776,5.454,10.28,6.213,14.884,5.54a31.107,31.107,0,0,0,16.575-8.576c5.646-5.465,13.159-12.37,21.093-9.286,4.935,1.919,6.745,8.347,11.824,9.993C357.662,247.543,365.616,246.8,364.462,239.695Z" transform="translate(-288.283 -209.201)" fill="#67c1a6"/>
            </g>
            <path id="Trazado_681" data-name="Trazado 681" d="M352.958,238.41c2.985.967,7.285,1,9.731-.915-2.5.417-5.376-.379-8.136-2.442-3.672-2.749-6.264-6.605-9.539-9.806-2.729-2.674-5.721-5.833-6.182-9.84a14.477,14.477,0,0,1,0-3.053,9.316,9.316,0,0,1-.683,1.516,7.868,7.868,0,0,1-4.389,3.528.709.709,0,0,1,.061.044,2.658,2.658,0,0,1,.666,3.911c-2.743,3.449-6.26,2.189-10.075,3.371-7.244,2.237-10.034,8.979-15.987,12.9-3.368,2.21-8.644,4.976-12.842,4.126a17.876,17.876,0,0,1-7.176-3.726,4.818,4.818,0,0,0,.174,2.719c1.776,5.454,10.28,6.213,14.884,5.54a31.107,31.107,0,0,0,16.575-8.576c5.646-5.465,13.159-12.37,21.093-9.286C346.07,230.336,347.88,236.764,352.958,238.41Z" transform="translate(-288.276 -201.584)" fill="#91d584"/>
          </g>
        </g>
        <g id="Grupo_39" data-name="Grupo 39" transform="translate(448.592 206.412)">
          <path id="Trazado_682" data-name="Trazado 682" d="M298.6,262.951a8.1,8.1,0,0,1-8.1-8.077l-.014-8.262a8.1,8.1,0,0,1,8.088-8.108h0a8.1,8.1,0,0,1,8.1,8.081l.014,8.265a8.1,8.1,0,0,1-8.084,8.1Z" transform="translate(-290.481 -226.219)" fill="#5cb130" opacity="0.8" style="mix-blend-mode: multiply;isolation: isolate"/>
          <g id="Grupo_38" data-name="Grupo 38" transform="translate(22.075 0)">
            <g id="Grupo_37" data-name="Grupo 37" transform="translate(0.001)">
              <path id="Trazado_683" data-name="Trazado 683" d="M367.106,268.87c.372-3.972-2.432-8.928-3.122-12.292a16.868,16.868,0,0,1,.215-8.59c2.059-6.759-3.07-16.216-11.383-12.063-3.46,1.732-4,6.093-6.605,8.716-4.286,4.331-10.448,1.472-15.591,1.069-6.913-.54-12.207,4.549-18.378,6.851a17.577,17.577,0,0,1-8.6,1.062c-4.081-.54-12.555-1.967-12.159,4.58.352,5.724,8.392,8.593,13.019,9.1a31.1,31.1,0,0,0,18.19-4.143c6.844-3.87,15.851-8.665,22.757-3.689,4.293,3.094,4.433,9.771,8.931,12.633C358.547,274.761,366.437,276.039,367.106,268.87Z" transform="translate(-291.473 -234.907)" fill="#67c1a6"/>
            </g>
            <path id="Trazado_686" data-name="Trazado 686" d="M354.384,266.141c2.647,1.687,6.8,2.807,9.648,1.568-2.531-.229-5.1-1.725-7.254-4.409-2.869-3.583-4.413-7.968-6.773-11.885-1.974-3.279-4.075-7.087-3.514-11.083a14.09,14.09,0,0,1,.765-2.954,9.108,9.108,0,0,1-1.045,1.3,7.836,7.836,0,0,1-5.133,2.312.432.432,0,0,1,.055.058,2.66,2.66,0,0,1-.338,3.952c-3.525,2.654-6.609.55-10.6.734-7.572.352-11.967,6.172-18.72,8.47-3.808,1.3-9.608,2.647-13.46.765a17.8,17.8,0,0,1-6.008-5.406,4.785,4.785,0,0,0-.519,2.678c.352,5.724,8.392,8.593,13.019,9.1A31.1,31.1,0,0,0,322.7,257.2c6.844-3.87,15.851-8.665,22.757-3.689C349.746,256.6,349.886,263.279,354.384,266.141Z" transform="translate(-291.473 -228.941)" fill="#91d584"/>
          </g>
        </g>
        <g id="Grupo_42" data-name="Grupo 42" transform="translate(462.098 283.294)">
          <path id="Trazado_687" data-name="Trazado 687" d="M295.086,282.1a8.1,8.1,0,0,1-6.694-9.279l1.322-8.156A8.092,8.092,0,0,1,299,257.973h0a8.087,8.087,0,0,1,6.694,9.28l-1.322,8.159a8.092,8.092,0,0,1-9.283,6.691Z" transform="translate(-288.287 -255.52)" fill="#5cb130" opacity="0.8" style="mix-blend-mode: multiply;isolation: isolate"/>
          <g id="Grupo_41" data-name="Grupo 41" transform="translate(4.284 0)">
            <g id="Grupo_40" data-name="Grupo 40" transform="translate(0)">
              <path id="Trazado_688" data-name="Trazado 688" d="M362.481,292.458c1-3.856-.96-9.2-1.1-12.63a16.947,16.947,0,0,1,1.595-8.446c3.132-6.342-.41-16.5-9.286-13.737-3.692,1.141-4.932,5.366-7.924,7.534-4.921,3.583-10.54-.239-15.56-1.458-6.732-1.646-12.777,2.521-19.246,3.8a17.58,17.58,0,0,1-8.648-.338c-3.948-1.188-12.077-3.965-12.736,2.562-.581,5.707,6.892,9.833,11.377,11.079a31.11,31.11,0,0,0,18.627-1.154c7.37-2.715,17.036-6,23.044.027,3.747,3.747,2.807,10.359,6.783,13.911C353.082,296.891,360.661,299.429,362.481,292.458Z" transform="translate(-289.542 -257.18)" fill="#67c1a6"/>
            </g>
            <path id="Trazado_691" data-name="Trazado 691" d="M349.4,288.735c2.343,2.094,6.257,3.866,9.266,3.1a10.829,10.829,0,0,1-6.448-5.516c-2.254-4-3.07-8.579-4.764-12.825-1.421-3.552-2.883-7.647-1.691-11.5A14.885,14.885,0,0,1,347,259.2a8.942,8.942,0,0,1-1.24,1.113,7.793,7.793,0,0,1-5.437,1.452l.044.068a2.662,2.662,0,0,1-.97,3.849c-3.911,2.046-6.616-.526-10.581-.994-7.534-.874-12.808,4.167-19.836,5.342-3.975.669-9.918,1.069-13.412-1.407a17.967,17.967,0,0,1-5.062-6.3,4.829,4.829,0,0,0-.936,2.558c-.581,5.707,6.892,9.833,11.377,11.079a31.11,31.11,0,0,0,18.627-1.154c7.37-2.715,17.036-6,23.044.027C346.368,278.571,345.428,285.183,349.4,288.735Z" transform="translate(-289.542 -252.31)" fill="#91d584"/>
          </g>
        </g>
        <g id="Grupo_45" data-name="Grupo 45" transform="translate(410.672 355.277)">
          <path id="Trazado_692" data-name="Trazado 692" d="M283.683,294.9a8.091,8.091,0,0,1-2.493-11.168l4.433-6.978a8.1,8.1,0,0,1,11.175-2.49h0a8.1,8.1,0,0,1,2.486,11.172l-4.433,6.978a8.1,8.1,0,0,1-11.168,2.486Z" transform="translate(-279.928 -273)" fill="#5cb130" opacity="0.8" style="mix-blend-mode: multiply;isolation: isolate"/>
          <g id="Grupo_44" data-name="Grupo 44" transform="translate(6.216 5.579)">
            <g id="Grupo_43" data-name="Grupo 43" transform="translate(0 0)">
              <path id="Trazado_693" data-name="Trazado 693" d="M340.568,326.73c2.445-3.156,2.743-8.839,3.972-12.049a16.838,16.838,0,0,1,4.8-7.124c5.376-4.6,6.127-15.328-3.111-16.295-3.853-.4-6.656,2.988-10.256,3.8-5.939,1.349-9.6-4.375-13.719-7.483-5.543-4.163-12.743-2.722-19.187-4.1a17.551,17.551,0,0,1-7.818-3.726c-3.152-2.65-9.529-8.4-12.712-2.671-2.78,5.014,2.459,11.759,6.09,14.669a31.042,31.042,0,0,0,17.569,6.288c7.845.413,18.02,1.209,21.168,9.119,1.957,4.918-1.513,10.622.738,15.458C330.182,327.088,336.145,332.413,340.568,326.73Z" transform="translate(-281.748 -274.634)" fill="#67c1a6"/>
            </g>
            <path id="Trazado_696" data-name="Trazado 696" d="M328.1,322.287c1.329,2.842,4.225,6.021,7.3,6.5-2.008-1.547-3.378-4.191-3.75-7.609-.5-4.563.564-9.088.68-13.662.1-3.825.372-8.166,2.992-11.236a14.279,14.279,0,0,1,2.234-2.08,8.939,8.939,0,0,1-1.578.533,7.85,7.85,0,0,1-5.574-.806l.02.072A2.673,2.673,0,0,1,328,297.15c-4.4.342-5.868-3.094-9.327-5.082-6.575-3.777-13.412-1.226-20.335-2.913-3.914-.963-9.532-2.937-11.766-6.592a17.919,17.919,0,0,1-2.169-7.79,4.9,4.9,0,0,0-1.868,1.981c-2.78,5.014,2.459,11.759,6.09,14.669a31.042,31.042,0,0,0,17.569,6.288c7.845.413,18.02,1.209,21.168,9.119C329.314,311.747,325.844,317.451,328.1,322.287Z" transform="translate(-281.748 -274.299)" fill="#91d584"/>
          </g>
        </g>
        <g id="Grupo_48" data-name="Grupo 48" transform="translate(362.828 387.924)">
          <path id="Trazado_697" data-name="Trazado 697" d="M275.877,292.318a8.1,8.1,0,0,1,5.427-10.072l7.917-2.367a8.094,8.094,0,0,1,10.075,5.43h0a8.091,8.091,0,0,1-5.434,10.072l-7.913,2.367a8.085,8.085,0,0,1-10.072-5.43Z" transform="translate(-275.534 -279.537)" fill="#5cb130" opacity="0.8" style="mix-blend-mode: multiply;isolation: isolate"/>
          <g id="Grupo_47" data-name="Grupo 47" transform="translate(6.54 4.057)">
            <g id="Grupo_46" data-name="Grupo 46" transform="translate(0 0)">
              <path id="Trazado_698" data-name="Trazado 698" d="M294.155,356.608c3.914-.772,7.862-4.874,10.885-6.5a16.948,16.948,0,0,1,8.3-2.241c7.073.041,14.662-7.572,8.313-14.362-2.65-2.814-6.985-2.09-10.239-3.836-5.372-2.869-4.392-9.594-5.475-14.635-1.462-6.786-7.845-10.4-11.817-15.663a17.52,17.52,0,0,1-3.473-7.934c-.646-4.068-1.7-12.592-7.859-10.338-5.386,1.967-5.844,10.492-5.01,15.068a31.139,31.139,0,0,0,9.17,16.257c5.663,5.451,12.828,12.715,10.034,20.752-1.745,5-8.1,7.039-9.563,12.169C286.068,350.092,287.1,358.015,294.155,356.608Z" transform="translate(-277.448 -280.725)" fill="#67c1a6"/>
            </g>
            <path id="Trazado_701" data-name="Trazado 701" d="M287.417,345.337c-.857,3.019-.748,7.316,1.26,9.693-.509-2.49.188-5.386,2.148-8.214,2.616-3.774,6.376-6.5,9.457-9.884,2.579-2.831,5.625-5.926,9.618-6.53a14.436,14.436,0,0,1,3.053-.109,9.259,9.259,0,0,1-1.544-.632,7.882,7.882,0,0,1-3.685-4.256.316.316,0,0,1-.037.065,2.663,2.663,0,0,1-3.887.8c-3.549-2.623-2.411-6.178-3.73-9.949-2.5-7.162-9.331-9.7-13.46-15.523-2.329-3.279-5.284-8.45-4.58-12.678a17.758,17.758,0,0,1,3.466-7.305,4.79,4.79,0,0,0-2.712.273c-5.386,1.967-5.844,10.492-5.01,15.069a31.139,31.139,0,0,0,9.17,16.257c5.663,5.451,12.828,12.715,10.034,20.752C295.234,338.165,288.878,340.207,287.417,345.337Z" transform="translate(-277.448 -280.717)" fill="#91d584"/>
          </g>
        </g>
        <g id="Grupo_51" data-name="Grupo 51" transform="translate(284.2 410.841)">
          <path id="Trazado_702" data-name="Trazado 702" d="M254.511,297.969a8.1,8.1,0,0,1,7.784-8.385l8.255-.311a8.1,8.1,0,0,1,8.392,7.79h0a8.1,8.1,0,0,1-7.784,8.385l-8.262.307a8.087,8.087,0,0,1-8.385-7.787Z" transform="translate(-254.264 -289.268)" fill="#5cb130" opacity="0.8" style="mix-blend-mode: multiply;isolation: isolate"/>
          <g id="Grupo_50" data-name="Grupo 50" transform="translate(0 3.479)">
            <g id="Grupo_49" data-name="Grupo 49" transform="translate(0 0)">
              <path id="Trazado_703" data-name="Trazado 703" d="M259.986,366.272c3.986.229,8.832-2.753,12.172-3.562a16.889,16.889,0,0,1,8.593-.092c6.834,1.814,16.093-3.648,11.646-11.807-1.855-3.395-6.23-3.784-8.945-6.291-4.481-4.122-1.837-10.379-1.626-15.543.29-6.93-4.983-12.032-7.5-18.122a17.477,17.477,0,0,1-1.366-8.545c.4-4.105,1.513-12.623-5.014-11.988-5.711.546-8.3,8.692-8.631,13.333a31.071,31.071,0,0,0,4.792,18.03c4.112,6.7,9.228,15.53,4.5,22.61-2.944,4.4-9.618,4.782-12.309,9.379C253.794,357.928,252.8,365.858,259.986,366.272Z" transform="translate(-254.435 -290.287)" fill="#67c1a6"/>
            </g>
            <path id="Trazado_706" data-name="Trazado 706" d="M256.3,353.673c-1.595,2.708-2.568,6.9-1.223,9.7.137-2.538,1.534-5.164,4.143-7.411,3.48-3,7.8-4.7,11.636-7.193,3.207-2.094,6.933-4.321,10.946-3.907a13.892,13.892,0,0,1,2.985.659,9.521,9.521,0,0,1-1.335-1,7.848,7.848,0,0,1-2.493-5.041c-.02.01-.038.038-.058.051a2.665,2.665,0,0,1-3.962-.195c-2.777-3.426-.782-6.588-1.11-10.571-.622-7.551-6.6-11.742-9.136-18.4-1.428-3.76-2.992-9.512-1.247-13.429a17.792,17.792,0,0,1,5.188-6.2,4.753,4.753,0,0,0-2.691-.42c-5.711.546-8.3,8.692-8.631,13.333a31.07,31.07,0,0,0,4.792,18.03c4.112,6.7,9.228,15.53,4.5,22.61C265.66,348.7,258.986,349.076,256.3,353.673Z" transform="translate(-254.429 -290.287)" fill="#91d584"/>
          </g>
        </g>
        <g id="Grupo_54" data-name="Grupo 54" transform="translate(201.289 397.128)">
          <path id="Trazado_707" data-name="Trazado 707" d="M233.805,292.009a8.106,8.106,0,0,1,10.506-4.539l7.681,3.057a8.094,8.094,0,0,1,4.536,10.506h0a8.094,8.094,0,0,1-10.5,4.536l-7.685-3.053a8.1,8.1,0,0,1-4.536-10.506Z" transform="translate(-206.783 -286.902)" fill="#5cb130" opacity="0.8" style="mix-blend-mode: multiply;isolation: isolate"/>
          <g id="Grupo_53" data-name="Grupo 53" transform="translate(0 5.39)">
            <g id="Grupo_52" data-name="Grupo 52" transform="translate(0 0)">
              <path id="Trazado_708" data-name="Trazado 708" d="M228.822,355.08c3.555,1.817,9.187,1.048,12.569,1.656a16.893,16.893,0,0,1,7.907,3.381c5.516,4.416,16.2,3.156,15.42-6.11-.328-3.856-4.18-5.97-5.652-9.358-2.435-5.584,2.51-10.246,4.792-14.877,3.057-6.223.29-13.026.441-19.611a17.513,17.513,0,0,1,2.2-8.378c2.012-3.59,6.476-10.933.246-13C261.3,287,255.65,293.4,253.468,297.514a31.083,31.083,0,0,0-2.893,18.436c1.059,7.787,2.179,17.927-5,22.494-4.471,2.848-10.724.5-15.052,3.617C226.524,344.95,222.412,351.8,228.822,355.08Z" transform="translate(-225.489 -288.48)" fill="#67c1a6"/>
            </g>
            <path id="Trazado_711" data-name="Trazado 711" d="M230.521,342.06c-2.545,1.841-5.127,5.283-5.027,8.385a10.84,10.84,0,0,1,6.78-5.1c4.392-1.342,9.034-1.147,13.552-1.889,3.774-.618,8.088-1.161,11.592.833a14.038,14.038,0,0,1,2.462,1.817,9.994,9.994,0,0,1-.82-1.455,7.831,7.831,0,0,1-.243-5.625l-.075.027a2.658,2.658,0,0,1-3.548-1.779c-1.154-4.256,1.943-6.339,3.248-10.12,2.48-7.159-1.3-13.4-.936-20.519.212-4.023,1.1-9.9,4.279-12.787a17.832,17.832,0,0,1,7.244-3.583,4.774,4.774,0,0,0-2.292-1.475c-5.447-1.786-11.093,4.617-13.275,8.726a31.083,31.083,0,0,0-2.893,18.436c1.059,7.787,2.179,17.927-5,22.494C241.1,341.292,234.849,338.945,230.521,342.06Z" transform="translate(-225.484 -288.48)" fill="#91d584"/>
          </g>
        </g>
        <g id="Grupo_57" data-name="Grupo 57" transform="translate(123.784 378.069)">
          <path id="Trazado_712" data-name="Trazado 712" d="M221.236,283.6a8.1,8.1,0,0,1,11.1-2.78l7.09,4.256a8.089,8.089,0,0,1,2.777,11.1h0a8.093,8.093,0,0,1-11.1,2.773l-7.087-4.256a8.083,8.083,0,0,1-2.78-11.093Z" transform="translate(-184.492 -279.673)" fill="#5cb130" opacity="0.8" style="mix-blend-mode: multiply;isolation: isolate"/>
          <g id="Grupo_56" data-name="Grupo 56" transform="translate(0 6.11)">
            <g id="Grupo_55" data-name="Grupo 55" transform="translate(0 0)">
              <path id="Trazado_713" data-name="Trazado 713" d="M212.247,341.473c3.207,2.37,8.9,2.517,12.138,3.658a16.9,16.9,0,0,1,7.254,4.614c4.734,5.249,15.478,5.724,16.2-3.542.3-3.856-3.156-6.571-4.064-10.154-1.506-5.9,4.126-9.7,7.118-13.908,4.023-5.649,2.391-12.8,3.6-19.283a17.556,17.556,0,0,1,3.518-7.913c2.568-3.221,8.156-9.744,2.343-12.78-5.089-2.647-11.694,2.763-14.508,6.472a31.123,31.123,0,0,0-5.83,17.722c-.208,7.859-.741,18.043-8.562,21.4-4.87,2.087-10.663-1.236-15.437,1.148C211.609,331.108,206.448,337.2,212.247,341.473Z" transform="translate(-209.663 -281.462)" fill="#67c1a6"/>
            </g>
            <path id="Trazado_716" data-name="Trazado 716" d="M215.984,328.908c-2.8,1.393-5.905,4.375-6.3,7.463a10.792,10.792,0,0,1,7.514-3.948c4.549-.622,9.1.321,13.675.321,3.822-.007,8.17.157,11.308,2.695a14.1,14.1,0,0,1,2.135,2.179,9.337,9.337,0,0,1-.57-1.568,7.828,7.828,0,0,1,.666-5.588l-.079.021a2.66,2.66,0,0,1-3.21-2.329c-.458-4.389,2.934-5.95,4.836-9.461,3.6-6.677.878-13.439,2.384-20.4.854-3.945,2.684-9.607,6.277-11.933a17.908,17.908,0,0,1,7.732-2.363,4.874,4.874,0,0,0-2.025-1.827c-5.089-2.647-11.694,2.763-14.508,6.472a31.123,31.123,0,0,0-5.83,17.722c-.208,7.859-.741,18.043-8.562,21.4C226.551,329.847,220.758,326.524,215.984,328.908Z" transform="translate(-209.626 -281.462)" fill="#91d584"/>
          </g>
        </g>
        <g id="Grupo_60" data-name="Grupo 60" transform="translate(37.894 354.619)">
          <path id="Trazado_717" data-name="Trazado 717" d="M213.167,272.141a8.1,8.1,0,0,1,11.3,1.824l4.829,6.7a8.091,8.091,0,0,1-1.824,11.3h0a8.086,8.086,0,0,1-11.291-1.834l-4.84-6.7a8.091,8.091,0,0,1,1.82-11.295Z" transform="translate(-156.246 -270.609)" fill="#5cb130" opacity="0.8" style="mix-blend-mode: multiply;isolation: isolate"/>
          <g id="Grupo_59" data-name="Grupo 59" transform="translate(0 7.179)">
            <g id="Grupo_58" data-name="Grupo 58" transform="translate(0 0)">
              <path id="Trazado_718" data-name="Trazado 718" d="M195.128,310.733c2.022,3.45,7.186,5.83,9.71,8.149a16.906,16.906,0,0,1,4.85,7.107c2.278,6.7,11.961,11.359,16.284,3.135,1.8-3.429-.311-7.285.266-10.929.946-6.014,7.623-7.3,12.036-9.976,5.922-3.6,7.244-10.827,10.912-16.3a17.462,17.462,0,0,1,6.356-5.885c3.631-1.947,11.339-5.741,7.189-10.823-3.631-4.44-11.831-2.07-15.881.222a31.116,31.116,0,0,0-12.347,14c-3.292,7.121-7.8,16.281-16.312,16.274-5.294,0-9.307-5.335-14.631-5.038C198.632,300.951,191.483,304.52,195.128,310.733Z" transform="translate(-194.13 -272.712)" fill="#67c1a6"/>
            </g>
            <path id="Trazado_721" data-name="Trazado 721" d="M203.072,300.671c-3.132.181-7.159,1.7-8.74,4.372a10.8,10.8,0,0,1,8.46-.663c4.426,1.229,8.234,3.89,12.435,5.69,3.518,1.51,7.452,3.371,9.331,6.94a14.707,14.707,0,0,1,1.107,2.842,9.246,9.246,0,0,1,.085-1.657,7.791,7.791,0,0,1,2.818-4.874.242.242,0,0,1-.075-.02,2.663,2.663,0,0,1-2.039-3.409c1.315-4.211,5.048-4.3,8.18-6.786,5.939-4.706,6.107-12,10.243-17.8,2.336-3.282,6.254-7.767,10.475-8.491a17.932,17.932,0,0,1,8.04.874,4.823,4.823,0,0,0-1.148-2.473c-3.631-4.44-11.831-2.07-15.882.222a31.116,31.116,0,0,0-12.346,14c-3.292,7.121-7.8,16.281-16.312,16.274C212.41,305.709,208.4,300.374,203.072,300.671Z" transform="translate(-193.642 -272.712)" fill="#91d584"/>
          </g>
        </g>
        <g id="Grupo_63" data-name="Grupo 63" transform="translate(0 284.795)">
          <path id="Trazado_722" data-name="Trazado 722" d="M211.886,257.328a8.086,8.086,0,0,1,7.343,8.771l-.731,8.231a8.089,8.089,0,0,1-8.774,7.346h0a8.092,8.092,0,0,1-7.343-8.777l.731-8.231a8.086,8.086,0,0,1,8.774-7.34Z" transform="translate(-140.883 -248.893)" fill="#5cb130" opacity="0.8" style="mix-blend-mode: multiply;isolation: isolate"/>
          <g id="Grupo_62" data-name="Grupo 62" transform="translate(0 0)">
            <g id="Grupo_61" data-name="Grupo 61">
              <path id="Trazado_723" data-name="Trazado 723" d="M184.489,259.663c-.724,3.924,1.622,9.109,2.008,12.521a16.935,16.935,0,0,1-.987,8.538c-2.661,6.554,1.6,16.428,10.253,13.04,3.6-1.417,4.532-5.711,7.36-8.094,4.655-3.924,10.536-.526,15.629.338,6.838,1.158,12.558-3.436,18.921-5.178a17.578,17.578,0,0,1,8.648-.287c4.023.912,12.329,3.087,12.528-3.467.16-5.734-7.592-9.317-12.152-10.229a31.076,31.076,0,0,0-18.494,2.486c-7.155,3.241-16.558,7.21-22.992,1.639-3.993-3.473-3.538-10.137-7.763-13.392C193.54,254.564,185.8,252.583,184.489,259.663Z" transform="translate(-184.352 -254.836)" fill="#67c1a6"/>
            </g>
            <path id="Trazado_726" data-name="Trazado 726" d="M194.881,257.572c-2.483-1.92-6.52-3.409-9.467-2.418,2.5.451,4.932,2.169,6.834,5.031,2.534,3.829,3.675,8.333,5.676,12.449,1.674,3.443,3.426,7.418,2.5,11.353a14.169,14.169,0,0,1-1.028,2.876,9.622,9.622,0,0,1,1.158-1.2,7.838,7.838,0,0,1,5.318-1.841l-.044-.058a2.663,2.663,0,0,1,.693-3.911c3.743-2.329,6.626.048,10.618.225,7.579.328,12.473-5.075,19.406-6.755,3.911-.953,9.809-1.779,13.474.44a17.9,17.9,0,0,1,5.5,5.922,4.787,4.787,0,0,0,.762-2.616c.161-5.734-7.592-9.317-12.152-10.229a31.075,31.075,0,0,0-18.494,2.486c-7.155,3.241-16.558,7.21-22.992,1.639C198.652,267.49,199.106,260.827,194.881,257.572Z" transform="translate(-181.786 -254.828)" fill="#91d584"/>
          </g>
        </g>
        <g id="Grupo_66" data-name="Grupo 66" transform="translate(7.168 192.824)">
          <path id="Trazado_727" data-name="Trazado 727" d="M214.812,236.873a8.092,8.092,0,0,1,4.908,10.335l-2.77,7.784a8.106,8.106,0,0,1-10.345,4.911h0a8.1,8.1,0,0,1-4.9-10.338l2.773-7.79a8.087,8.087,0,0,1,10.335-4.9Z" transform="translate(-140.621 -212.078)" fill="#5cb130" opacity="0.8" style="mix-blend-mode: multiply;isolation: isolate"/>
          <g id="Grupo_65" data-name="Grupo 65" transform="translate(0 0)">
            <g id="Grupo_64" data-name="Grupo 64">
              <path id="Trazado_728" data-name="Trazado 728" d="M189.987,232.787c-1.691,3.62-.717,9.225-1.2,12.627a16.868,16.868,0,0,1-3.1,8.019c-4.218,5.669-2.575,16.295,6.653,15.188,3.846-.461,5.823-4.389,9.157-5.977,5.492-2.637,10.325,2.135,15.038,4.249,6.329,2.835,13.026-.174,19.614-.256a17.455,17.455,0,0,1,8.45,1.9c3.661,1.885,11.158,6.083,12.992-.219,1.595-5.506-5-10.919-9.194-12.954a31.081,31.081,0,0,0-18.528-2.227c-7.736,1.332-17.838,2.818-22.657-4.2-3-4.361-.885-10.7-4.157-14.908C200.032,230.127,193.034,226.264,189.987,232.787Z" transform="translate(-183.485 -229.28)" fill="#67c1a6"/>
            </g>
            <path id="Trazado_731" data-name="Trazado 731" d="M195.265,234.015c-1.923-2.483-5.451-4.928-8.555-4.717,2.3,1.062,4.228,3.333,5.352,6.585,1.5,4.341,1.469,8.993,2.367,13.474.755,3.757,1.448,8.047-.42,11.623a14.479,14.479,0,0,1-1.721,2.521,9.031,9.031,0,0,1,1.421-.868,7.8,7.8,0,0,1,5.608-.447.607.607,0,0,1-.027-.072,2.665,2.665,0,0,1,1.65-3.607c4.215-1.315,6.411,1.711,10.229,2.879,7.247,2.223,13.347-1.776,20.475-1.667,4.023.065,9.942.745,12.934,3.815a17.753,17.753,0,0,1,3.832,7.118,4.788,4.788,0,0,0,1.394-2.35c1.595-5.506-5-10.919-9.194-12.954a31.081,31.081,0,0,0-18.528-2.227c-7.736,1.332-17.838,2.818-22.658-4.2C196.42,244.561,198.537,238.226,195.265,234.015Z" transform="translate(-175.696 -229.268)" fill="#91d584"/>
          </g>
        </g>
        <g id="Grupo_69" data-name="Grupo 69" transform="translate(40.484 104.622)">
          <path id="Trazado_732" data-name="Trazado 732" d="M225.515,219.079a8.087,8.087,0,0,1,1.4,11.353l-5.079,6.513a8.1,8.1,0,0,1-11.366,1.4h0a8.087,8.087,0,0,1-1.394-11.353l5.086-6.52a8.094,8.094,0,0,1,11.356-1.393Z" transform="translate(-152.573 -175.487)" fill="#5cb130" opacity="0.8" style="mix-blend-mode: multiply;isolation: isolate"/>
          <g id="Grupo_68" data-name="Grupo 68" transform="translate(0 0)">
            <g id="Grupo_67" data-name="Grupo 67">
              <path id="Trazado_733" data-name="Trazado 733" d="M206.727,207.155c-2.746,2.906-3.586,8.528-5.116,11.605a16.9,16.9,0,0,1-5.468,6.633c-5.792,4.051-7.582,14.659,1.527,16.513,3.791.768,6.9-2.333,10.567-2.79,6.045-.765,9.129,5.284,12.937,8.778,5.113,4.686,12.411,3.941,18.7,5.939a17.419,17.419,0,0,1,7.418,4.464c2.883,2.941,8.675,9.286,12.4,3.887,3.255-4.72-1.3-11.947-4.638-15.195a31.16,31.16,0,0,0-16.879-7.958c-7.767-1.168-17.825-2.944-20.185-11.12-1.475-5.089,2.534-10.43.758-15.455C217.1,207.8,211.679,201.926,206.727,207.155Z" transform="translate(-191.317 -205.103)" fill="#67c1a6"/>
            </g>
            <path id="Trazado_736" data-name="Trazado 736" d="M207.922,212.333c-1.042-2.961-3.624-6.4-6.636-7.179a10.793,10.793,0,0,1,3,7.941c.051,4.587-1.441,8.989-2,13.532-.468,3.8-1.158,8.094-4.061,10.892a14.142,14.142,0,0,1-2.428,1.855,9.2,9.2,0,0,1,1.619-.379,7.842,7.842,0,0,1,5.471,1.349c0-.027-.01-.055,0-.079a2.65,2.65,0,0,1,2.691-2.9c4.42.082,5.547,3.637,8.8,5.953,6.178,4.392,13.228,2.524,19.959,4.874,3.8,1.335,9.2,3.842,11.073,7.7a17.8,17.8,0,0,1,1.393,7.965,4.78,4.78,0,0,0,2.06-1.79c3.255-4.72-1.3-11.947-4.638-15.195a31.16,31.16,0,0,0-16.879-7.958c-7.767-1.168-17.825-2.944-20.185-11.12C205.688,222.7,209.7,217.357,207.922,212.333Z" transform="translate(-180.497 -204.981)" fill="#91d584"/>
          </g>
        </g>
        <g id="Grupo_72" data-name="Grupo 72" transform="translate(92.822 30.965)">
          <path id="Trazado_737" data-name="Trazado 737" d="M238.576,214.308a8.089,8.089,0,0,1-3.538,10.881l-7.357,3.75A8.1,8.1,0,0,1,216.79,225.4h0a8.1,8.1,0,0,1,3.538-10.881l7.37-3.753a8.091,8.091,0,0,1,10.878,3.538Z" transform="translate(-177.688 -151.792)" fill="#5cb130" opacity="0.8" style="mix-blend-mode: multiply;isolation: isolate"/>
          <g id="Grupo_71" data-name="Grupo 71" transform="translate(0 0)">
            <g id="Grupo_70" data-name="Grupo 70">
              <path id="Trazado_738" data-name="Trazado 738" d="M231.043,193.421c-3.716,1.472-6.861,6.209-9.546,8.347a16.876,16.876,0,0,1-7.763,3.7c-6.96,1.223-13.067,10.075-5.6,15.608,3.108,2.305,7.244.809,10.758,1.943,5.8,1.861,6.035,8.648,8.009,13.422,2.65,6.407,9.58,8.822,14.427,13.286a17.513,17.513,0,0,1,4.84,7.186c1.363,3.883,3.931,12.084,9.587,8.76,4.949-2.9,3.87-11.373,2.223-15.728A31.069,31.069,0,0,0,246.046,235.6c-6.54-4.348-14.9-10.209-13.583-18.617.816-5.236,6.711-8.378,7.22-13.689C240.172,198.39,237.74,190.774,231.043,193.421Z" transform="translate(-204.718 -192.877)" fill="#67c1a6"/>
            </g>
            <path id="Trazado_741" data-name="Trazado 741" d="M230.808,202.51c.311-3.122-.57-7.333-2.971-9.307.943,2.357.779,5.331-.639,8.467-1.9,4.174-5.113,7.538-7.538,11.414-2.032,3.248-4.471,6.841-8.286,8.149a13.934,13.934,0,0,1-2.982.656,8.829,8.829,0,0,1,1.626.345,7.829,7.829,0,0,1,4.382,3.531.317.317,0,0,1,.034-.068,2.654,2.654,0,0,1,3.668-1.5c3.969,1.95,3.491,5.646,5.458,9.122,3.743,6.6,10.922,7.876,16.021,12.855,2.883,2.814,6.715,7.374,6.786,11.657a17.892,17.892,0,0,1-2.107,7.811,4.8,4.8,0,0,0,2.62-.758c4.949-2.9,3.87-11.373,2.223-15.728a31.069,31.069,0,0,0-11.933-14.345c-6.54-4.348-14.9-10.209-13.583-18.617C224.4,210.963,230.3,207.821,230.808,202.51Z" transform="translate(-195.843 -192.089)" fill="#91d584"/>
          </g>
        </g>
        <g id="Grupo_75" data-name="Grupo 75" transform="translate(197.376 0)">
          <path id="Trazado_742" data-name="Trazado 742" d="M261.268,206.97a8.088,8.088,0,0,1-6.862,9.153l-8.18,1.175a8.093,8.093,0,0,1-9.16-6.865h0a8.093,8.093,0,0,1,6.861-9.15l8.187-1.175a8.087,8.087,0,0,1,9.153,6.861Z" transform="translate(-216.326 -137.142)" fill="#5cb130" opacity="0.8" style="mix-blend-mode: multiply;isolation: isolate"/>
          <g id="Grupo_74" data-name="Grupo 74" transform="translate(0 0)">
            <g id="Grupo_73" data-name="Grupo 73">
              <path id="Trazado_743" data-name="Trazado 743" d="M263.177,181.624c-3.993.191-8.494,3.665-11.732,4.822a16.9,16.9,0,0,1-8.538.994c-6.978-1.093-15.615,5.311-10.345,12.965,2.2,3.183,6.6,3.1,9.563,5.314,4.887,3.63,2.917,10.133,3.245,15.287.437,6.923,6.216,11.445,9.358,17.234a17.4,17.4,0,0,1,2.261,8.361c.041,4.119-.178,12.712,6.247,11.394,5.618-1.148,7.336-9.515,7.186-14.17a31.1,31.1,0,0,0-6.66-17.429c-4.788-6.226-10.806-14.474-6.851-22.009,2.466-4.689,9.061-5.762,11.257-10.622C270.212,189.277,270.369,181.282,263.177,181.624Z" transform="translate(-230.936 -181.613)" fill="#67c1a6"/>
            </g>
            <path id="Trazado_746" data-name="Trazado 746" d="M261.269,192.079c1.3-2.855,1.831-7.124.191-9.768.137,2.534-.98,5.294-3.337,7.8-3.142,3.344-7.271,5.485-10.816,8.371-2.975,2.418-6.448,5.034-10.475,5.038a14.261,14.261,0,0,1-3.04-.345,9.346,9.346,0,0,1,1.434.854,7.79,7.79,0,0,1,3.005,4.758c.021-.017.034-.044.051-.058a2.66,2.66,0,0,1,3.958-.225c3.129,3.122,1.475,6.469,2.22,10.393,1.411,7.449,7.79,10.984,11.015,17.343,1.817,3.593,3.969,9.143,2.65,13.224a17.924,17.924,0,0,1-4.512,6.708,4.773,4.773,0,0,0,2.722.133c5.618-1.148,7.336-9.515,7.186-14.17a31.1,31.1,0,0,0-6.66-17.429c-4.788-6.226-10.806-14.474-6.851-22.009C252.478,198.011,259.073,196.939,261.269,192.079Z" transform="translate(-224.038 -179.927)" fill="#91d584"/>
          </g>
        </g>
      </g>
    </g>
    <g id="Grupo_27" data-name="Grupo 27" transform="translate(906.59 346.37)">
      <g id="Grupo_26" data-name="Grupo 26" transform="translate(0 0)">
        <g id="Grupo_23" data-name="Grupo 23" transform="translate(0)">
          <g id="Grupo_16" data-name="Grupo 16">
            <g id="Grupo_152" data-name="Grupo 152">
              <path id="Trazado_753" data-name="Trazado 753" d="M108.081-194.384c40.249,16.794,79.841,43.72,105.079,82.093,25.144,38.373,36.027,88.285,26.27,133.131-9.757,44.752-40.155,84.438-75.338,113.429-35.276,28.99-75.338,47.285-114.179,49.349-38.842,2.158-76.464-12.009-117.463-21.11-40.906-9.1-85.1-13.322-114.648-36.4-29.553-22.986-44.471-64.924-44-105.079.563-40.155,16.325-78.434,33.494-116.243,17.075-37.81,35.558-75.15,65.487-96.635C-97.2-213.336-55.542-218.965-14.354-218.4,26.926-217.933,67.832-211.178,108.081-194.384Z" transform="translate(226.211 218.44)" fill="url(#linear-gradient)"/>
              <path id="Trazado_747" data-name="Trazado 747" d="M55.437-198.173c33.911,14.149,67.268,36.835,88.531,69.165,21.184,32.33,30.354,74.382,22.133,112.166-8.221,37.7-33.832,71.141-63.474,95.566-29.721,24.425-63.474,39.839-96.2,41.578-32.725,1.818-64.422-10.118-98.965-17.785C-127,94.849-164.231,91.292-189.13,71.847c-24.9-19.366-37.468-54.7-37.072-88.531.474-33.832,13.754-66.082,28.219-97.938,14.386-31.855,29.958-63.316,55.174-81.417,25.295-18.1,60.391-22.844,95.092-22.37C-12.937-218.013,21.527-212.322,55.437-198.173Z" transform="translate(263.155 250.115)" stroke="#68c89a" stroke-width="11" fill="url(#linear-gradient)"/>
              <path id="Trazado_748" data-name="Trazado 748" d="M-176.808-214.885c5.948,2.482,11.8,6.461,15.529,12.132a26.54,26.54,0,0,1,3.882,19.675c-1.442,6.614-5.934,12.479-11.134,16.763s-11.134,6.988-16.874,7.293-11.3-1.775-17.359-3.12-12.576-1.969-16.943-5.38-6.572-9.595-6.5-15.529,2.413-11.591,4.95-17.179,5.255-11.106,9.678-14.281,10.593-4.007,16.68-3.924A47.727,47.727,0,0,1-176.808-214.885Z" transform="translate(426.137 389.854)" stroke="#68c89a" stroke-width="11" fill="url(#linear-gradient)"/>
              <path id="Trazado_749" data-name="Trazado 749" d="M6234.016,614.353c-21.492,67-30.342-121.366,91.024-231.353,60.683-24.02,117.573-17.7,163.085,0s-106.2-22.756-156.764,50.569S6255.508,547.349,6234.016,614.353Z" transform="translate(-6191.921 -339.809)" fill="#c6ee78"/>
              <path id="Trazado_750" data-name="Trazado 750" d="M6348.06,677.761s300.886,3.43,270.544-157.127,31.605-13.906,31.605,7.585,2.529,206.069-194.69,195.955S6348.06,677.761,6348.06,677.761Z" transform="translate(-6205.076 -355.019)" fill="#5bb98e"/>
              <path id="Trazado_752" data-name="Trazado 752" d="M6348.06,677.761s300.886,3.43,270.544-157.127,31.605-13.906,31.605,7.585,2.529,206.069-194.69,195.955S6348.06,677.761,6348.06,677.761Z" transform="translate(-6215.407 -344.328)" fill="#bbe88c" opacity="0.7"/>
            </g>
          </g>
          <g id="Grupo_153" data-name="Grupo 153" transform="matrix(0.875, -0.485, 0.485, 0.875, 151.868, 172.23)">
            <ellipse id="Elipse_5" data-name="Elipse 5" cx="6.497" cy="7.305" rx="6.497" ry="7.305" transform="translate(1.986 3.752)" fill="#daffbb"/>
            <ellipse id="Elipse_7" data-name="Elipse 7" cx="6.497" cy="7.305" rx="6.497" ry="7.305" fill="#309e7d"/>
            <ellipse id="Elipse_6" data-name="Elipse 6" cx="5.733" cy="7.687" rx="5.733" ry="7.687" transform="translate(2.101 1.505)" fill="#242f3d" opacity="0.8"/>
          </g>
          <g id="Grupo_154" data-name="Grupo 154" transform="translate(214.207 143.844) rotate(-24)">
            <ellipse id="Elipse_5-2" data-name="Elipse 5" cx="6.497" cy="7.305" rx="6.497" ry="7.305" transform="translate(1.346 3.307)" fill="#daffbb"/>
            <ellipse id="Elipse_7-2" data-name="Elipse 7" cx="6.497" cy="7.305" rx="6.497" ry="7.305" transform="translate(0 0)" fill="#147d5d"/>
            <ellipse id="Elipse_6-2" data-name="Elipse 6" cx="5.733" cy="7.687" rx="5.733" ry="7.687" transform="translate(1.491 1.001)" fill="#242f3d" opacity="0.8"/>
          </g>
        </g>
        <g id="Grupo_24" data-name="Grupo 24" transform="translate(278.288 94.147)">
          <path id="Trazado_652" data-name="Trazado 652" d="M318.072,92.795c-3.924-.955-6.729,2.437-7.848,5.8a4.116,4.116,0,0,0,4.764,5.26c.156-.032.321-.069.487-.1a5.875,5.875,0,0,0,4.659-5.232,5.824,5.824,0,0,0,.33-.991C320.812,95.746,320.087,93.282,318.072,92.795Z" transform="translate(-209.865 65.589)" fill="#b5eea1" opacity="0.7"/>
          <path id="Trazado_653" data-name="Trazado 653" d="M315.889,92.1c-1.776,0-2.8,3.181-.734,3.181C316.921,95.278,317.94,92.1,315.889,92.1Z" transform="translate(-195.519 63.671)" fill="#b5eea1" opacity="0.7"/>
          <path id="Trazado_654" data-name="Trazado 654" d="M320.047,98.693a2.605,2.605,0,0,0-.922-1.175,4.341,4.341,0,0,0-4.576-.33l-.014.009a1.078,1.078,0,0,0-.11.041c-.078.037-.133.087-.211.128a5.257,5.257,0,0,0-1.712,1.4c-.041.05-.087.124-.128.184l-.023.041a3.77,3.77,0,0,0-.312.482,4.928,4.928,0,0,0-.734,2.359c-.014.11-.014.229-.018.344l0,.138a2.872,2.872,0,0,0,1.281,2.621c.069.041.133.06.188.1a3.545,3.545,0,0,0,.9.445,4.017,4.017,0,0,0,3.6-.188,6.313,6.313,0,0,0,2.153-1.854C320.515,102.034,320.965,100.051,320.047,98.693Z" transform="translate(-205.304 80.148)" fill="#b5eea1" opacity="0.7"/>
          <path id="Trazado_655" data-name="Trazado 655" d="M298.468,119.269c1.478-2.13,1.987-4.966.633-7.073-3.337-5.2-11.36-.014-10.887,5.127l0,.129c.266,2.832,1.9,4.429,4.4,4.645-.037.032-.064.064-.1.1l.124.014a5.089,5.089,0,0,0,2.69-.34A5.477,5.477,0,0,0,298.468,119.269Z" transform="translate(-288.195 128.066)" fill="#b5eea1" opacity="0.64"/>
          <path id="Trazado_656" data-name="Trazado 656" d="M298.648,103.846c-6.83,0-10.736,12.232-2.85,12.232C302.632,116.078,306.529,103.846,298.648,103.846Z" transform="translate(-276.593 105.847)" fill="#b5eea1" opacity="0.64"/>
          <path id="Trazado_657" data-name="Trazado 657" d="M294.818,107.552c-1.629,0-2.552,2.9-.688,2.9C295.759,110.453,296.681,107.552,294.818,107.552Z" transform="translate(-270.596 119.151)" fill="#b5eea1" opacity="0.7"/>
          <path id="Trazado_658" data-name="Trazado 658" d="M294.46,110.412c-2.194,0-3.442,3.924-.913,3.924C295.736,114.336,296.984,110.412,294.46,110.412Z" transform="translate(-274.02 129.418)" fill="#b5eea1" opacity="0.7"/>
          <path id="Trazado_659" data-name="Trazado 659" d="M318.7,65.538c.152-4.021-3.484-9.235-7.982-6.719-4.342,2.423-6.077,7.922-5.1,12.636a7.077,7.077,0,0,0,4.062,4.691c2.763,1.437,6.949-1.193,7.5-4.044a8.33,8.33,0,0,0,.11-1.014A15.518,15.518,0,0,0,318.7,65.538Z" transform="translate(-226.594 -58.159)" fill="#b5eea1" opacity="0.7"/>
          <path id="Trazado_660" data-name="Trazado 660" d="M311.336,59.981c-1.744,0-2.749,3.13-.73,3.13C312.355,63.111,313.347,59.981,311.336,59.981Z" transform="translate(-211.754 -51.62)" fill="#b5eea1" opacity="0.7"/>
          <path id="Trazado_661" data-name="Trazado 661" d="M314.459,67.769A2.793,2.793,0,0,0,314.1,67l0-.014a2.587,2.587,0,0,0-.2-1.042,2.894,2.894,0,0,0-3.383-1.964,5.255,5.255,0,0,0-4.347,5.127,3.9,3.9,0,0,0,3.846,3.8C312.476,72.758,315.244,70.532,314.459,67.769Z" transform="translate(-223.684 -37.446)" fill="#b5eea1" opacity="0.7"/>
          <path id="Trazado_662" data-name="Trazado 662" d="M311.705,63.076c-1.845,0-2.9,3.3-.771,3.3C312.77,66.376,313.83,63.076,311.705,63.076Z" transform="translate(-210.801 -40.51)" fill="#b5eea1" opacity="0.7"/>
        </g>
        <g id="Grupo_25" data-name="Grupo 25" transform="translate(73.866 244.104)">
          <path id="Trazado_663" data-name="Trazado 663" d="M255.289,95.138c-2.52-2.244-6.44-.124-8.083,2.139a7.429,7.429,0,0,0-1.281,2.57c-.128.353-.262.7-.363,1.06a4.751,4.751,0,0,0,.615,3.984c2.4,2.892,7.045,2,8.666-1.354a11.955,11.955,0,0,0,1.051-1.551C257.143,99.746,257.345,96.965,255.289,95.138Z" transform="translate(-237.46 -78.799)" fill="#caf5b3" opacity="0.64"/>
          <path id="Trazado_664" data-name="Trazado 664" d="M251.205,94.286c-2.754,0-4.319,4.925-1.143,4.925C252.811,99.211,254.377,94.286,251.205,94.286Z" transform="translate(-226.992 -78.428)" fill="#b1eba2"/>
          <path id="Trazado_665" data-name="Trazado 665" d="M250.975,90.831c-5.067,0-9.07,5.535-6.536,10.208a3.208,3.208,0,0,0,.849,1.028,3.3,3.3,0,0,0,3.787,2.13c3.231-.5,4.939-3.543,5.9-6.339C256.019,94.8,254.748,90.831,250.975,90.831Z" transform="translate(-243.657 -90.831)" fill="#caf5b3" opacity="0.64"/>
        </g>
      </g>
    </g>
    <g id="Grupo_156" data-name="Grupo 156" transform="translate(10.135 -7.063)">
      <ellipse id="Elipse_8" data-name="Elipse 8" cx="16" cy="14" rx="16" ry="14" transform="translate(1110.872 562.409)" fill="#99e596"/>
      <ellipse id="Elipse_12" data-name="Elipse 12" cx="16" cy="14" rx="16" ry="14" transform="translate(1105.872 558.409)" fill="#198060"/>
      <ellipse id="Elipse_11" data-name="Elipse 11" cx="16.5" cy="13.5" rx="16.5" ry="13.5" transform="translate(1107.872 560.409)" fill="#1d473b"/>
      <path id="Intersección_1" data-name="Intersección 1" d="M0,10.889C1.6,4.658,8,0,15.661,0a18.071,18.071,0,0,1,6.581,1.221c-1.6,6.23-8,10.888-15.663,10.888A18.072,18.072,0,0,1,0,10.889Z" transform="translate(1118.138 575.871)" fill="url(#linear-gradient-4)"/>
    </g>
    <g id="Grupo_158" data-name="Grupo 158" transform="translate(847.565 559.407)">
      <g id="Grupo_157" data-name="Grupo 157" transform="translate(195.442 86.939)">
        <g transform="matrix(1, 0, 0, 1, -212.25, -377.52)" filter="url(#Trazado_755)">
          <path id="Trazado_755-2" data-name="Trazado 755" d="M226.881,105.35a8.9,8.9,0,0,0-3.63-5.844A8.872,8.872,0,0,0,208,90.717a8.878,8.878,0,0,0-8.659,15.392,8.8,8.8,0,0,0-.581,4.816,8.9,8.9,0,0,0,10.193,7.37,8.814,8.814,0,0,0,5.634-3.388,8.736,8.736,0,0,0,4.923.625A8.894,8.894,0,0,0,226.881,105.35Z" transform="translate(21.25 295.47)" fill="#b8eba6"/>
        </g>
      </g>
    </g>
  </g>
</svg>
